<svg width="52" height="52" viewBox="0 0 52 52" fill="none" xmlns="http://www.w3.org/2000/svg">
<path d="M27.7174 5.45009C32.2566 5.81149 36.5467 7.67252 39.9121 10.7401C43.2774 13.8077 45.5268 17.9075 46.306 22.394L44.4042 21.2054C44.2025 21.0794 43.9591 21.0386 43.7274 21.0921C43.4957 21.1456 43.2948 21.2889 43.1687 21.4905C43.0427 21.6922 43.002 21.9356 43.0554 22.1673C43.1089 22.399 43.2522 22.5999 43.4538 22.726L46.7669 24.7967C46.8508 24.8929 46.9543 24.9701 47.0705 25.0231C47.1867 25.076 47.3129 25.1035 47.4406 25.1036C47.4559 25.1036 47.4715 25.1026 47.487 25.1018C47.4963 25.1018 47.5056 25.1036 47.5148 25.1036C47.6442 25.1037 47.7721 25.0758 47.8897 25.0218C48.0072 24.9678 48.1117 24.8889 48.1959 24.7906L50.8856 21.6527C51.0403 21.4722 51.1171 21.2375 51.0988 21.0004C51.0806 20.7633 50.9689 20.5432 50.7884 20.3884C50.6079 20.2337 50.3733 20.157 50.1362 20.1752C49.8991 20.1934 49.6789 20.3051 49.5242 20.4856L48.0839 22.1666C47.2341 17.2808 44.7887 12.8146 41.1303 9.46666C37.4718 6.11876 32.8066 4.07812 27.8648 3.66405C27.7475 3.65436 27.6294 3.66789 27.5173 3.70384C27.4052 3.7398 27.3012 3.79749 27.2114 3.87361C27.1216 3.94974 27.0477 4.04281 26.9938 4.14751C26.94 4.25221 26.9073 4.36649 26.8976 4.48383C26.8879 4.60117 26.9014 4.71927 26.9374 4.83138C26.9733 4.9435 27.031 5.04743 27.1071 5.13725C27.1833 5.22707 27.2763 5.30101 27.381 5.35487C27.4857 5.40872 27.6 5.44142 27.7174 5.4511V5.45009Z" fill="#4D4D4D"/>
<path d="M24.2787 46.55C19.7394 46.1886 15.4493 44.3275 12.0839 41.2599C8.71857 38.1924 6.46919 34.0925 5.69001 29.606L7.59182 30.7946C7.69166 30.857 7.80281 30.8991 7.91893 30.9186C8.03505 30.938 8.15387 30.9344 8.26859 30.9079C8.38331 30.8815 8.49169 30.8327 8.58755 30.7643C8.68341 30.6959 8.76486 30.6094 8.82727 30.5095C8.88967 30.4097 8.93179 30.2985 8.95123 30.1824C8.97068 30.0663 8.96706 29.9475 8.94058 29.8327C8.91411 29.718 8.8653 29.6096 8.79694 29.5138C8.72858 29.4179 8.642 29.3365 8.54216 29.2741L5.22739 27.2024C5.13991 27.1027 5.03137 27.0236 4.90962 26.971C4.78786 26.9184 4.65593 26.8935 4.52337 26.8981C4.38706 26.8915 4.25103 26.916 4.12567 26.97C4.00032 27.024 3.88895 27.1059 3.80008 27.2094L1.11042 30.3474C0.955657 30.5279 0.878948 30.7625 0.89717 30.9996C0.915391 31.2367 1.02705 31.4568 1.20759 31.6116C1.38812 31.7664 1.62274 31.8431 1.85983 31.8249C2.09693 31.8066 2.31707 31.695 2.47184 31.5144L3.91215 29.8334C4.76185 34.7192 7.20727 39.1855 10.8658 42.5334C14.5242 45.8813 19.1894 47.9219 24.1312 48.336C24.1563 48.338 24.1812 48.339 24.2059 48.339C24.4373 48.3388 24.6595 48.2492 24.8263 48.0889C24.9931 47.9286 25.0915 47.71 25.1009 47.4789C25.1103 47.2477 25.03 47.0219 24.8767 46.8486C24.7235 46.6753 24.5092 46.5679 24.2787 46.5489V46.55Z" fill="#4D4D4D"/>
<path d="M39 26.0001C36.4288 26.0001 33.9154 26.7625 31.7776 28.191C29.6398 29.6194 27.9735 31.6497 26.9896 34.0252C26.0056 36.4006 25.7482 39.0145 26.2498 41.5362C26.7514 44.058 27.9895 46.3744 29.8076 48.1925C31.6257 50.0105 33.9421 51.2487 36.4638 51.7503C38.9856 52.2519 41.5995 51.9944 43.9749 51.0105C46.3503 50.0266 48.3807 48.3603 49.8091 46.2225C51.2376 44.0846 52 41.5712 52 39.0001C51.9961 35.5534 50.6252 32.2491 48.1881 29.812C45.7509 27.3749 42.4466 26.004 39 26.0001ZM37.8793 38.1035H40.1207C41.2502 38.1035 42.3333 38.5522 43.132 39.3508C43.9306 40.1495 44.3793 41.2327 44.3793 42.3621C44.3793 43.4916 43.9306 44.5748 43.132 45.3734C42.3333 46.1721 41.2502 46.6208 40.1207 46.6208H39.8966V47.5173C39.8966 47.7551 39.8021 47.9831 39.634 48.1513C39.4658 48.3194 39.2378 48.4139 39 48.4139C38.7622 48.4139 38.5342 48.3194 38.366 48.1513C38.1979 47.9831 38.1035 47.7551 38.1035 47.5173V46.6208H37.2069C36.2561 46.6197 35.3446 46.2415 34.6723 45.5692C33.9999 44.8969 33.6218 43.9853 33.6207 43.0345C33.6207 42.7968 33.7152 42.5687 33.8833 42.4006C34.0514 42.2325 34.2795 42.138 34.5172 42.138C34.755 42.138 34.9831 42.2325 35.1512 42.4006C35.3193 42.5687 35.4138 42.7968 35.4138 43.0345C35.4144 43.5099 35.6035 43.9657 35.9396 44.3018C36.2758 44.638 36.7315 44.8271 37.2069 44.8277H40.1207C40.7746 44.8277 41.4017 44.5679 41.8641 44.1055C42.3265 43.6431 42.5862 43.016 42.5862 42.3621C42.5862 41.7082 42.3265 41.0811 41.8641 40.6187C41.4017 40.1564 40.7746 39.8966 40.1207 39.8966H37.8793C36.7499 39.8966 35.6667 39.4479 34.868 38.6493C34.0694 37.8506 33.6207 36.7675 33.6207 35.638C33.6207 34.5085 34.0694 33.4253 34.868 32.6267C35.6667 31.828 36.7499 31.3794 37.8793 31.3794H38.1035V30.4828C38.1035 30.245 38.1979 30.017 38.366 29.8489C38.5342 29.6807 38.7622 29.5863 39 29.5863C39.2378 29.5863 39.4658 29.6807 39.634 29.8489C39.8021 30.017 39.8966 30.245 39.8966 30.4828V31.3794H40.7931C41.7439 31.3804 42.6554 31.7586 43.3278 32.4309C44.0001 33.1032 44.3782 34.0148 44.3793 34.9656C44.3793 35.2034 44.2849 35.4314 44.1167 35.5995C43.9486 35.7677 43.7205 35.8621 43.4828 35.8621C43.245 35.8621 43.0169 35.7677 42.8488 35.5995C42.6807 35.4314 42.5862 35.2034 42.5862 34.9656C42.5856 34.4902 42.3966 34.0344 42.0604 33.6983C41.7243 33.3621 41.2685 33.173 40.7931 33.1725H37.8793C37.2254 33.1725 36.5983 33.4322 36.1359 33.8946C35.6736 34.357 35.4138 34.9841 35.4138 35.638C35.4138 36.2919 35.6736 36.919 36.1359 37.3814C36.5983 37.8438 37.2254 38.1035 37.8793 38.1035Z" fill="#DAA10E"/>
<path d="M17.485 16.138C17.4843 15.5437 17.2479 14.974 16.8277 14.5538C16.4075 14.1337 15.8378 13.8973 15.2436 13.8966H9.41602V18.3794H15.2436C15.8378 18.3787 16.4075 18.1423 16.8277 17.7221C17.2479 17.3019 17.4843 16.7322 17.485 16.138Z" fill="#DAA10E"/>
<path d="M17.485 9.86217C17.4843 9.26793 17.2479 8.69822 16.8277 8.27803C16.4075 7.85783 15.8378 7.62147 15.2436 7.62079H9.41602V12.1035H15.2436C15.8378 12.1029 16.4075 11.8665 16.8277 11.4463C17.2479 11.0261 17.4843 10.4564 17.485 9.86217Z" fill="#DAA10E"/>
<path d="M13 26C15.5712 26 18.0846 25.2376 20.2224 23.8091C22.3602 22.3806 24.0265 20.3503 25.0104 17.9749C25.9944 15.5994 26.2518 12.9856 25.7502 10.4638C25.2486 7.94208 24.0105 5.6257 22.1924 3.80762C20.3743 1.98953 18.0579 0.751405 15.5362 0.249797C13.0144 -0.251811 10.4006 0.00563286 8.02511 0.989572C5.64967 1.97351 3.61935 3.63975 2.19089 5.77759C0.762437 7.91543 0 10.4288 0 13C0.00391533 16.4466 1.37481 19.7509 3.81194 22.1881C6.24906 24.6252 9.55339 25.9961 13 26ZM7.62069 6.72414C7.62069 6.48636 7.71515 6.25832 7.88328 6.09019C8.05142 5.92205 8.27946 5.82759 8.51724 5.82759H10.3103V4.93104C10.3103 4.69326 10.4048 4.46522 10.5729 4.29708C10.7411 4.12895 10.9691 4.03449 11.2069 4.03449C11.4447 4.03449 11.6727 4.12895 11.8409 4.29708C12.009 4.46522 12.1034 4.69326 12.1034 4.93104V5.82759H13.8965V4.93104C13.8965 4.69326 13.991 4.46522 14.1591 4.29708C14.3273 4.12895 14.5553 4.03449 14.7931 4.03449C15.0309 4.03449 15.2589 4.12895 15.4271 4.29708C15.5952 4.46522 15.6897 4.69326 15.6897 4.93104V5.85314C16.481 5.94114 17.2286 6.26147 17.8381 6.77376C18.4476 7.28604 18.8919 7.96734 19.1147 8.73174C19.3376 9.49613 19.3291 10.3094 19.0904 11.069C18.8517 11.8286 18.3934 12.5005 17.7733 13C18.3934 13.4995 18.8517 14.1714 19.0904 14.931C19.3291 15.6906 19.3376 16.5039 19.1147 17.2683C18.8919 18.0327 18.4476 18.714 17.8381 19.2262C17.2286 19.7385 16.481 20.0589 15.6897 20.1469V21.069C15.6897 21.3067 15.5952 21.5348 15.4271 21.7029C15.2589 21.8711 15.0309 21.9655 14.7931 21.9655C14.5553 21.9655 14.3273 21.8711 14.1591 21.7029C13.991 21.5348 13.8965 21.3067 13.8965 21.069V20.1724H12.1034V21.069C12.1034 21.3067 12.009 21.5348 11.8409 21.7029C11.6727 21.8711 11.4447 21.9655 11.2069 21.9655C10.9691 21.9655 10.7411 21.8711 10.5729 21.7029C10.4048 21.5348 10.3103 21.3067 10.3103 21.069V20.1724H8.51724C8.27946 20.1724 8.05142 20.078 7.88328 19.9098C7.71515 19.7417 7.62069 19.5136 7.62069 19.2759V6.72414Z" fill="#DAA10E"/>
</svg>
