<svg width="256" height="256" viewBox="0 0 256 256" fill="none" xmlns="http://www.w3.org/2000/svg">
<path d="M135.671 36.3151C155.923 37.9274 175.064 46.2305 190.078 59.9166C205.093 73.6028 215.129 91.8944 218.605 111.911L210.12 106.608C209.22 106.046 208.134 105.864 207.101 106.102C206.067 106.341 205.17 106.98 204.608 107.88C204.046 108.78 203.864 109.866 204.102 110.899C204.341 111.933 204.98 112.83 205.88 113.392L220.662 122.631C221.036 123.06 221.498 123.405 222.016 123.641C222.534 123.877 223.097 123.999 223.667 124C223.736 124 223.805 123.996 223.874 123.992C223.916 123.992 223.957 124 223.998 124C224.575 124.001 225.146 123.876 225.671 123.635C226.195 123.394 226.661 123.042 227.037 122.604L239.037 108.604C239.728 107.798 240.07 106.751 239.988 105.694C239.907 104.636 239.409 103.654 238.604 102.963C237.798 102.273 236.751 101.93 235.693 102.012C234.636 102.093 233.653 102.591 232.963 103.397L226.537 110.897C222.746 89.0984 211.836 69.172 195.513 54.2352C179.191 39.2984 158.377 30.194 136.329 28.3466C135.806 28.3034 135.279 28.3637 134.778 28.5241C134.278 28.6845 133.815 28.9419 133.414 29.2815C133.013 29.6212 132.683 30.0364 132.443 30.5035C132.203 30.9707 132.057 31.4805 132.014 32.0041C131.97 32.5276 132.031 33.0545 132.191 33.5547C132.352 34.0549 132.609 34.5186 132.949 34.9193C133.288 35.32 133.703 35.6499 134.171 35.8902C134.638 36.1305 135.148 36.2764 135.671 36.3196V36.3151Z" fill="black"/>
<path d="M120.329 219.685C100.077 218.073 80.9365 209.77 65.9219 196.084C50.9072 182.397 40.8715 164.106 37.3952 144.089L45.8802 149.392C46.3256 149.671 46.8216 149.858 47.3396 149.945C47.8577 150.032 48.3878 150.016 48.8996 149.898C49.4115 149.78 49.895 149.562 50.3227 149.257C50.7504 148.952 51.1138 148.566 51.3922 148.12C51.6706 147.675 51.8585 147.179 51.9453 146.661C52.032 146.143 52.0159 145.613 51.8978 145.101C51.7797 144.589 51.5619 144.105 51.2569 143.678C50.9519 143.25 50.5656 142.887 50.1202 142.608L35.3312 133.365C34.9409 132.92 34.4567 132.568 33.9135 132.333C33.3702 132.098 32.7816 131.987 32.1902 132.008C31.582 131.978 30.9751 132.088 30.4159 132.328C29.8566 132.569 29.3597 132.935 28.9632 133.397L16.9632 147.397C16.2727 148.202 15.9305 149.249 16.0118 150.307C16.0931 151.364 16.5912 152.347 17.3967 153.037C18.2022 153.728 19.2489 154.07 20.3067 153.989C21.3645 153.907 22.3467 153.409 23.0372 152.604L29.4632 145.104C33.2542 166.902 44.1645 186.828 60.487 201.765C76.8095 216.702 97.6231 225.806 119.671 227.654C119.783 227.663 119.894 227.667 120.005 227.667C121.037 227.666 122.029 227.266 122.773 226.551C123.517 225.836 123.956 224.861 123.998 223.83C124.039 222.798 123.681 221.791 122.997 221.018C122.314 220.244 121.358 219.765 120.329 219.681V219.685Z" fill="black"/>
<path d="M186 128C174.529 128 163.315 131.402 153.777 137.775C144.239 144.148 136.805 153.206 132.415 163.804C128.025 174.402 126.877 186.064 129.114 197.315C131.352 208.566 136.876 218.901 144.988 227.012C153.099 235.124 163.434 240.648 174.685 242.886C185.936 245.123 197.598 243.975 208.196 239.585C218.794 235.195 227.852 227.761 234.225 218.223C240.598 208.685 244 197.471 244 186C243.983 170.623 237.866 155.88 226.993 145.007C216.12 134.134 201.377 128.017 186 128V128ZM181 182H191C196.039 182 200.872 184.002 204.435 187.565C207.998 191.128 210 195.961 210 201C210 206.039 207.998 210.872 204.435 214.435C200.872 217.998 196.039 220 191 220H190V224C190 225.061 189.579 226.078 188.828 226.828C188.078 227.579 187.061 228 186 228C184.939 228 183.922 227.579 183.172 226.828C182.421 226.078 182 225.061 182 224V220H178C173.758 219.995 169.691 218.308 166.692 215.308C163.692 212.309 162.005 208.242 162 204C162 202.939 162.421 201.922 163.172 201.172C163.922 200.421 164.939 200 166 200C167.061 200 168.078 200.421 168.828 201.172C169.579 201.922 170 202.939 170 204C170.003 206.121 170.846 208.154 172.346 209.654C173.846 211.154 175.879 211.997 178 212H191C193.917 212 196.715 210.841 198.778 208.778C200.841 206.715 202 203.917 202 201C202 198.083 200.841 195.285 198.778 193.222C196.715 191.159 193.917 190 191 190H181C175.961 190 171.128 187.998 167.565 184.435C164.002 180.872 162 176.039 162 171C162 165.961 164.002 161.128 167.565 157.565C171.128 154.002 175.961 152 181 152H182V148C182 146.939 182.421 145.922 183.172 145.172C183.922 144.421 184.939 144 186 144C187.061 144 188.078 144.421 188.828 145.172C189.579 145.922 190 146.939 190 148V152H194C198.242 152.005 202.309 153.692 205.308 156.692C208.308 159.691 209.995 163.758 210 168C210 169.061 209.579 170.078 208.828 170.828C208.078 171.579 207.061 172 206 172C204.939 172 203.922 171.579 203.172 170.828C202.421 170.078 202 169.061 202 168C201.998 165.879 201.154 163.846 199.654 162.346C198.154 160.846 196.121 160.003 194 160H181C178.083 160 175.285 161.159 173.222 163.222C171.159 165.285 170 168.083 170 171C170 173.917 171.159 176.715 173.222 178.778C175.285 180.841 178.083 182 181 182Z" fill="#E0AA3A"/>
<path d="M90 84C89.997 81.3488 88.9424 78.807 87.0677 76.9323C85.193 75.0576 82.6512 74.003 80 74H54V94H80C82.6512 93.997 85.193 92.9424 87.0677 91.0677C88.9424 89.193 89.997 86.6512 90 84V84Z" fill="#E0AA3A"/>
<path d="M90 56C89.997 53.3488 88.9424 50.807 87.0677 48.9323C85.193 47.0576 82.6512 46.003 80 46H54V66H80C82.6512 65.997 85.193 64.9424 87.0677 63.0677C88.9424 61.193 89.997 58.6512 90 56V56Z" fill="#E0AA3A"/>
<path d="M70 128C81.4713 128 92.685 124.598 102.223 118.225C111.761 111.852 119.195 102.794 123.585 92.1957C127.975 81.5975 129.123 69.9357 126.886 58.6848C124.648 47.4339 119.124 37.0993 111.012 28.9878C102.901 20.8764 92.5661 15.3524 81.3152 13.1145C70.0643 10.8765 58.4025 12.0251 47.8044 16.415C37.2062 20.8049 28.1479 28.2389 21.7748 37.777C15.4016 47.315 12 58.5287 12 70C12.0175 85.3772 18.1338 100.12 29.0071 110.993C39.8804 121.866 54.6228 127.983 70 128ZM46 42C46 40.9392 46.4214 39.9217 47.1716 39.1716C47.9217 38.4215 48.9391 38 50 38H58V34C58 32.9392 58.4214 31.9217 59.1716 31.1716C59.9217 30.4215 60.9391 30 62 30C63.0609 30 64.0783 30.4215 64.8284 31.1716C65.5786 31.9217 66 32.9392 66 34V38H74V34C74 32.9392 74.4214 31.9217 75.1716 31.1716C75.9217 30.4215 76.9391 30 78 30C79.0609 30 80.0783 30.4215 80.8284 31.1716C81.5786 31.9217 82 32.9392 82 34V38.114C85.5306 38.5066 88.8659 39.9358 91.5854 42.2214C94.3049 44.507 96.2867 47.5466 97.281 50.957C98.2754 54.3674 98.2376 57.9958 97.1726 61.3848C96.1076 64.7738 94.0629 67.7715 91.2965 70C94.0629 72.2285 96.1076 75.2263 97.1726 78.6153C98.2376 82.0042 98.2754 85.6327 97.281 89.0431C96.2867 92.4534 94.3049 95.4931 91.5854 97.7787C88.8659 100.064 85.5306 101.493 82 101.886V106C82 107.061 81.5786 108.078 80.8284 108.828C80.0783 109.579 79.0609 110 78 110C76.9391 110 75.9217 109.579 75.1716 108.828C74.4214 108.078 74 107.061 74 106V102H66V106C66 107.061 65.5786 108.078 64.8284 108.828C64.0783 109.579 63.0609 110 62 110C60.9391 110 59.9217 109.579 59.1716 108.828C58.4214 108.078 58 107.061 58 106V102H50C48.9391 102 47.9217 101.579 47.1716 100.828C46.4214 100.078 46 99.0609 46 98V42Z" fill="#E0AA3A"/>
</svg>
