<svg width="100" height="100" viewBox="0 0 100 100" fill="none" xmlns="http://www.w3.org/2000/svg">
<circle cx="50" cy="50" r="49.5" stroke="black"/>
<circle cx="50" cy="50" r="49.5" stroke="url(#paint0_linear)"/>
<path d="M51.6506 30.2405C56.0152 30.588 60.1403 32.3775 63.3763 35.3271C66.6122 38.2767 68.775 42.2189 69.5242 46.5328L67.6956 45.3899C67.5017 45.2687 67.2676 45.2295 67.0448 45.2809C66.8221 45.3323 66.6288 45.4701 66.5077 45.664C66.3865 45.8579 66.3473 46.092 66.3987 46.3148C66.4501 46.5375 66.5879 46.7308 66.7818 46.852L69.9675 48.843C70.0481 48.9356 70.1476 49.0098 70.2594 49.0607C70.3711 49.1116 70.4924 49.138 70.6152 49.1382C70.63 49.1382 70.6449 49.1372 70.6598 49.1364C70.6687 49.1364 70.6777 49.1382 70.6865 49.1382C70.811 49.1383 70.9339 49.1114 71.047 49.0595C71.1601 49.0075 71.2605 48.9317 71.3415 48.8372L73.9277 45.82C74.0765 45.6464 74.1503 45.4208 74.1327 45.1928C74.1152 44.9648 74.0079 44.7531 73.8343 44.6043C73.6607 44.4555 73.4351 44.3818 73.2071 44.3993C72.9791 44.4168 72.7675 44.5242 72.6186 44.6978L71.2337 46.3141C70.4167 41.6163 68.0653 37.3218 64.5476 34.1026C61.0298 30.8835 56.5441 28.9213 51.7924 28.5232C51.6795 28.5139 51.566 28.5269 51.4582 28.5614C51.3504 28.596 51.2504 28.6515 51.1641 28.7247C51.0777 28.7979 51.0066 28.8874 50.9548 28.988C50.903 29.0887 50.8716 29.1986 50.8623 29.3114C50.853 29.4243 50.866 29.5378 50.9006 29.6456C50.9351 29.7534 50.9906 29.8534 51.0638 29.9397C51.137 30.0261 51.2265 30.0972 51.3272 30.149C51.4278 30.2007 51.5377 30.2322 51.6506 30.2415V30.2405Z" fill="#4D4D4D"/>
<path d="M48.3441 69.7595C43.9794 69.412 39.8543 67.6226 36.6184 64.673C33.3825 61.7234 31.2196 57.7812 30.4704 53.4673L32.2991 54.6102C32.3951 54.6702 32.502 54.7107 32.6136 54.7294C32.7253 54.7481 32.8395 54.7446 32.9498 54.7191C33.0601 54.6937 33.1643 54.6467 33.2565 54.581C33.3487 54.5153 33.427 54.432 33.487 54.336C33.547 54.24 33.5875 54.1332 33.6062 54.0215C33.6249 53.9098 33.6214 53.7956 33.596 53.6853C33.5705 53.575 33.5236 53.4708 33.4578 53.3786C33.3921 53.2864 33.3089 53.2081 33.2129 53.1481L30.0256 51.1561C29.9415 51.0602 29.8371 50.9842 29.72 50.9336C29.603 50.883 29.4761 50.8591 29.3486 50.8635C29.2176 50.8571 29.0868 50.8808 28.9662 50.9327C28.8457 50.9845 28.7386 51.0633 28.6532 51.1629L26.067 54.1801C25.9181 54.3537 25.8444 54.5793 25.8619 54.8073C25.8794 55.0352 25.9868 55.2469 26.1604 55.3957C26.334 55.5445 26.5596 55.6183 26.7876 55.6008C27.0155 55.5833 27.2272 55.4759 27.376 55.3023L28.7609 53.6859C29.578 58.3838 31.9293 62.6783 35.4471 65.8974C38.9649 69.1166 43.4506 71.0787 48.2023 71.4769C48.2264 71.4788 48.2504 71.4798 48.2742 71.4798C48.4966 71.4796 48.7104 71.3934 48.8707 71.2393C49.0311 71.0851 49.1257 70.875 49.1347 70.6527C49.1437 70.4305 49.0665 70.2133 48.9192 70.0467C48.7718 69.8801 48.5658 69.7768 48.3441 69.7586V69.7595Z" fill="#4D4D4D"/>
<path d="M62.5 50.0001C60.0277 50.0001 57.611 50.7332 55.5554 52.1067C53.4998 53.4802 51.8976 55.4324 50.9515 57.7165C50.0054 60.0006 49.7579 62.5139 50.2402 64.9387C50.7225 67.3635 51.913 69.5907 53.6612 71.3389C55.4093 73.0871 57.6366 74.2776 60.0614 74.7599C62.4861 75.2422 64.9995 74.9947 67.2836 74.0486C69.5676 73.1025 71.5199 71.5003 72.8934 69.4447C74.2669 67.3891 75 64.9723 75 62.5001C74.9962 59.186 73.6781 56.0088 71.3347 53.6654C68.9913 51.322 65.8141 50.0038 62.5 50.0001V50.0001ZM61.4224 61.638H63.5776C64.6636 61.638 65.7051 62.0694 66.4731 62.8373C67.241 63.6053 67.6724 64.6468 67.6724 65.7328C67.6724 66.8188 67.241 67.8604 66.4731 68.6283C65.7051 69.3962 64.6636 69.8277 63.5776 69.8277H63.3621V70.6897C63.3621 70.9184 63.2713 71.1376 63.1096 71.2993C62.9479 71.461 62.7286 71.5518 62.5 71.5518C62.2714 71.5518 62.0521 71.461 61.8904 71.2993C61.7288 71.1376 61.6379 70.9184 61.6379 70.6897V69.8277H60.7759C59.8616 69.8266 58.9852 69.463 58.3387 68.8165C57.6923 68.1701 57.3286 67.2936 57.3276 66.3794C57.3276 66.1507 57.4184 65.9315 57.5801 65.7698C57.7418 65.6081 57.961 65.5173 58.1897 65.5173C58.4183 65.5173 58.6376 65.6081 58.7992 65.7698C58.9609 65.9315 59.0517 66.1507 59.0517 66.3794C59.0523 66.8365 59.2341 67.2747 59.5573 67.5979C59.8805 67.9212 60.3188 68.103 60.7759 68.1035H63.5776C64.2063 68.1035 64.8093 67.8537 65.2539 67.4092C65.6985 66.9646 65.9483 66.3616 65.9483 65.7328C65.9483 65.1041 65.6985 64.5011 65.2539 64.0565C64.8093 63.6119 64.2063 63.3621 63.5776 63.3621H61.4224C60.3364 63.3621 59.2949 62.9307 58.5269 62.1628C57.759 61.3949 57.3276 60.3533 57.3276 59.2673C57.3276 58.1813 57.759 57.1398 58.5269 56.3718C59.2949 55.6039 60.3364 55.1725 61.4224 55.1725H61.6379V54.3104C61.6379 54.0818 61.7288 53.8625 61.8904 53.7008C62.0521 53.5392 62.2714 53.4483 62.5 53.4483C62.7286 53.4483 62.9479 53.5392 63.1096 53.7008C63.2713 53.8625 63.3621 54.0818 63.3621 54.3104V55.1725H64.2241C65.1384 55.1735 66.0149 55.5371 66.6613 56.1836C67.3078 56.83 67.6714 57.7065 67.6724 58.6208C67.6724 58.8494 67.5816 59.0687 67.4199 59.2303C67.2583 59.392 67.039 59.4828 66.8104 59.4828C66.5817 59.4828 66.3624 59.392 66.2008 59.2303C66.0391 59.0687 65.9483 58.8494 65.9483 58.6208C65.9477 58.1636 65.7659 57.7254 65.4427 57.4022C65.1195 57.079 64.6813 56.8972 64.2241 56.8966H61.4224C60.7937 56.8966 60.1907 57.1464 59.7461 57.591C59.3015 58.0356 59.0517 58.6386 59.0517 59.2673C59.0517 59.8961 59.3015 60.499 59.7461 60.9436C60.1907 61.3882 60.7937 61.638 61.4224 61.638Z" fill="#DAA10E"/>
<path d="M41.8133 40.5174C41.8127 39.946 41.5854 39.3982 41.1813 38.9941C40.7773 38.5901 40.2295 38.3628 39.6581 38.3622H34.0547V42.6725H39.6581C40.2295 42.6719 40.7773 42.4446 41.1813 42.0406C41.5854 41.6365 41.8127 41.0887 41.8133 40.5174V40.5174Z" fill="#DAA10E"/>
<path d="M41.8133 34.4829C41.8127 33.9115 41.5854 33.3637 41.1813 32.9597C40.7773 32.5556 40.2295 32.3284 39.6581 32.3277H34.0547V36.638H39.6581C40.2295 36.6374 40.7773 36.4101 41.1813 36.0061C41.5854 35.6021 41.8127 35.0543 41.8133 34.4829V34.4829Z" fill="#DAA10E"/>
<path d="M37.5 50C39.9723 50 42.389 49.2669 44.4446 47.8934C46.5002 46.5199 48.1024 44.5676 49.0485 42.2835C49.9946 39.9995 50.2421 37.4861 49.7598 35.0614C49.2775 32.6366 48.087 30.4093 46.3388 28.6612C44.5907 26.913 42.3634 25.7225 39.9386 25.2402C37.5139 24.7579 35.0005 25.0054 32.7165 25.9515C30.4324 26.8976 28.4801 28.4998 27.1066 30.5554C25.7331 32.611 25 35.0277 25 37.5C25.0038 40.8141 26.3219 43.9913 28.6653 46.3347C31.0087 48.6781 34.1859 49.9962 37.5 50ZM32.3276 31.4655C32.3276 31.2369 32.4184 31.0176 32.5801 30.8559C32.7417 30.6943 32.961 30.6035 33.1897 30.6035H34.9138V29.7414C34.9138 29.5128 35.0046 29.2935 35.1663 29.1318C35.328 28.9701 35.5472 28.8793 35.7759 28.8793C36.0045 28.8793 36.2238 28.9701 36.3854 29.1318C36.5471 29.2935 36.6379 29.5128 36.6379 29.7414V30.6035H38.3621V29.7414C38.3621 29.5128 38.4529 29.2935 38.6146 29.1318C38.7762 28.9701 38.9955 28.8793 39.2241 28.8793C39.4528 28.8793 39.672 28.9701 39.8337 29.1318C39.9954 29.2935 40.0862 29.5128 40.0862 29.7414V30.628C40.8471 30.7126 41.5659 31.0206 42.152 31.5132C42.7381 32.0058 43.1652 32.6609 43.3795 33.3959C43.5938 34.1309 43.5857 34.9129 43.3562 35.6433C43.1266 36.3737 42.686 37.0197 42.0898 37.5C42.686 37.9803 43.1266 38.6264 43.3562 39.3567C43.5857 40.0871 43.5938 40.8691 43.3795 41.6041C43.1652 42.3391 42.7381 42.9942 42.152 43.4868C41.5659 43.9794 40.8471 44.2874 40.0862 44.372V45.2586C40.0862 45.4873 39.9954 45.7065 39.8337 45.8682C39.672 46.0299 39.4528 46.1207 39.2241 46.1207C38.9955 46.1207 38.7762 46.0299 38.6146 45.8682C38.4529 45.7065 38.3621 45.4873 38.3621 45.2586V44.3966H36.6379V45.2586C36.6379 45.4873 36.5471 45.7065 36.3854 45.8682C36.2238 46.0299 36.0045 46.1207 35.7759 46.1207C35.5472 46.1207 35.328 46.0299 35.1663 45.8682C35.0046 45.7065 34.9138 45.4873 34.9138 45.2586V44.3966H33.1897C32.961 44.3966 32.7417 44.3057 32.5801 44.1441C32.4184 43.9824 32.3276 43.7631 32.3276 43.5345V31.4655Z" fill="#DAA10E"/>
<defs>
<linearGradient id="paint0_linear" x1="100" y1="50" x2="3.48559e-07" y2="50" gradientUnits="userSpaceOnUse">
<stop stop-color="#DAA10E" stop-opacity="0.5"/>
<stop offset="0.369792" stop-color="#DAA10E" stop-opacity="0.21875"/>
<stop offset="0.6875" stop-color="#DAA10E" stop-opacity="0"/>
</linearGradient>
</defs>
</svg>
