<svg width="232" height="232" viewBox="0 0 232 232" fill="none" xmlns="http://www.w3.org/2000/svg">
<path d="M123.671 24.3151C143.923 25.9274 163.064 34.2305 178.078 47.9166C193.093 61.6028 203.129 79.8944 206.605 99.9111L198.12 94.6081C197.22 94.0458 196.134 93.8639 195.101 94.1025C194.067 94.341 193.17 94.9804 192.608 95.8801C192.046 96.7797 191.864 97.8658 192.102 98.8995C192.341 99.9332 192.98 100.83 193.88 101.392L208.662 110.631C209.036 111.06 209.498 111.405 210.016 111.641C210.534 111.877 211.097 111.999 211.667 112C211.736 112 211.805 111.996 211.874 111.992C211.916 111.992 211.957 112 211.998 112C212.575 112.001 213.146 111.876 213.671 111.635C214.195 111.394 214.661 111.042 215.037 110.604L227.037 96.6036C227.728 95.7981 228.07 94.7513 227.988 93.6935C227.907 92.6357 227.409 91.6535 226.604 90.9631C225.798 90.2726 224.751 89.9303 223.693 90.0116C222.636 90.0929 221.653 90.5911 220.963 91.3966L214.537 98.8966C210.746 77.0984 199.836 57.172 183.513 42.2352C167.191 27.2984 146.377 18.194 124.329 16.3466C123.806 16.3034 123.279 16.3637 122.778 16.5241C122.278 16.6845 121.815 16.9419 121.414 17.2815C121.013 17.6212 120.683 18.0364 120.443 18.5035C120.203 18.9707 120.057 19.4805 120.014 20.0041C119.97 20.5276 120.031 21.0545 120.191 21.5547C120.352 22.0549 120.609 22.5186 120.949 22.9193C121.288 23.32 121.703 23.6499 122.171 23.8902C122.638 24.1305 123.148 24.2764 123.671 24.3196V24.3151Z" fill="black"/>
<path d="M108.329 207.685C88.077 206.073 68.9365 197.77 53.9219 184.084C38.9072 170.397 28.8715 152.106 25.3952 132.089L33.8802 137.392C34.3256 137.671 34.8216 137.858 35.3396 137.945C35.8577 138.032 36.3878 138.016 36.8996 137.898C37.4115 137.78 37.895 137.562 38.3227 137.257C38.7504 136.952 39.1138 136.566 39.3922 136.12C39.6706 135.675 39.8585 135.179 39.9453 134.661C40.032 134.143 40.0159 133.613 39.8978 133.101C39.7797 132.589 39.5619 132.105 39.2569 131.678C38.9519 131.25 38.5656 130.887 38.1202 130.608L23.3312 121.365C22.9409 120.92 22.4567 120.568 21.9135 120.333C21.3702 120.098 20.7816 119.987 20.1902 120.008C19.582 119.978 18.9751 120.088 18.4159 120.328C17.8566 120.569 17.3597 120.935 16.9632 121.397L4.96321 135.397C4.27271 136.202 3.93047 137.249 4.01177 138.307C4.09307 139.364 4.59124 140.347 5.39671 141.037C6.20217 141.728 7.24894 142.07 8.30674 141.989C9.36454 141.907 10.3467 141.409 11.0372 140.604L17.4632 133.104C21.2542 154.902 32.1645 174.828 48.487 189.765C64.8095 204.702 85.6231 213.806 107.671 215.654C107.783 215.663 107.894 215.667 108.005 215.667C109.037 215.666 110.029 215.266 110.773 214.551C111.517 213.836 111.956 212.861 111.998 211.83C112.039 210.798 111.681 209.791 110.997 209.018C110.314 208.244 109.358 207.765 108.329 207.681V207.685Z" fill="black"/>
<path d="M174 116C162.529 116 151.315 119.402 141.777 125.775C132.239 132.148 124.805 141.206 120.415 151.804C116.025 162.402 114.877 174.064 117.114 185.315C119.352 196.566 124.876 206.901 132.988 215.012C141.099 223.124 151.434 228.648 162.685 230.886C173.936 233.123 185.598 231.975 196.196 227.585C206.794 223.195 215.852 215.761 222.225 206.223C228.598 196.685 232 185.471 232 174C231.983 158.623 225.866 143.88 214.993 133.007C204.12 122.134 189.377 116.017 174 116ZM169 170H179C184.039 170 188.872 172.002 192.435 175.565C195.998 179.128 198 183.961 198 189C198 194.039 195.998 198.872 192.435 202.435C188.872 205.998 184.039 208 179 208H178V212C178 213.061 177.579 214.078 176.828 214.828C176.078 215.579 175.061 216 174 216C172.939 216 171.922 215.579 171.172 214.828C170.421 214.078 170 213.061 170 212V208H166C161.758 207.995 157.691 206.308 154.692 203.308C151.692 200.309 150.005 196.242 150 192C150 190.939 150.421 189.922 151.172 189.172C151.922 188.421 152.939 188 154 188C155.061 188 156.078 188.421 156.828 189.172C157.579 189.922 158 190.939 158 192C158.003 194.121 158.846 196.154 160.346 197.654C161.846 199.154 163.879 199.997 166 200H179C181.917 200 184.715 198.841 186.778 196.778C188.841 194.715 190 191.917 190 189C190 186.083 188.841 183.285 186.778 181.222C184.715 179.159 181.917 178 179 178H169C163.961 178 159.128 175.998 155.565 172.435C152.002 168.872 150 164.039 150 159C150 153.961 152.002 149.128 155.565 145.565C159.128 142.002 163.961 140 169 140H170V136C170 134.939 170.421 133.922 171.172 133.172C171.922 132.421 172.939 132 174 132C175.061 132 176.078 132.421 176.828 133.172C177.579 133.922 178 134.939 178 136V140H182C186.242 140.005 190.309 141.692 193.308 144.692C196.308 147.691 197.995 151.758 198 156C198 157.061 197.579 158.078 196.828 158.828C196.078 159.579 195.061 160 194 160C192.939 160 191.922 159.579 191.172 158.828C190.421 158.078 190 157.061 190 156C189.998 153.879 189.154 151.846 187.654 150.346C186.154 148.846 184.121 148.003 182 148H169C166.083 148 163.285 149.159 161.222 151.222C159.159 153.285 158 156.083 158 159C158 161.917 159.159 164.715 161.222 166.778C163.285 168.841 166.083 170 169 170Z" fill="#DAA10E"/>
<path d="M78 72C77.997 69.3488 76.9424 66.807 75.0677 64.9323C73.193 63.0576 70.6512 62.003 68 62H42V82H68C70.6512 81.997 73.193 80.9424 75.0677 79.0677C76.9424 77.193 77.997 74.6512 78 72Z" fill="#DAA10E"/>
<path d="M78 44C77.997 41.3488 76.9424 38.807 75.0677 36.9323C73.193 35.0576 70.6512 34.003 68 34H42V54H68C70.6512 53.997 73.193 52.9424 75.0677 51.0677C76.9424 49.193 77.997 46.6512 78 44Z" fill="#DAA10E"/>
<path d="M58 116C69.4713 116 80.685 112.598 90.2231 106.225C99.7611 99.8521 107.195 90.7938 111.585 80.1957C115.975 69.5975 117.123 57.9357 114.886 46.6848C112.648 35.4339 107.124 25.0993 99.0122 16.9878C90.9007 8.87639 80.5661 3.35242 69.3152 1.11448C58.0643 -1.12346 46.4025 0.0251312 35.8044 4.41501C25.2062 8.8049 16.1479 16.2389 9.77476 25.777C3.40164 35.315 0 46.5287 0 58C0.0174684 73.3772 6.13378 88.1196 17.0071 98.9929C27.8804 109.866 42.6228 115.983 58 116ZM34 30C34 28.9392 34.4214 27.9217 35.1716 27.1716C35.9217 26.4215 36.9391 26 38 26H46V22C46 20.9392 46.4214 19.9217 47.1716 19.1716C47.9217 18.4215 48.9391 18 50 18C51.0609 18 52.0783 18.4215 52.8284 19.1716C53.5786 19.9217 54 20.9392 54 22V26H62V22C62 20.9392 62.4214 19.9217 63.1716 19.1716C63.9217 18.4215 64.9391 18 66 18C67.0609 18 68.0783 18.4215 68.8284 19.1716C69.5786 19.9217 70 20.9392 70 22V26.114C73.5306 26.5066 76.8659 27.9358 79.5854 30.2214C82.3049 32.507 84.2867 35.5466 85.281 38.957C86.2754 42.3674 86.2376 45.9958 85.1726 49.3848C84.1076 52.7738 82.0629 55.7715 79.2965 58C82.0629 60.2285 84.1076 63.2263 85.1726 66.6152C86.2376 70.0042 86.2754 73.6327 85.281 77.0431C84.2867 80.4534 82.3049 83.4931 79.5854 85.7786C76.8659 88.0642 73.5306 89.4934 70 89.886V94C70 95.0609 69.5786 96.0783 68.8284 96.8284C68.0783 97.5786 67.0609 98 66 98C64.9391 98 63.9217 97.5786 63.1716 96.8284C62.4214 96.0783 62 95.0609 62 94V90H54V94C54 95.0609 53.5786 96.0783 52.8284 96.8284C52.0783 97.5786 51.0609 98 50 98C48.9391 98 47.9217 97.5786 47.1716 96.8284C46.4214 96.0783 46 95.0609 46 94V90H38C36.9391 90 35.9217 89.5786 35.1716 88.8284C34.4214 88.0783 34 87.0609 34 86V30Z" fill="#DAA10E"/>
</svg>
