<svg width="100" height="100" viewBox="0 0 100 100" fill="none" xmlns="http://www.w3.org/2000/svg">
<circle cx="50" cy="50" r="49.5" stroke="black"/>
<circle cx="50" cy="50" r="49.5" stroke="url(#paint0_linear)"/>
<path d="M51.7174 29.4501C56.2566 29.8115 60.5467 31.6725 63.9121 34.7401C67.2774 37.8077 69.5268 41.9075 70.306 46.394L68.4042 45.2054C68.2025 45.0794 67.9591 45.0386 67.7274 45.0921C67.4957 45.1456 67.2948 45.2889 67.1687 45.4905C67.0427 45.6922 67.002 45.9356 67.0554 46.1673C67.1089 46.399 67.2522 46.5999 67.4538 46.726L70.7669 48.7967C70.8508 48.8929 70.9543 48.9701 71.0705 49.0231C71.1867 49.076 71.3129 49.1035 71.4406 49.1036C71.4559 49.1036 71.4715 49.1026 71.487 49.1018C71.4963 49.1018 71.5056 49.1036 71.5148 49.1036C71.6442 49.1037 71.7721 49.0758 71.8897 49.0218C72.0072 48.9678 72.1117 48.8889 72.1959 48.7906L74.8856 45.6527C75.0403 45.4722 75.1171 45.2375 75.0988 45.0004C75.0806 44.7633 74.9689 44.5432 74.7884 44.3884C74.6079 44.2337 74.3733 44.157 74.1362 44.1752C73.8991 44.1934 73.6789 44.3051 73.5242 44.4856L72.0839 46.1666C71.2341 41.2808 68.7887 36.8146 65.1303 33.4667C61.4718 30.1188 56.8066 28.0781 51.8648 27.664C51.7475 27.6544 51.6294 27.6679 51.5173 27.7038C51.4052 27.7398 51.3012 27.7975 51.2114 27.8736C51.1216 27.9497 51.0477 28.0428 50.9938 28.1475C50.94 28.2522 50.9073 28.3665 50.8976 28.4838C50.8879 28.6012 50.9014 28.7193 50.9374 28.8314C50.9733 28.9435 51.031 29.0474 51.1071 29.1372C51.1833 29.2271 51.2763 29.301 51.381 29.3549C51.4857 29.4087 51.6 29.4414 51.7174 29.4511V29.4501Z" fill="#4D4D4D"/>
<path d="M48.2787 70.55C43.7394 70.1886 39.4493 68.3275 36.0839 65.2599C32.7186 62.1924 30.4692 58.0925 29.69 53.606L31.5918 54.7946C31.6917 54.857 31.8028 54.8991 31.9189 54.9186C32.0351 54.938 32.1539 54.9344 32.2686 54.9079C32.3833 54.8815 32.4917 54.8327 32.5876 54.7643C32.6834 54.6959 32.7649 54.6094 32.8273 54.5095C32.8897 54.4097 32.9318 54.2985 32.9512 54.1824C32.9707 54.0663 32.9671 53.9475 32.9406 53.8327C32.9141 53.718 32.8653 53.6096 32.7969 53.5138C32.7286 53.4179 32.642 53.3365 32.5422 53.2741L29.2274 51.2024C29.1399 51.1027 29.0314 51.0236 28.9096 50.971C28.7879 50.9184 28.6559 50.8935 28.5234 50.8981C28.3871 50.8915 28.251 50.916 28.1257 50.97C28.0003 51.024 27.889 51.1059 27.8001 51.2094L25.1104 54.3474C24.9557 54.5279 24.8789 54.7625 24.8972 54.9996C24.9154 55.2367 25.0271 55.4568 25.2076 55.6116C25.3881 55.7664 25.6227 55.8431 25.8598 55.8249C26.0969 55.8066 26.3171 55.695 26.4718 55.5144L27.9121 53.8334C28.7619 58.7192 31.2073 63.1855 34.8658 66.5334C38.5242 69.8813 43.1894 71.9219 48.1312 72.336C48.1563 72.338 48.1812 72.339 48.2059 72.339C48.4373 72.3388 48.6595 72.2492 48.8263 72.0889C48.9931 71.9286 49.0915 71.71 49.1009 71.4789C49.1103 71.2477 49.03 71.0219 48.8767 70.8486C48.7235 70.6753 48.5092 70.5679 48.2787 70.5489V70.55Z" fill="#4D4D4D"/>
<path d="M63 50.0001C60.4288 50.0001 57.9154 50.7625 55.7776 52.191C53.6398 53.6194 51.9735 55.6497 50.9896 58.0252C50.0056 60.4006 49.7482 63.0145 50.2498 65.5362C50.7514 68.058 51.9895 70.3744 53.8076 72.1925C55.6257 74.0105 57.9421 75.2487 60.4638 75.7503C62.9856 76.2519 65.5995 75.9944 67.9749 75.0105C70.3503 74.0266 72.3807 72.3603 73.8091 70.2225C75.2376 68.0846 76 65.5712 76 63.0001C75.9961 59.5534 74.6252 56.2491 72.1881 53.812C69.7509 51.3749 66.4466 50.004 63 50.0001ZM61.8793 62.1035H64.1207C65.2502 62.1035 66.3333 62.5522 67.132 63.3508C67.9306 64.1495 68.3793 65.2327 68.3793 66.3621C68.3793 67.4916 67.9306 68.5748 67.132 69.3734C66.3333 70.1721 65.2502 70.6208 64.1207 70.6208H63.8966V71.5173C63.8966 71.7551 63.8021 71.9831 63.634 72.1513C63.4658 72.3194 63.2378 72.4139 63 72.4139C62.7622 72.4139 62.5342 72.3194 62.366 72.1513C62.1979 71.9831 62.1035 71.7551 62.1035 71.5173V70.6208H61.2069C60.2561 70.6197 59.3446 70.2415 58.6723 69.5692C57.9999 68.8969 57.6218 67.9853 57.6207 67.0345C57.6207 66.7968 57.7152 66.5687 57.8833 66.4006C58.0514 66.2325 58.2795 66.138 58.5172 66.138C58.755 66.138 58.9831 66.2325 59.1512 66.4006C59.3193 66.5687 59.4138 66.7968 59.4138 67.0345C59.4144 67.5099 59.6035 67.9657 59.9396 68.3018C60.2758 68.638 60.7315 68.8271 61.2069 68.8277H64.1207C64.7746 68.8277 65.4017 68.5679 65.8641 68.1055C66.3265 67.6431 66.5862 67.016 66.5862 66.3621C66.5862 65.7082 66.3265 65.0811 65.8641 64.6187C65.4017 64.1564 64.7746 63.8966 64.1207 63.8966H61.8793C60.7499 63.8966 59.6667 63.4479 58.868 62.6493C58.0694 61.8506 57.6207 60.7675 57.6207 59.638C57.6207 58.5085 58.0694 57.4253 58.868 56.6267C59.6667 55.828 60.7499 55.3794 61.8793 55.3794H62.1035V54.4828C62.1035 54.245 62.1979 54.017 62.366 53.8489C62.5342 53.6807 62.7622 53.5863 63 53.5863C63.2378 53.5863 63.4658 53.6807 63.634 53.8489C63.8021 54.017 63.8966 54.245 63.8966 54.4828V55.3794H64.7931C65.7439 55.3804 66.6554 55.7586 67.3278 56.4309C68.0001 57.1032 68.3782 58.0148 68.3793 58.9656C68.3793 59.2034 68.2849 59.4314 68.1167 59.5995C67.9486 59.7677 67.7205 59.8621 67.4828 59.8621C67.245 59.8621 67.0169 59.7677 66.8488 59.5995C66.6807 59.4314 66.5862 59.2034 66.5862 58.9656C66.5856 58.4902 66.3966 58.0344 66.0604 57.6983C65.7243 57.3621 65.2685 57.173 64.7931 57.1725H61.8793C61.2254 57.1725 60.5983 57.4322 60.1359 57.8946C59.6736 58.357 59.4138 58.9841 59.4138 59.638C59.4138 60.2919 59.6736 60.919 60.1359 61.3814C60.5983 61.8438 61.2254 62.1035 61.8793 62.1035Z" fill="#DAA10E"/>
<path d="M41.485 40.138C41.4843 39.5437 41.2479 38.974 40.8277 38.5538C40.4075 38.1337 39.8378 37.8973 39.2436 37.8966H33.416V42.3794H39.2436C39.8378 42.3787 40.4075 42.1423 40.8277 41.7221C41.2479 41.3019 41.4843 40.7322 41.485 40.138Z" fill="#DAA10E"/>
<path d="M41.485 33.8622C41.4843 33.2679 41.2479 32.6982 40.8277 32.278C40.4075 31.8578 39.8378 31.6215 39.2436 31.6208H33.416V36.1035H39.2436C39.8378 36.1029 40.4075 35.8665 40.8277 35.4463C41.2479 35.0261 41.4843 34.4564 41.485 33.8622Z" fill="#DAA10E"/>
<path d="M37 50C39.5712 50 42.0846 49.2376 44.2224 47.8091C46.3602 46.3806 48.0265 44.3503 49.0104 41.9749C49.9944 39.5994 50.2518 36.9856 49.7502 34.4638C49.2486 31.9421 48.0105 29.6257 46.1924 27.8076C44.3743 25.9895 42.0579 24.7514 39.5362 24.2498C37.0144 23.7482 34.4006 24.0056 32.0251 24.9896C29.6497 25.9735 27.6194 27.6398 26.1909 29.7776C24.7624 31.9154 24 34.4288 24 37C24.0039 40.4466 25.3748 43.7509 27.8119 46.1881C30.2491 48.6252 33.5534 49.9961 37 50ZM31.6207 30.7241C31.6207 30.4864 31.7151 30.2583 31.8833 30.0902C32.0514 29.922 32.2795 29.8276 32.5172 29.8276H34.3103V28.931C34.3103 28.6933 34.4048 28.4652 34.5729 28.2971C34.7411 28.1289 34.9691 28.0345 35.2069 28.0345C35.4447 28.0345 35.6727 28.1289 35.8409 28.2971C36.009 28.4652 36.1034 28.6933 36.1034 28.931V29.8276H37.8965V28.931C37.8965 28.6933 37.991 28.4652 38.1591 28.2971C38.3273 28.1289 38.5553 28.0345 38.7931 28.0345C39.0309 28.0345 39.2589 28.1289 39.4271 28.2971C39.5952 28.4652 39.6897 28.6933 39.6897 28.931V29.8531C40.481 29.9411 41.2286 30.2615 41.8381 30.7738C42.4476 31.286 42.8919 31.9673 43.1147 32.7317C43.3376 33.4961 43.3291 34.3094 43.0904 35.069C42.8517 35.8286 42.3934 36.5005 41.7733 37C42.3934 37.4995 42.8517 38.1714 43.0904 38.931C43.3291 39.6906 43.3376 40.5039 43.1147 41.2683C42.8919 42.0327 42.4476 42.714 41.8381 43.2262C41.2286 43.7385 40.481 44.0589 39.6897 44.1469V45.069C39.6897 45.3067 39.5952 45.5348 39.4271 45.7029C39.2589 45.8711 39.0309 45.9655 38.7931 45.9655C38.5553 45.9655 38.3273 45.8711 38.1591 45.7029C37.991 45.5348 37.8965 45.3067 37.8965 45.069V44.1724H36.1034V45.069C36.1034 45.3067 36.009 45.5348 35.8409 45.7029C35.6727 45.8711 35.4447 45.9655 35.2069 45.9655C34.9691 45.9655 34.7411 45.8711 34.5729 45.7029C34.4048 45.5348 34.3103 45.3067 34.3103 45.069V44.1724H32.5172C32.2795 44.1724 32.0514 44.078 31.8833 43.9098C31.7151 43.7417 31.6207 43.5136 31.6207 43.2759V30.7241Z" fill="#DAA10E"/>
<defs>
<linearGradient id="paint0_linear" x1="100" y1="50" x2="3.48559e-07" y2="50" gradientUnits="userSpaceOnUse">
<stop stop-color="#DAA10E" stop-opacity="0.5"/>
<stop offset="0.369792" stop-color="#DAA10E" stop-opacity="0.21875"/>
<stop offset="0.6875" stop-color="#DAA10E" stop-opacity="0"/>
</linearGradient>
</defs>
</svg>
