<svg width="575" height="408" viewBox="0 0 575 408" fill="none" xmlns="http://www.w3.org/2000/svg">
<g filter="url(#filter0_f)">
<path d="M325.6 301.63C341.485 310.797 352.174 327.957 352.174 347.612C352.174 376.913 328.421 400.665 299.121 400.665C289.476 400.665 280.434 398.092 272.642 393.595C256.757 384.428 246.068 367.268 246.068 347.612C246.068 318.312 269.821 294.56 299.121 294.56C308.766 294.56 317.808 297.133 325.6 301.63Z" fill="#BF9708" stroke="#967708"/>
<path d="M245.074 346.75L242.501 345.264C242.656 316.141 266.276 292.572 295.419 292.5L297.306 293.59C268.579 294.537 245.525 317.9 245.074 346.75Z" fill="#BF9708" stroke="#967708" stroke-linejoin="round"/>
<path d="M245.068 347.902C245.144 362.317 250.862 375.397 260.127 385.045C249.506 375.512 242.754 361.758 242.507 346.423L245.068 347.902Z" fill="#BF9708" stroke="#967708" stroke-linejoin="round"/>
<path d="M297.479 292.534C302.555 292.715 307.449 293.609 312.064 295.119C307.959 294.11 303.669 293.571 299.256 293.56L297.479 292.534Z" fill="#BF9708" stroke="#967708" stroke-linejoin="round"/>
<path d="M297.195 400.631C292.119 400.45 287.225 399.556 282.61 398.046C286.716 399.055 291.005 399.594 295.419 399.605L297.195 400.631Z" fill="#BF9708" stroke="#967708" stroke-linejoin="round"/>
<path d="M349.605 345.264C349.53 330.848 343.811 317.768 334.546 308.12C345.167 317.653 351.92 331.407 352.166 346.742L349.605 345.264Z" fill="#BF9708" stroke="#967708" stroke-linejoin="round"/>
<path d="M299.255 400.665L297.368 399.575C326.095 398.628 349.149 375.265 349.6 346.415L352.173 347.901C352.018 377.024 328.398 400.593 299.255 400.665Z" fill="#BF9708" stroke="#967708" stroke-linejoin="round"/>
<circle cx="295.553" cy="345.553" r="53.5527" fill="#F0B90B"/>
<g clip-path="url(#clip0)">
<g filter="url(#filter1_i)">
<path fill-rule="evenodd" clip-rule="evenodd" d="M320.006 326.852L319.54 330.554L323.014 331.72L324.44 335.629L322.412 338.009L324.017 343.159L321.549 348.519L319.365 348.503L319.752 352.743L315.182 345.603L311.874 344.08L312.382 346.47L310.644 351.767L311.877 353.71L312.563 355.442L313.952 356.218L342.375 349.064L300.466 362.938L257.174 373.262L275.3 367.518L272.071 364.402L272.823 355.385L274.352 354.031L271.992 351.387L271.494 348.229L267.743 350.336L264.298 349.057L263.983 343.822L267.291 342.306L265.696 348.122L268.466 348.178L271.766 344.975L275.039 341.297L280.373 338.524L279.649 335.972L282.853 335.063L283.761 338.267L281.557 338.892L284.112 347.917L284.872 350.597L282.193 351.356L281.433 348.677L277.936 349.669L276.943 346.167L280.441 345.176L281.433 348.674L284.111 347.914L287.452 346.967L288.435 350.434L286.955 350.854L285.787 356.405L283.597 358.621L289.235 363.105L299.457 359.866L303.766 358.782L299.782 355.143L300.241 350.577L304.678 353.585L302.901 355.136L305.044 357.625L306.218 357.39L306.642 358.056L311.314 356.88L310.692 356.164L300.496 349.086L300.419 348.812L300.496 349.086L297.954 349.807L297.233 347.264L299.772 346.544L298.466 341.963L302.247 340.89L303.328 344.702L307.139 343.622L306.06 339.816L302.249 340.897L301.167 337.082L297.382 338.155L294.754 328.927L303.921 324.281L313.525 330.722L315.432 329.889L314.085 333.563L317.823 337.379L320.744 335.818L317.129 332.869L316.857 329.849L320.006 326.852ZM277.675 366.769L285.03 364.438L285.219 363.236L278.623 358.299L281.845 355.599L283.225 352.703L280.84 355.303L275.927 358.541L274.657 363.521L277.675 366.769ZM297.489 338.518L292.842 339.836L294.16 344.483L298.807 343.165L297.489 338.518ZM293.435 345.223L289.738 346.271L290.786 349.97L294.484 348.921L293.435 345.223ZM289.016 339.26L283.782 340.745L285.266 345.98L290.501 344.496L289.016 339.26ZM292.124 329.947L285.944 331.7L287.697 337.88L293.877 336.128L292.124 329.947ZM301.969 329.592L298.856 330.474L299.739 333.588L302.852 332.705L301.969 329.592Z" fill="#BF9708"/>
</g>
</g>
</g>
<path d="M196.734 22.0388C234.251 43.6903 259.5 84.2211 259.5 130.648C259.5 199.855 203.397 255.958 134.19 255.958C111.411 255.958 90.0524 249.88 71.6466 239.258C34.1292 217.606 8.88086 177.076 8.88086 130.648C8.88086 61.4418 64.9838 5.33884 134.19 5.33884C156.97 5.33884 178.328 11.4166 196.734 22.0388Z" fill="#BF9708" stroke="#967708"/>
<path d="M7.88399 129.784L0.500325 125.521C0.655877 56.4917 56.6268 0.572253 125.676 0.50007L132.347 4.352C63.7257 5.33357 8.3447 61.0374 7.88399 129.784Z" fill="#BF9708" stroke="#967708" stroke-linejoin="round"/>
<path d="M7.88141 130.937C7.97152 171.19 26.8913 207.021 56.2982 230.088C22.8797 207.767 0.795442 169.81 0.502941 126.677L7.88141 130.937Z" fill="#BF9708" stroke="#967708" stroke-linejoin="round"/>
<path d="M127.7 0.513981C146.892 0.797753 165.038 5.39589 181.212 13.3816C166.717 7.56409 150.894 4.35613 134.325 4.33891L127.7 0.513981Z" fill="#BF9708" stroke="#967708" stroke-linejoin="round"/>
<path d="M132.301 255.944C113.109 255.66 94.9628 251.062 78.7886 243.076C93.2834 248.894 109.107 252.102 125.676 252.119L132.301 255.944Z" fill="#BF9708" stroke="#967708" stroke-linejoin="round"/>
<path d="M252.118 125.521C252.028 85.2673 233.108 49.437 203.701 26.3699C237.12 48.6908 259.204 86.6479 259.497 129.781L252.118 125.521Z" fill="#BF9708" stroke="#967708" stroke-linejoin="round"/>
<path d="M134.325 255.958L127.653 252.106C196.274 251.124 251.655 195.42 252.116 126.674L259.5 130.937C259.344 199.966 203.373 255.885 134.325 255.958Z" fill="#BF9708" stroke="#967708" stroke-linejoin="round"/>
<circle cx="125.809" cy="125.809" r="125.809" fill="#F0B90B"/>
<g clip-path="url(#clip1)">
<g filter="url(#filter2_i)">
<path fill-rule="evenodd" clip-rule="evenodd" d="M193.047 99.3484L189.621 107.417L196.726 112.279L197.443 122.028L191.334 126.107L191.66 138.777L182.647 149.309L177.72 147.873L175.877 157.704L170.126 138.638L163.626 133.074L163.242 138.801L155.917 149.66L157.459 154.84L157.9 159.197L160.542 161.84L229.369 163.888L125.754 168.383L21.291 163.969L65.9408 162.607L60.639 153.494L68.1187 133.596L72.4417 131.516L68.8038 124.027L69.7011 116.57L59.8722 118.928L52.9064 113.829L55.5492 101.796L63.9995 100.491L56.6667 112.614L62.8902 114.514L72.401 109.391L82.1564 103.175L95.9902 100.327V94.0945H103.812V101.918H98.429L98.4209 123.953V130.496H91.8792V123.953H83.3391V115.404H91.8792V123.945H98.4209H106.578V132.413H102.964L96.765 144.21L90.3947 147.816L100.264 161.563L125.444 160.796L135.876 161.106L129.204 150.329L133.168 140.302L141.268 149.945L136.26 152.311L139.506 159.311L142.312 159.531L142.842 161.31L154.156 161.644L153.209 159.629L134.702 137.096V136.427V137.096H128.495V130.888H134.694L134.677 119.695H143.911V129.003H153.218V119.711H143.911V110.395H134.669L134.645 87.8535L158.34 83.2278L175.918 103.941L180.763 103.281L175.363 110.721L181.366 121.743L188.968 120.086L182.688 111.104L184.009 104.105L193.047 99.3484ZM71.7892 162.436L89.9053 161.881L91.1043 159.287L79.3586 143.9L88.3718 139.862L93.3474 134.2L86.2918 138.548L73.1106 142.717L67.0502 153.16L71.7892 162.436ZM134.677 111.284H123.331V122.632H134.677V111.284ZM121.219 123.839H112.189V132.87H121.219V123.839ZM115.052 107.531H102.271V120.315H115.052V107.531ZM128.046 88.4735H112.956V103.566H128.046V88.4735ZM150.526 93.9803H142.924V101.584H150.526V93.9803Z" fill="#BF9708"/>
</g>
</g>
<g filter="url(#filter3_f)">
<path d="M521.337 96.4464C551.321 113.75 571.499 146.143 571.499 183.247C571.499 238.557 526.662 283.394 471.352 283.394C453.147 283.394 436.077 278.537 421.367 270.047C391.383 252.743 371.205 220.351 371.205 183.247C371.205 127.937 416.042 83.0999 471.352 83.0999C489.558 83.0999 506.627 87.9573 521.337 96.4464Z" fill="#BF9708" stroke="#967708"/>
<path d="M370.208 182.383L364.5 179.087C364.656 123.955 409.361 79.3011 464.513 79.229L469.514 82.1163C414.787 83.0913 370.667 127.531 370.208 182.383Z" fill="#BF9708" stroke="#967708" stroke-linejoin="round"/>
<path d="M370.205 183.536C370.293 214.804 384.568 242.734 406.931 261.229C381.481 243.251 364.788 213.705 364.504 180.244L370.205 183.536Z" fill="#BF9708" stroke="#967708" stroke-linejoin="round"/>
<path d="M466.545 79.2465C480.821 79.5116 494.365 82.7636 506.581 88.4035C495.65 84.342 483.827 82.116 471.487 82.1L466.545 79.2465Z" fill="#BF9708" stroke="#967708" stroke-linejoin="round"/>
<path d="M469.457 283.376C455.181 283.111 441.637 279.859 429.421 274.219C440.352 278.281 452.175 280.507 464.515 280.523L469.457 283.376Z" fill="#BF9708" stroke="#967708" stroke-linejoin="round"/>
<path d="M565.795 179.087C565.707 147.819 551.432 119.889 529.069 101.394C554.519 119.372 571.212 148.918 571.496 182.379L565.795 179.087Z" fill="#BF9708" stroke="#967708" stroke-linejoin="round"/>
<path d="M471.487 283.394L466.486 280.507C521.213 279.532 565.333 235.091 565.792 180.24L571.5 183.535C571.344 238.668 526.639 283.322 471.487 283.394Z" fill="#BF9708" stroke="#967708" stroke-linejoin="round"/>
<circle cx="464.647" cy="179.376" r="100.647" fill="#F0B90B"/>
<g clip-path="url(#clip2)">
<g filter="url(#filter4_i)">
<path fill-rule="evenodd" clip-rule="evenodd" d="M522.112 173.351L517.756 178.846L522.203 184.106L520.686 191.777L515.108 193.626L512.668 203.467L503.48 209.676L499.985 207.522L496.475 214.713L496.089 198.786L492.257 193.114L490.745 197.45L482.789 204.269L482.878 208.592L482.292 212.046L483.769 214.646L536.419 230.844L455.548 212.304L375.914 186.712L410.642 195.145L408.488 186.99L418.483 173.232L422.259 172.545L421.044 165.996L423.32 160.436L415.238 160.167L410.948 154.755L415.543 146.035L422.337 146.823L414.107 154.616L418.503 157.404L426.927 155.472L435.771 152.749L447.046 153.492L448.37 148.684L454.403 150.346L452.741 156.38L448.589 155.237L443.903 172.23L442.513 177.277L437.468 175.887L438.857 170.841L432.27 169.027L434.086 162.433L440.673 164.247L438.859 170.835L443.904 172.224L450.196 173.956L448.397 180.488L445.61 179.72L438.323 187.502L432.644 188.931L437.336 201.629L456.92 206.386L464.901 208.841L462.043 199.112L467.231 192.22L471.43 201.378L467.064 202.139L468.081 208.227L470.199 208.993L470.23 210.478L478.885 213.139L478.583 211.383L469.094 190.073L469.236 189.557L469.094 190.073L464.307 188.755L465.625 183.966L470.407 185.283L472.771 176.646L479.893 178.608L477.916 185.787L485.094 187.764L487.068 180.597L479.889 178.62L481.868 171.434L474.74 169.472L479.509 152.081L498.767 153.546L507.925 173.255L511.803 173.775L506.058 178.366L508.347 188.142L514.562 188.48L511.626 180.218L514.132 175.1L522.112 173.351ZM415.189 196.255L429.279 199.675L430.755 197.928L424.964 183.566L432.773 182.366L437.813 179.056L431.448 180.911L420.396 181.327L413.504 188.094L415.189 196.255ZM474.558 170.159L465.807 167.749L463.397 176.502L472.148 178.912L474.558 170.159ZM461.511 176.984L454.546 175.067L452.628 182.032L459.593 183.95L461.511 176.984ZM460.218 163.096L450.36 160.382L447.645 170.242L457.503 172.956L460.218 163.096ZM474.288 151.157L462.649 147.952L459.444 159.593L471.082 162.798L474.288 151.157ZM490.457 160.179L484.593 158.565L482.978 164.429L488.842 166.044L490.457 160.179Z" fill="#BF9708"/>
</g>
</g>
</g>
<defs>
<filter id="filter0_f" x="236" y="286" width="122.674" height="121.165" filterUnits="userSpaceOnUse" color-interpolation-filters="sRGB">
<feFlood flood-opacity="0" result="BackgroundImageFix"/>
<feBlend mode="normal" in="SourceGraphic" in2="BackgroundImageFix" result="shape"/>
<feGaussianBlur stdDeviation="3" result="effect1_foregroundBlur"/>
</filter>
<filter id="filter1_i" x="256.174" y="324.281" width="86.2012" height="49.9809" filterUnits="userSpaceOnUse" color-interpolation-filters="sRGB">
<feFlood flood-opacity="0" result="BackgroundImageFix"/>
<feBlend mode="normal" in="SourceGraphic" in2="BackgroundImageFix" result="shape"/>
<feColorMatrix in="SourceAlpha" type="matrix" values="0 0 0 0 0 0 0 0 0 0 0 0 0 0 0 0 0 0 127 0" result="hardAlpha"/>
<feOffset dx="-1" dy="1"/>
<feGaussianBlur stdDeviation="0.5"/>
<feComposite in2="hardAlpha" operator="arithmetic" k2="-1" k3="1"/>
<feColorMatrix type="matrix" values="0 0 0 0 0 0 0 0 0 0 0 0 0 0 0 0 0 0 0.25 0"/>
<feBlend mode="normal" in2="shape" result="effect1_innerShadow"/>
</filter>
<filter id="filter2_i" x="20.291" y="83.2278" width="209.078" height="86.1552" filterUnits="userSpaceOnUse" color-interpolation-filters="sRGB">
<feFlood flood-opacity="0" result="BackgroundImageFix"/>
<feBlend mode="normal" in="SourceGraphic" in2="BackgroundImageFix" result="shape"/>
<feColorMatrix in="SourceAlpha" type="matrix" values="0 0 0 0 0 0 0 0 0 0 0 0 0 0 0 0 0 0 127 0" result="hardAlpha"/>
<feOffset dx="-1" dy="1"/>
<feGaussianBlur stdDeviation="0.5"/>
<feComposite in2="hardAlpha" operator="arithmetic" k2="-1" k3="1"/>
<feColorMatrix type="matrix" values="0 0 0 0 0 0 0 0 0 0 0 0 0 0 0 0 0 0 0.25 0"/>
<feBlend mode="normal" in2="shape" result="effect1_innerShadow"/>
</filter>
<filter id="filter3_f" x="361" y="75.7289" width="214" height="211.165" filterUnits="userSpaceOnUse" color-interpolation-filters="sRGB">
<feFlood flood-opacity="0" result="BackgroundImageFix"/>
<feBlend mode="normal" in="SourceGraphic" in2="BackgroundImageFix" result="shape"/>
<feGaussianBlur stdDeviation="1.5" result="effect1_foregroundBlur"/>
</filter>
<filter id="filter4_i" x="373.977" y="124.437" width="179.574" height="110.874" filterUnits="userSpaceOnUse" color-interpolation-filters="sRGB">
<feFlood flood-opacity="0" result="BackgroundImageFix"/>
<feBlend mode="normal" in="SourceGraphic" in2="BackgroundImageFix" result="shape"/>
<feColorMatrix in="SourceAlpha" type="matrix" values="0 0 0 0 0 0 0 0 0 0 0 0 0 0 0 0 0 0 127 0" result="hardAlpha"/>
<feOffset dx="-1" dy="1"/>
<feGaussianBlur stdDeviation="0.5"/>
<feComposite in2="hardAlpha" operator="arithmetic" k2="-1" k3="1"/>
<feColorMatrix type="matrix" values="0 0 0 0 0 0 0 0 0 0 0 0 0 0 0 0 0 0 0.25 0"/>
<feBlend mode="normal" in2="shape" result="effect1_innerShadow"/>
</filter>
<clipPath id="clip0">
<rect width="88.5679" height="36.2511" fill="white" transform="translate(247.797 340.197) rotate(-15.8325)"/>
</clipPath>
<clipPath id="clip1">
<rect width="208.069" height="85.1633" fill="white" transform="translate(21.291 83.2278)"/>
</clipPath>
<clipPath id="clip2">
<rect width="166.455" height="68.1303" fill="white" transform="translate(398.501 118.033) rotate(20.7507)"/>
</clipPath>
</defs>
</svg>
