<svg width="292" height="342" viewBox="0 0 292 342" fill="none" xmlns="http://www.w3.org/2000/svg">
<g filter="url(#filter0_dd)">
<path d="M86.8008 264.037L86 264.184L80.3994 260.056C75.8999 256.712 72.2988 252.436 69.7988 247.571C67.3501 242.754 66 237.347 66 231.743C66 225.697 67.5991 219.8 70.5508 214.59L67.2012 211.297C60.0503 204.268 56 194.682 56 184.705C56 172.859 61.6494 161.701 71.3003 154.576L76 151.134L76.8496 151.036C78.1997 161.358 81.3003 171.385 86.0488 180.724L106 219.947L109.799 227.466C113.2 234.2 118.451 239.706 124.75 243.491C131 247.324 138.351 249.438 146 249.438C161.3 249.438 175.351 240.935 182.201 227.466L186 219.947L205.951 180.724C210.7 171.385 213.8 161.358 215.15 151.036L216 151.134L220.7 154.576C230.351 161.701 236 172.859 236 184.705C236 194.682 231.95 204.268 224.799 211.297L221.449 214.59C224.401 219.8 226 225.697 226 231.743C226 237.347 224.65 242.754 222.201 247.571C219.701 252.436 216.1 256.712 211.601 260.056L206 264.184L205.199 264.037C204.301 267.87 202.55 271.41 200.15 274.408C196.449 279.076 191.2 282.568 185.05 284.089C172.45 287.188 160.651 292.691 150.299 300.311L146 303.505L141.701 300.311C131.349 292.691 119.55 287.188 106.95 284.089C100.8 282.568 95.5508 279.076 91.8496 274.408C89.4497 271.41 87.6992 267.87 86.8008 264.037Z" fill="#E6E9ED"/>
<path d="M266 92.1519L267.298 92.7423C265.65 96.0831 263.399 99.1311 260.75 101.737C254.4 107.98 245.699 111.813 236 111.813H211.949C210.799 108.174 209.5 104.586 207.899 101.097C207.298 99.7215 206.649 98.3439 205.951 96.9687L204 93.1359L206 92.1519H266Z" fill="#B27946"/>
<path d="M271 77.406C271 82.9596 269.701 88.122 267.299 92.742L266 92.1516H206L209.101 89.1036C213.5 84.7788 216 78.8796 216 72.7356L226 72.6876L266 72.4908C268.749 72.4908 271 74.7036 271 77.406Z" fill="#B27946"/>
<path d="M87.9996 93.1359L86.0489 96.9687C85.3506 98.3439 84.7012 99.7215 84.1006 101.097C82.4991 104.586 81.2002 108.174 80.0503 111.813H56C46.3003 111.813 37.5991 107.98 31.249 101.737C28.6001 99.1311 26.3491 96.0831 24.7012 92.7423L26 92.1519H86.0001L87.9996 93.1359Z" fill="#B27946"/>
<path d="M86 92.1521H26L24.7012 92.7425C22.2988 88.1224 21 82.9599 21 77.4062C21 74.7038 23.251 72.491 26 72.491L66 72.6878L76 72.7358C76 78.8799 78.5 84.7792 82.8994 89.104L86 92.1521Z" fill="#B27946"/>
<path d="M251 41.771C251 46.7342 249.701 51.503 247.25 55.6814C244.85 59.8598 241.4 63.4478 237.049 65.9534L226 72.491V72.6878L216 72.7358C216 63.6446 210.55 55.3358 202.049 51.6494L193.849 48.0614L204.449 47.915C211.549 47.915 217.999 43.9838 221.148 37.7894C222.45 35.1854 223.099 32.3822 223.099 29.5814C223.099 25.9934 222.049 22.4534 219.999 19.4078L216 13.5086H222.25C238.15 13.5086 251 26.1398 251 41.771Z" fill="#E6E9ED"/>
<path d="M165.25 151.134L171 126.558H182.951C194.25 126.558 204.75 121.004 211 111.812H211.95C214.601 120.512 216 129.654 216 138.846C216 142.926 215.751 147.006 215.15 151.036C213.8 161.358 210.7 171.385 205.951 180.723L186 219.947V200.286C186 194.879 181.5 190.455 176 190.455H156L160.6 170.795L165.25 151.134Z" fill="#CF9E76"/>
<path d="M204 93.1358L205.951 96.9686C206.649 98.3438 207.298 99.7214 207.899 101.097L206 101.982L171 111.813L156.1 38.5265C169.149 39.6089 181.9 42.8032 193.849 48.0616L202.049 51.6496C210.55 55.336 216 63.6447 216 72.7359C216 78.8799 213.5 84.779 209.1 89.1038L206 92.1518L204 93.1358Z" fill="#CF9E76"/>
<path d="M211.95 111.813H211C204.75 121.005 194.25 126.558 182.951 126.558H171V111.813L206 101.982L207.899 101.097C209.501 104.586 210.8 108.174 211.95 111.813Z" fill="#656D78"/>
<path d="M186 219.947L182.201 227.466C175.351 240.935 161.3 249.438 146 249.438C138.351 249.438 131 247.324 124.75 243.491C118.451 239.706 113.2 234.2 109.799 227.466L106 219.947V200.286C106 194.879 110.5 190.456 116 190.456H176C181.5 190.456 186 194.879 186 200.286V219.947Z" fill="#838F9B"/>
<path d="M169.85 131.474L165.25 151.134H126.75L121 126.559V111.813L135.9 38.5268C139.25 38.2316 142.599 38.0852 146 38.0852C149.401 38.0852 152.75 38.2316 156.1 38.5268L171 111.813V126.559L169.85 131.474Z" fill="#F0B90B"/>
<path d="M165.25 151.134L160.599 170.794H131.4L126.749 151.134H165.25Z" fill="#F0B90B"/>
<path d="M160.599 170.795L156 190.456H136L131.4 170.795H160.599Z" fill="#F0B90B"/>
<path d="M131.4 170.795L136 190.455H116C110.499 190.455 106 194.879 106 200.286V219.947L86.0488 180.723C81.3003 171.385 78.1997 161.358 76.8496 151.036C76.249 147.006 76 142.926 76 138.846C76 129.654 77.3989 120.512 80.0503 111.812H81C87.25 121.004 97.7505 126.558 109.049 126.558H121L126.749 151.134L131.4 170.795Z" fill="#CF9E76"/>
<path d="M87.9995 93.1358L86 92.1518L82.8994 89.1038C78.5 84.779 76 78.8799 76 72.7359C76 63.6447 81.4492 55.336 89.9502 51.6496L98.1509 48.0616C110.099 42.8032 122.851 39.6089 135.9 38.5265L121 111.813L86 101.982L84.1006 101.097C84.7012 99.7214 85.3506 98.3438 86.0488 96.9686L87.9995 93.1358Z" fill="#CF9E76"/>
<path d="M121 111.813V126.558H109.05C97.7509 126.558 87.2505 121.005 81.0005 111.813H80.0508C81.2007 108.174 82.4995 104.586 84.1011 101.097L86.0005 101.982L121 111.813Z" fill="#656D78"/>
<path d="M98.1508 48.0614L89.9501 51.6494C81.4492 55.3358 76 63.6446 76 72.7358L66 72.6878V72.491L54.9502 65.9534C50.5996 63.4478 47.1499 59.8598 44.75 55.6814C42.2988 51.503 41 46.7342 41 41.771C41 26.1398 53.8491 13.5086 69.75 13.5086H76L72.0009 19.4078C69.9502 22.4534 68.9004 25.9934 68.9004 29.5814C68.9004 32.3822 69.5498 35.1854 70.851 37.7894C74.0005 43.9838 80.4506 47.915 87.5502 47.915L98.1508 48.0614Z" fill="#E6E9ED"/>
<path d="M276 77.43C276 74.7972 274.955 72.3228 273.056 70.4652C271.166 68.6172 268.666 67.5996 265.995 67.5996C265.98 67.5996 265.966 67.5996 265.951 67.5996L243.251 67.7076C251.205 61.47 256 51.8773 256 41.7565C256 23.4661 240.871 8.59338 222.265 8.59338H206.654L215.829 22.1245C218.539 26.1205 218.866 31.2781 216.681 35.5789C214.354 40.1533 209.674 42.9997 204.396 42.9997L194.794 43.1365C179.306 36.5365 162.899 33.1693 146 33.1693C129.096 33.1693 112.689 36.5365 97.2012 43.1365L87.5356 42.9997C82.3257 42.9997 77.6455 40.1533 75.3188 35.5789C73.1289 31.2781 73.4561 26.1253 76.1709 22.1245L85.3457 8.59338H69.7354C51.1294 8.59338 36 23.4661 36 41.7565C36 51.8773 40.7949 61.4748 48.749 67.7076L26.0439 67.5996C26.0293 67.5996 26.0146 67.5996 26 67.5996C23.334 67.5996 20.834 68.6172 18.9443 70.4652C17.0449 72.3228 16 74.7972 16 77.43C16 99.1019 33.9297 116.727 55.9756 116.727H73.5854C71.8838 123.978 71 131.413 71 138.846C71 142.002 71.1953 145.158 71.5054 148.302L68.3096 150.656C57.4697 158.648 51 171.375 51 184.7C51 196.064 55.4995 206.749 63.6807 214.786L64.5645 215.655C62.3159 220.724 61 226.194 61 231.742C61 244.359 67.1304 256.417 77.3989 263.991L82.7261 267.913C86.1953 278.084 94.7012 286.133 105.761 288.853C117.741 291.797 128.815 296.977 138.69 304.256L146 309.649L153.31 304.256C163.185 296.977 174.264 291.793 186.239 288.853C197.299 286.129 205.805 278.084 209.274 267.913L214.601 263.986C224.87 256.417 231 244.359 231 231.742C231 226.194 229.684 220.724 227.44 215.655L228.324 214.786C236.5 206.749 241 196.064 241 184.7C241 171.38 234.53 158.653 223.69 150.661L220.495 148.307C220.805 145.158 221 142.002 221 138.846C221 131.413 220.116 123.978 218.415 116.727H236.024C258.07 116.727 276 99.1019 276 77.43ZM266 77.43C266 80.8716 265.365 84.1644 264.254 87.2364H216.801C218.625 84.2868 219.904 81.0636 220.514 77.646L266 77.43ZM211 138.846C211 152.559 207.699 166.287 201.464 178.551L190.9 199.318C190.385 191.646 183.935 185.54 176 185.54H162.284L174.975 131.473H182.97C192.826 131.473 202.125 127.801 209.186 121.388C210.36 127.139 211 132.987 211 138.846ZM205.084 107.348C205.431 108.248 205.761 109.158 206.081 110.068C200.685 117.318 192.16 121.643 182.975 121.643H175.924L175.976 115.527L205.084 107.348ZM139.979 185.54L137.67 175.71H154.33L152.021 185.54H139.979ZM156.635 165.879H135.36L133.051 156.049H158.939L156.635 165.879ZM116.029 121.643H109.025C99.8354 121.643 91.3101 117.318 85.9146 110.068C86.2295 109.158 86.5591 108.248 86.9106 107.348L116.066 115.537L116.029 121.643ZM82.814 121.388C89.8745 127.801 99.1738 131.473 109.025 131.473H117.14L129.721 185.54H116C108.065 185.54 101.615 191.646 101.1 199.318L90.5361 178.551C84.3008 166.287 81 152.559 81 138.846C81 132.987 81.6396 127.139 82.814 121.388ZM111 200.286C111 197.578 113.246 195.37 116 195.37H176C178.754 195.37 181 197.578 181 200.286V218.782L177.704 225.255C171.664 237.14 159.516 244.522 146 244.522C132.484 244.522 120.336 237.14 114.296 225.26L111 218.782V200.286ZM225.629 39.9709C229.069 33.2077 228.92 25.2157 225.341 18.6158C236.979 20.1038 246 29.9101 246 41.7565C246 49.8997 241.586 57.5676 234.474 61.7604L224.235 67.8012L220.504 67.8204C219.364 61.5996 216.144 55.9669 211.381 51.8125C217.489 49.9885 222.665 45.8005 225.629 39.9709ZM200.016 56.1373C206.686 59.058 211 65.574 211 72.7524C211 77.5476 209.11 82.0548 205.695 85.4724L200.475 75.2028L191.53 79.602L201.02 98.2667L174.755 105.644L162.331 44.1853C172.46 45.6349 182.331 48.4165 191.815 52.5589L200.016 56.1373ZM151.93 43.1509L166 112.299V125.999L165.871 126.558H151V136.388H163.561L161.249 146.219H130.746L128.434 136.388H141V126.558H126.129L126 125.999V112.299L140.07 43.1509C142.04 43.0477 144.015 42.9997 146 42.9997C147.985 42.9997 149.96 43.0477 151.93 43.1509ZM129.66 44.1853L117.16 105.625L90.9805 98.2715L100.47 79.6092L91.5249 75.21L86.3052 85.4772C82.8896 82.0548 81 77.5476 81 72.7572C81 65.5812 85.3091 59.058 91.9839 56.1421L100.189 52.5589C109.665 48.4165 119.535 45.6349 129.66 44.1853ZM57.5259 61.7556C50.4141 57.5628 46 49.8997 46 41.7565C46 29.9149 55.021 20.1038 66.6592 18.6206C63.0801 25.2205 62.9238 33.2077 66.3711 39.9757C69.3398 45.8101 74.5254 50.0029 80.6143 51.8173C75.856 55.9717 72.6357 61.6044 71.4956 67.8204L67.7651 67.8012L57.5259 61.7556ZM71.4858 77.646C72.0962 81.0636 73.3755 84.2868 75.1992 87.2364H27.7456C26.6348 84.1644 26 80.8716 26 77.43L71.4858 77.646ZM55.9756 106.897C47.1255 106.897 39.1812 103.084 33.6904 97.0667H80.4946C78.9712 100.271 77.6211 103.549 76.4541 106.897H55.9756ZM231 184.7C231 192.968 227.87 200.742 222.216 206.794L214.999 197.336L207.001 203.235L214.799 213.459C218.8 218.698 221 225.19 221 231.742C221 240.358 217.194 248.598 210.751 254.334C210.199 249.171 208.466 244.213 205.509 239.857L200.16 231.968L191.84 237.421L197.189 245.31C199.679 248.986 201 253.261 201 257.679C201 267.929 193.93 276.831 183.815 279.317C170.541 282.581 158.256 288.327 147.311 296.398L146 297.361L144.689 296.398C133.744 288.327 121.459 282.581 108.185 279.317C98.0703 276.824 91 267.929 91 257.679C91 253.261 92.3208 248.986 94.811 245.31L100.16 237.421L91.8398 231.968L86.4907 239.857C83.5342 244.218 81.7959 249.171 81.249 254.338C74.8062 248.593 71 240.354 71 231.742C71 225.19 73.1997 218.698 77.2012 213.459L84.999 203.235L77.001 197.336L69.7842 206.794C64.1299 200.742 61 192.961 61 184.7C61 174.908 65.5801 165.579 73.2559 159.402C75.0259 167.555 77.7993 175.499 81.5908 182.946L105.346 229.654C113.095 244.892 128.676 254.353 146 254.353C163.324 254.353 178.905 244.892 186.649 229.654L210.404 182.946C214.196 175.499 216.969 167.55 218.739 159.402C226.42 165.575 231 174.908 231 184.7ZM211.505 97.0667H258.31C252.819 103.084 244.875 106.897 236.024 106.897H215.546C214.379 103.549 213.024 100.271 211.505 97.0667Z" fill="black"/>
<path d="M161 210.116H171V219.946H161V210.116Z" fill="black"/>
<path d="M121 210.116H131V219.946H121V210.116Z" fill="black"/>
</g>
<defs>
<filter id="filter0_dd" x="0" y="0.593384" width="292" height="341.055" filterUnits="userSpaceOnUse" color-interpolation-filters="sRGB">
<feFlood flood-opacity="0" result="BackgroundImageFix"/>
<feColorMatrix in="SourceAlpha" type="matrix" values="0 0 0 0 0 0 0 0 0 0 0 0 0 0 0 0 0 0 127 0" result="hardAlpha"/>
<feOffset dy="16"/>
<feGaussianBlur stdDeviation="8"/>
<feComposite in2="hardAlpha" operator="out"/>
<feColorMatrix type="matrix" values="0 0 0 0 0 0 0 0 0 0 0 0 0 0 0 0 0 0 0.25 0"/>
<feBlend mode="normal" in2="BackgroundImageFix" result="effect1_dropShadow"/>
<feColorMatrix in="SourceAlpha" type="matrix" values="0 0 0 0 0 0 0 0 0 0 0 0 0 0 0 0 0 0 127 0" result="hardAlpha"/>
<feOffset/>
<feGaussianBlur stdDeviation="4"/>
<feComposite in2="hardAlpha" operator="out"/>
<feColorMatrix type="matrix" values="0 0 0 0 0 0 0 0 0 0 0 0 0 0 0 0 0 0 0.25 0"/>
<feBlend mode="normal" in2="effect1_dropShadow" result="effect2_dropShadow"/>
<feBlend mode="normal" in="SourceGraphic" in2="effect2_dropShadow" result="shape"/>
</filter>
</defs>
</svg>
