<svg width="47" height="52" viewBox="0 0 47 52" fill="none" xmlns="http://www.w3.org/2000/svg">
<path d="M23.5398 43.7883C21.6006 43.5514 19.6844 44.8053 19.1198 46.6822C18.5456 48.5889 19.4001 50.6282 21.1808 51.5328C21.5803 51.7359 22.0272 51.847 22.4524 52C22.8586 52 23.2649 52 23.6711 52C23.797 51.9607 23.9216 51.9133 24.0489 51.8822C25.9881 51.392 27.2881 49.6113 27.1554 47.6261C27.0213 45.6287 25.5141 44.0294 23.5398 43.7883Z" fill="#DAA10E"/>
<path d="M23.0307 8.23061C25.0958 8.23873 26.8942 6.68144 27.1298 4.67864C27.3844 2.51874 26.0776 0.613436 23.999 0.108333C23.8866 0.0812498 23.7796 0.0365624 23.6699 0C23.2637 0 22.8574 0 22.4512 0C22.3415 0.0365624 22.2331 0.0798957 22.1207 0.106979C20.0204 0.613436 18.7259 2.52416 18.994 4.72468C19.231 6.66926 21.0198 8.22248 23.0307 8.23061Z" fill="#DAA10E"/>
<path d="M41.9888 19.1804C44.2285 19.2007 46.1027 17.3536 46.123 15.1057C46.1433 12.8104 44.3287 10.9687 42.0334 10.9538C39.7652 10.9403 37.9181 12.7508 37.8938 15.0109C37.8707 17.2886 39.7083 19.16 41.9888 19.1804Z" fill="#DAA10E"/>
<path d="M4.1181 32.8209C1.87154 32.8074 0.0149868 34.6491 9.10535e-05 36.9064C-0.0148047 39.2085 1.79977 41.0421 4.09779 41.0475C6.38226 41.0529 8.22799 39.2112 8.22799 36.9254C8.22799 34.6883 6.37278 32.8345 4.1181 32.8209Z" fill="#DAA10E"/>
<path d="M4.08694 19.1776C6.35923 19.1844 8.22933 17.3211 8.22391 15.0529C8.21985 12.7873 6.39037 10.9579 4.12756 10.9538C1.84445 10.9484 0.0136164 12.7494 7.47477e-05 15.0122C-0.0134669 17.3075 1.81465 19.1695 4.08694 19.1776Z" fill="#DAA10E"/>
<path d="M42.0369 32.8209C39.7673 32.8101 37.8905 34.6761 37.8945 36.9403C37.8972 39.2058 39.724 41.038 41.9841 41.0447C44.2686 41.0515 46.1048 39.2518 46.1184 36.9931C46.1319 34.6951 44.3092 32.8317 42.0369 32.8209Z" fill="#DAA10E"/>
<path d="M17.414 43.623C15.1309 42.3041 12.8491 40.9797 10.5565 39.6743C10.3209 39.5402 9.96746 39.3832 9.76705 39.4671C9.48267 39.5863 9.19153 39.8856 9.0832 40.1753C8.92611 40.5911 9.22132 40.8998 9.58965 41.1124C11.4069 42.1578 13.2215 43.2087 15.0374 44.2568C15.6373 44.6035 16.2291 44.9664 16.8439 45.286C17.4479 45.5988 18.0857 45.2006 18.1046 44.376C18.0477 44.2812 17.9435 44.0577 17.7932 43.8709C17.7038 43.7585 17.5454 43.6989 17.414 43.623Z" fill="#DAA10E"/>
<path d="M28.6187 8.32404C29.3635 8.75738 30.1096 9.18935 30.8571 9.61998C32.4686 10.5489 34.0773 11.482 35.6928 12.4014C36.3618 12.7833 37.0727 12.4014 37.0714 11.4738C36.9427 11.3411 36.7518 11.0337 36.4755 10.8712C34.1437 9.50081 31.7969 8.15477 29.4515 6.80603C28.8706 6.47155 28.4061 6.56092 28.1366 7.03217C27.8522 7.5305 28.0161 7.97332 28.6187 8.32404Z" fill="#DAA10E"/>
<path d="M35.6107 39.6376C33.2721 40.9959 30.9267 42.3432 28.5853 43.6961C28.4689 43.7638 28.2955 43.8274 28.2644 43.929C28.1723 44.2323 28.022 44.5912 28.1114 44.8552C28.1994 45.1166 28.5515 45.2885 28.779 45.4917C29.0945 45.3522 29.3003 45.2791 29.4872 45.1734C30.3552 44.6819 31.2178 44.1808 32.0818 43.6825C33.5605 42.8294 35.042 41.9803 36.5153 41.1177C37.1585 40.7413 37.2641 40.0994 36.7739 39.6566C36.3948 39.3126 36.0129 39.4034 35.6107 39.6376Z" fill="#DAA10E"/>
<path d="M10.3475 12.4489C10.7375 12.2471 11.1099 12.0128 11.4917 11.7935C13.4986 10.637 15.5028 9.47921 17.511 8.32546C17.8509 8.13047 18.1231 7.89755 18.1068 7.52515C18.0919 6.78307 17.4094 6.38766 16.7933 6.73974C14.3571 8.13182 11.9291 9.53744 9.50382 10.9498C9.03663 11.222 8.92153 11.7014 9.16934 12.1225C9.41986 12.5532 9.87892 12.6913 10.3475 12.4489Z" fill="#DAA10E"/>
<path d="M42.0308 20.9164C41.4621 20.9096 41.1479 21.2753 41.1466 21.9672C41.1439 24.6539 41.1439 27.3406 41.1466 30.0272C41.1479 30.7165 41.4661 31.0916 42.0268 31.0835C42.5901 31.0753 42.8745 30.7192 42.8758 30.0056C42.8785 28.6704 42.8772 27.3351 42.8772 26.0013C42.8772 24.6498 42.8799 23.297 42.8758 21.9456C42.8745 21.2658 42.586 20.9232 42.0308 20.9164Z" fill="#DAA10E"/>
<path d="M3.24343 30.0773C3.24614 30.7382 3.55759 31.0916 4.11009 31.0835C4.63822 31.0767 4.96863 30.7178 4.96999 30.1071C4.9754 27.3704 4.9754 24.6322 4.96999 21.8941C4.96863 21.2793 4.64228 20.9232 4.11416 20.9151C3.55759 20.9069 3.24478 21.2563 3.24207 21.9144C3.23666 23.2835 3.24072 24.6525 3.24072 26.0203C3.24207 27.3731 3.23937 28.7245 3.24343 30.0773Z" fill="#DAA10E"/>
<path d="M22.1967 41.1476C22.2265 41.6933 22.561 42.0291 23.0472 42.0359C23.5333 42.0427 23.8989 41.7082 23.9165 41.172C23.9409 40.4109 23.9409 39.6485 23.9165 38.8888C23.9003 38.3512 23.5441 38.0276 23.0458 38.0289C22.58 38.0303 22.236 38.3512 22.2008 38.8645C22.1751 39.2518 22.1954 39.6417 22.1954 40.0318C22.194 40.0318 22.1927 40.0318 22.1927 40.0318C22.1927 40.4028 22.1764 40.7765 22.1967 41.1476Z" fill="#DAA10E"/>
<path d="M23.9176 10.8239C23.8865 10.2944 23.5249 9.95721 23.0415 9.96669C22.581 9.97617 22.2195 10.3052 22.2032 10.8103C22.1775 11.5876 22.1761 12.3663 22.2046 13.1422C22.2235 13.6676 22.6108 13.9899 23.1051 13.971C23.5669 13.9533 23.8892 13.6256 23.919 13.1056C23.9393 12.7522 23.923 12.3961 23.923 12.0413C23.9217 11.635 23.9406 11.2288 23.9176 10.8239Z" fill="#DAA10E"/>
<path d="M35.9306 19.4282C36.4966 19.4255 37.0776 18.9082 37.0667 18.4153C37.0573 17.9372 36.6605 17.5513 36.1865 17.5581C35.6124 17.5662 35.0707 18.0808 35.0883 18.5994C35.1046 19.0788 35.4621 19.4309 35.9306 19.4282Z" fill="#DAA10E"/>
<path d="M9.04998 33.5548C9.0405 34.0315 9.42643 34.435 9.90039 34.4418C10.4705 34.4499 11.0271 33.9502 11.0284 33.4302C11.0284 32.9495 10.6831 32.5812 10.2173 32.5703C9.66612 32.5554 9.05945 33.0673 9.04998 33.5548Z" fill="#DAA10E"/>
<path d="M9.88111 17.5594C9.41393 17.577 9.0307 17.9968 9.05372 18.4667C9.0781 18.9609 9.68476 19.4525 10.24 19.4268C10.7044 19.4051 11.0403 19.0313 11.0294 18.5493C11.0159 18.0293 10.4444 17.5363 9.88111 17.5594Z" fill="#DAA10E"/>
<path d="M36.2231 34.4419C36.6944 34.4324 37.083 34.0221 37.0695 33.5482C37.056 33.058 36.4506 32.5542 35.8941 32.5691C35.4296 32.5813 35.0802 32.955 35.087 33.4331C35.0938 33.9531 35.6585 34.4541 36.2231 34.4419Z" fill="#DAA10E"/>
<path d="M33.3659 33.3097C33.2887 30.8925 33.3469 28.4713 33.3469 26.0514C33.3456 26.0514 33.3442 26.0514 33.3442 26.0514C33.3442 23.5475 33.3483 21.0423 33.3429 18.5385C33.3388 16.7645 32.3083 15.7205 30.5479 15.7178C25.5564 15.7123 20.565 15.711 15.5735 15.7137C13.8158 15.715 12.7758 16.7645 12.7745 18.5344C12.7718 23.5096 12.7745 28.4835 12.7812 33.4587C12.7812 33.7606 12.7948 34.0734 12.8706 34.3619C13.1916 35.586 14.1747 36.2794 15.5735 36.2807C20.5149 36.2848 25.4549 36.2469 30.3949 36.3065C32.1512 36.3281 33.4241 35.1297 33.3659 33.3097ZM22.0451 22.9327H23.2855V24.1732H22.0451V22.9327ZM23.8299 24.8069V25.7386H22.8982V24.8069H23.8299ZM21.9828 25.8388H22.7249V26.5809H21.9828V25.8388ZM21.1676 25.549V24.4995H22.2171V25.549H21.1676ZM14.5146 29.1348L18.183 29.0224L17.747 28.2736L18.3618 26.6391L18.7165 26.4685L18.4173 25.8537L18.4918 25.2402L17.6833 25.4339L17.1119 25.0154L17.3285 24.0269L18.0232 23.9199L17.4206 24.9152L17.9311 25.071L18.7125 24.6498L19.5142 24.1393L20.6503 23.905V23.3932H21.2935V24.0364H20.8507L20.8494 25.8455H21.5197V26.5416H21.2231L20.7139 27.5112L20.1899 27.8077L21.001 28.9371L23.0702 28.8735L23.9274 28.8992L23.3789 28.0149L23.7053 27.1916L24.3702 27.9838L23.9585 28.1788L24.2253 28.7529L24.4555 28.7705L24.4988 28.9168L25.4291 28.9439L25.3506 28.7787L23.8299 26.9275V26.872V26.9275H23.3194V26.417H23.8285L23.8272 25.4975H24.5855V24.7324H23.8258L23.8231 22.8813L25.769 22.5008L27.2126 24.2029L27.6107 24.1488L27.1665 24.7595L27.6594 25.6641L28.2837 25.5287L27.7678 24.7907L27.8761 24.2165L28.6182 23.8251L28.3365 24.4873L28.9202 24.8868L28.9784 25.6871L28.476 26.0216L28.5031 27.0629L27.7637 27.9269L27.3588 27.8091L27.2072 28.6175L26.7346 27.0521L26.201 26.5958L26.1699 27.067L25.5686 27.958L25.6959 28.3832L25.7325 28.7407L25.9491 28.9574L31.6041 29.1253L23.0919 29.4937L14.5146 29.1348Z" fill="#DAA10E"/>
<path d="M20.3118 25.1455H19.6104V25.847H20.3118V25.1455Z" fill="#DAA10E"/>
<path d="M20.0257 27.1537L20.4333 26.6892L19.8537 27.0467L18.7718 27.3893L18.2734 28.2465L18.6634 29.0089L20.1517 28.9629L20.2505 28.7502L19.285 27.4855L20.0257 27.1537Z" fill="#DAA10E"/>
<path d="M25.1311 23.3851H24.5068V24.0093H25.1311V23.3851Z" fill="#DAA10E"/>
<path d="M25.354 25.4988H24.5889V26.2639H25.354V25.4988Z" fill="#DAA10E"/>
<path d="M20.8501 25.8469H20.3125V26.3845H20.8501V25.8469Z" fill="#DAA10E"/>
</svg>
