<svg width="100" height="100" viewBox="0 0 100 100" fill="none" xmlns="http://www.w3.org/2000/svg">
<circle cx="50" cy="50" r="49.5" stroke="black"/>
<circle cx="50" cy="50" r="49.5" stroke="url(#paint0_linear)"/>
<path d="M50.5398 67.7883C48.6006 67.5514 46.6844 68.8053 46.1198 70.6822C45.5456 72.5889 46.4001 74.6282 48.1808 75.5328C48.5803 75.7359 49.0272 75.847 49.4524 76C49.8586 76 50.2649 76 50.6711 76C50.797 75.9607 50.9216 75.9133 51.0489 75.8822C52.9881 75.392 54.2881 73.6113 54.1554 71.6261C54.0213 69.6287 52.5141 68.0294 50.5398 67.7883Z" fill="#DAA10E"/>
<path d="M50.0307 32.2306C52.0958 32.2387 53.8942 30.6814 54.1298 28.6786C54.3844 26.5187 53.0776 24.6134 50.999 24.1083C50.8866 24.0812 50.7796 24.0366 50.6699 24C50.2637 24 49.8574 24 49.4512 24C49.3415 24.0366 49.2331 24.0799 49.1207 24.107C47.0204 24.6134 45.7259 26.5242 45.994 28.7247C46.231 30.6693 48.0198 32.2225 50.0307 32.2306Z" fill="#DAA10E"/>
<path d="M68.9888 43.1804C71.2285 43.2007 73.1027 41.3536 73.123 39.1057C73.1433 36.8104 71.3287 34.9687 69.0334 34.9538C66.7652 34.9403 64.9181 36.7508 64.8938 39.0109C64.8707 41.2886 66.7083 43.16 68.9888 43.1804Z" fill="#DAA10E"/>
<path d="M31.1181 56.8209C28.8715 56.8074 27.015 58.6491 27.0001 60.9064C26.9852 63.2085 28.7998 65.0421 31.0978 65.0475C33.3823 65.0529 35.228 63.2112 35.228 60.9254C35.228 58.6883 33.3728 56.8345 31.1181 56.8209Z" fill="#DAA10E"/>
<path d="M31.0869 43.1776C33.3592 43.1844 35.2293 41.3211 35.2239 39.0529C35.2198 36.7873 33.3904 34.9579 31.1276 34.9538C28.8444 34.9484 27.0136 36.7494 27.0001 39.0122C26.9865 41.3075 28.8147 43.1695 31.0869 43.1776Z" fill="#DAA10E"/>
<path d="M69.0369 56.8209C66.7673 56.8101 64.8905 58.6761 64.8945 60.9403C64.8972 63.2058 66.724 65.038 68.9841 65.0447C71.2686 65.0515 73.1048 63.2518 73.1184 60.9931C73.1319 58.6951 71.3092 56.8317 69.0369 56.8209Z" fill="#DAA10E"/>
<path d="M44.414 67.623C42.1309 66.3041 39.8491 64.9797 37.5565 63.6743C37.3209 63.5402 36.9675 63.3832 36.767 63.4671C36.4827 63.5863 36.1915 63.8856 36.0832 64.1753C35.9261 64.5911 36.2213 64.8998 36.5897 65.1124C38.4069 66.1578 40.2215 67.2087 42.0374 68.2568C42.6373 68.6035 43.2291 68.9664 43.8439 69.286C44.4479 69.5988 45.0857 69.2006 45.1046 68.376C45.0477 68.2812 44.9435 68.0577 44.7932 67.8709C44.7038 67.7585 44.5454 67.6989 44.414 67.623Z" fill="#4D4D4D"/>
<path d="M55.6187 32.324C56.3635 32.7574 57.1096 33.1894 57.8571 33.62C59.4686 34.5489 61.0773 35.482 62.6928 36.4014C63.3618 36.7833 64.0727 36.4014 64.0714 35.4738C63.9427 35.3411 63.7518 35.0337 63.4755 34.8712C61.1437 33.5008 58.7969 32.1548 56.4515 30.806C55.8706 30.4715 55.4061 30.5609 55.1366 31.0322C54.8522 31.5305 55.0161 31.9733 55.6187 32.324Z" fill="#4D4D4D"/>
<path d="M62.6107 63.6376C60.2721 64.9959 57.9267 66.3432 55.5853 67.6961C55.4689 67.7638 55.2955 67.8274 55.2644 67.929C55.1723 68.2323 55.022 68.5912 55.1114 68.8552C55.1994 69.1166 55.5515 69.2885 55.779 69.4917C56.0945 69.3522 56.3003 69.2791 56.4872 69.1734C57.3552 68.6819 58.2178 68.1808 59.0818 67.6825C60.5605 66.8294 62.042 65.9803 63.5153 65.1177C64.1585 64.7413 64.2641 64.0994 63.7739 63.6566C63.3948 63.3126 63.0129 63.4034 62.6107 63.6376Z" fill="#4D4D4D"/>
<path d="M37.3475 36.4489C37.7375 36.2471 38.1099 36.0128 38.4917 35.7935C40.4986 34.637 42.5028 33.4792 44.511 32.3255C44.8509 32.1305 45.1231 31.8975 45.1068 31.5252C45.0919 30.7831 44.4094 30.3877 43.7933 30.7397C41.3571 32.1318 38.9291 33.5374 36.5038 34.9498C36.0366 35.222 35.9215 35.7014 36.1693 36.1225C36.4199 36.5532 36.8789 36.6913 37.3475 36.4489Z" fill="#4D4D4D"/>
<path d="M69.0308 44.9164C68.4621 44.9096 68.1479 45.2753 68.1466 45.9672C68.1439 48.6539 68.1439 51.3406 68.1466 54.0272C68.1479 54.7165 68.4661 55.0916 69.0268 55.0835C69.5901 55.0753 69.8745 54.7192 69.8758 54.0056C69.8785 52.6704 69.8772 51.3351 69.8772 50.0013C69.8772 48.6498 69.8799 47.297 69.8758 45.9456C69.8745 45.2658 69.586 44.9232 69.0308 44.9164Z" fill="#4D4D4D"/>
<path d="M30.2434 54.0773C30.2461 54.7382 30.5576 55.0916 31.1101 55.0835C31.6382 55.0767 31.9686 54.7178 31.97 54.1071C31.9754 51.3704 31.9754 48.6322 31.97 45.8941C31.9686 45.2793 31.6423 44.9232 31.1142 44.9151C30.5576 44.9069 30.2448 45.2563 30.2421 45.9144C30.2367 47.2835 30.2407 48.6525 30.2407 50.0202C30.2421 51.3731 30.2394 52.7245 30.2434 54.0773Z" fill="#4D4D4D"/>
<path d="M49.1967 65.1476C49.2265 65.6933 49.561 66.0292 50.0472 66.0359C50.5333 66.0427 50.8989 65.7082 50.9165 65.172C50.9409 64.4109 50.9409 63.6485 50.9165 62.8888C50.9003 62.3512 50.5441 62.0276 50.0458 62.0289C49.58 62.0303 49.236 62.3512 49.2008 62.8645C49.1751 63.2518 49.1954 63.6417 49.1954 64.0318C49.194 64.0318 49.1927 64.0318 49.1927 64.0318C49.1927 64.4028 49.1764 64.7765 49.1967 65.1476Z" fill="#DAA10E"/>
<path d="M50.9176 34.8239C50.8865 34.2944 50.5249 33.9572 50.0415 33.9667C49.581 33.9762 49.2195 34.3052 49.2032 34.8103C49.1775 35.5876 49.1761 36.3663 49.2046 37.1422C49.2235 37.6676 49.6108 37.9899 50.1051 37.971C50.5669 37.9533 50.8892 37.6256 50.919 37.1056C50.9393 36.7522 50.923 36.3961 50.923 36.0413C50.9217 35.635 50.9406 35.2288 50.9176 34.8239Z" fill="#DAA10E"/>
<path d="M62.9306 43.4282C63.4966 43.4255 64.0776 42.9082 64.0667 42.4153C64.0573 41.9372 63.6605 41.5513 63.1865 41.5581C62.6124 41.5662 62.0707 42.0808 62.0883 42.5994C62.1046 43.0788 62.4621 43.4309 62.9306 43.4282Z" fill="#DAA10E"/>
<path d="M36.05 57.5548C36.0405 58.0315 36.4264 58.435 36.9004 58.4418C37.4705 58.4499 38.0271 57.9502 38.0284 57.4302C38.0284 56.9495 37.6831 56.5812 37.2173 56.5703C36.6661 56.5554 36.0595 57.0673 36.05 57.5548Z" fill="#DAA10E"/>
<path d="M36.8811 41.5594C36.4139 41.577 36.0307 41.9968 36.0537 42.4667C36.0781 42.9609 36.6848 43.4525 37.24 43.4268C37.7044 43.4051 38.0403 43.0313 38.0294 42.5493C38.0159 42.0293 37.4444 41.5363 36.8811 41.5594Z" fill="#DAA10E"/>
<path d="M63.2231 58.4419C63.6944 58.4324 64.083 58.0221 64.0695 57.5482C64.056 57.058 63.4506 56.5542 62.8941 56.5691C62.4296 56.5813 62.0802 56.955 62.087 57.4331C62.0938 57.9531 62.6585 58.4541 63.2231 58.4419Z" fill="#DAA10E"/>
<path d="M60.3659 57.3097C60.2887 54.8925 60.3469 52.4713 60.3469 50.0514C60.3456 50.0514 60.3442 50.0514 60.3442 50.0514C60.3442 47.5475 60.3483 45.0423 60.3429 42.5385C60.3388 40.7645 59.3083 39.7205 57.5479 39.7178C52.5564 39.7123 47.565 39.711 42.5735 39.7137C40.8158 39.715 39.7758 40.7645 39.7745 42.5344C39.7718 47.5096 39.7745 52.4835 39.7812 57.4587C39.7812 57.7606 39.7948 58.0734 39.8706 58.3619C40.1916 59.586 41.1747 60.2794 42.5735 60.2807C47.5149 60.2848 52.4549 60.2469 57.3949 60.3065C59.1512 60.3281 60.4241 59.1297 60.3659 57.3097ZM49.0451 46.9327H50.2855V48.1732H49.0451V46.9327ZM50.8299 48.8069V49.7386H49.8982V48.8069H50.8299ZM48.9828 49.8388H49.7249V50.5809H48.9828V49.8388ZM48.1676 49.549V48.4995H49.2171V49.549H48.1676ZM41.5146 53.1348L45.183 53.0224L44.747 52.2736L45.3618 50.6391L45.7165 50.4685L45.4173 49.8537L45.4918 49.2402L44.6833 49.4339L44.1119 49.0154L44.3285 48.0269L45.0232 47.9199L44.4206 48.9152L44.9311 49.071L45.7125 48.6498L46.5142 48.1393L47.6503 47.905V47.3932H48.2935V48.0364H47.8507L47.8494 49.8455H48.5197V50.5416H48.2231L47.7139 51.5112L47.1899 51.8077L48.001 52.9371L50.0702 52.8735L50.9274 52.8992L50.3789 52.0149L50.7053 51.1916L51.3702 51.9838L50.9585 52.1788L51.2253 52.7529L51.4555 52.7705L51.4988 52.9168L52.4291 52.9439L52.3506 52.7787L50.8299 50.9275V50.872V50.9275H50.3194V50.417H50.8285L50.8272 49.4975H51.5855V48.7324H50.8258L50.8231 46.8813L52.769 46.5008L54.2126 48.2029L54.6107 48.1488L54.1665 48.7595L54.6594 49.6641L55.2837 49.5287L54.7678 48.7907L54.8761 48.2165L55.6182 47.8251L55.3365 48.4873L55.9202 48.8868L55.9784 49.6871L55.476 50.0216L55.5031 51.0629L54.7637 51.9269L54.3588 51.8091L54.2072 52.6175L53.7346 51.0521L53.201 50.5958L53.1699 51.067L52.5686 51.958L52.6959 52.3832L52.7325 52.7407L52.9491 52.9574L58.6041 53.1253L50.0919 53.4937L41.5146 53.1348Z" fill="#DAA10E"/>
<path d="M47.3118 49.1455H46.6104V49.847H47.3118V49.1455Z" fill="#DAA10E"/>
<path d="M47.0257 51.1537L47.4333 50.6892L46.8537 51.0467L45.7718 51.3893L45.2734 52.2465L45.6634 53.0089L47.1517 52.9629L47.2505 52.7502L46.285 51.4855L47.0257 51.1537Z" fill="#DAA10E"/>
<path d="M52.1311 47.3851H51.5068V48.0093H52.1311V47.3851Z" fill="#DAA10E"/>
<path d="M52.354 49.4988H51.5889V50.2639H52.354V49.4988Z" fill="#DAA10E"/>
<path d="M47.8501 49.8469H47.3125V50.3845H47.8501V49.8469Z" fill="#DAA10E"/>
<defs>
<linearGradient id="paint0_linear" x1="100" y1="50" x2="3.48559e-07" y2="50" gradientUnits="userSpaceOnUse">
<stop stop-color="#DAA10E" stop-opacity="0.5"/>
<stop offset="0.369792" stop-color="#DAA10E" stop-opacity="0.21875"/>
<stop offset="0.6875" stop-color="#DAA10E" stop-opacity="0"/>
</linearGradient>
</defs>
</svg>
