<svg width="102" height="102" viewBox="0 0 102 102" fill="none" xmlns="http://www.w3.org/2000/svg">
<g clip-path="url(#clip0_1384:5583)">
<path d="M51.6344 68.1043C49.7698 67.8764 47.9274 69.0821 47.3844 70.8868C46.8323 72.7202 47.654 74.6811 49.3662 75.5509C49.7503 75.7462 50.18 75.853 50.5889 76.0001C50.9795 76.0001 51.3701 76.0001 51.7607 76.0001C51.8818 75.9623 52.0016 75.9168 52.124 75.8868C53.9886 75.4155 55.2386 73.7032 55.111 71.7944C54.9821 69.8738 53.5329 68.336 51.6344 68.1043Z" fill="#E0AA3A"/>
<path d="M51.1456 33.9141C53.1313 33.9219 54.8605 32.4245 55.087 30.4987C55.3318 28.4219 54.0753 26.5898 52.0766 26.1042C51.9685 26.0781 51.8657 26.0352 51.7602 26C51.3696 26 50.979 26 50.5883 26C50.4829 26.0352 50.3787 26.0768 50.2706 26.1029C48.2511 26.5898 47.0063 28.4271 47.2641 30.543C47.492 32.4128 49.212 33.9063 51.1456 33.9141Z" fill="#E0AA3A"/>
<path d="M69.3742 44.4427C71.5279 44.4622 73.3299 42.6862 73.3495 40.5247C73.369 38.3177 71.6242 36.5469 69.4172 36.5325C67.2362 36.5195 65.4602 38.2604 65.4367 40.4336C65.4146 42.6237 67.1815 44.4232 69.3742 44.4427Z" fill="#E0AA3A"/>
<path d="M32.9597 57.5587C30.7996 57.5456 29.0144 59.3165 29.0001 61.4871C28.9858 63.7006 30.7306 65.4636 32.9402 65.4688C35.1368 65.474 36.9115 63.7032 36.9115 61.5053C36.9115 59.3542 35.1277 57.5717 32.9597 57.5587Z" fill="#E0AA3A"/>
<path d="M32.9298 44.44C35.1147 44.4465 36.9128 42.6549 36.9076 40.4739C36.9037 38.2955 35.1446 36.5364 32.9688 36.5325C30.7735 36.5273 29.0131 38.259 29.0001 40.4348C28.9871 42.6419 30.7449 44.4322 32.9298 44.44Z" fill="#E0AA3A"/>
<path d="M69.4206 57.5586C67.2383 57.5482 65.4336 59.3425 65.4375 61.5196C65.4401 63.698 67.1966 65.4597 69.3698 65.4662C71.5664 65.4727 73.332 63.7422 73.3451 61.5704C73.3581 59.3607 71.6055 57.5691 69.4206 57.5586Z" fill="#E0AA3A"/>
<path d="M45.7443 67.9453C43.549 66.677 41.355 65.4036 39.1505 64.1484C38.924 64.0195 38.5841 63.8685 38.3914 63.9492C38.118 64.0638 37.838 64.3515 37.7339 64.6302C37.5828 65.0299 37.8667 65.3268 38.2209 65.5312C39.9683 66.5364 41.713 67.5468 43.4591 68.5547C44.036 68.888 44.605 69.2369 45.1961 69.5442C45.7768 69.845 46.3901 69.4622 46.4084 68.6692C46.3537 68.5781 46.2534 68.3632 46.1089 68.1836C46.0229 68.0755 45.8706 68.0182 45.7443 67.9453Z" fill="#E0AA3A"/>
<path d="M56.5187 34.0039C57.2349 34.4205 57.9523 34.8359 58.6711 35.25C60.2206 36.1432 61.7674 37.0403 63.3208 37.9244C63.9641 38.2916 64.6477 37.9244 64.6464 37.0325C64.5227 36.9049 64.3391 36.6093 64.0734 36.4531C61.8312 35.1354 59.5747 33.8411 57.3195 32.5442C56.7609 32.2226 56.3143 32.3085 56.0552 32.7617C55.7818 33.2408 55.9393 33.6666 56.5187 34.0039Z" fill="#E0AA3A"/>
<path d="M63.2412 64.1133C60.9925 65.4193 58.7373 66.7148 56.486 68.0156C56.374 68.0807 56.2073 68.1419 56.1774 68.2396C56.0888 68.5312 55.9443 68.8763 56.0302 69.1302C56.1149 69.3815 56.4534 69.5469 56.6722 69.7422C56.9755 69.6081 57.1735 69.5377 57.3531 69.4362C58.1878 68.9635 59.0172 68.4818 59.8479 68.0026C61.2698 67.1823 62.6943 66.3659 64.111 65.5364C64.7294 65.1745 64.831 64.5573 64.3596 64.1315C63.9951 63.8008 63.6279 63.888 63.2412 64.1133Z" fill="#E0AA3A"/>
<path d="M38.9496 37.97C39.3246 37.776 39.6827 37.5507 40.0499 37.3398C41.9795 36.2278 43.9066 35.1145 45.8376 34.0051C46.1644 33.8176 46.4262 33.5937 46.4105 33.2356C46.3962 32.5221 45.74 32.1419 45.1475 32.4804C42.8051 33.8189 40.4704 35.1705 38.1384 36.5286C37.6892 36.7903 37.5785 37.2512 37.8168 37.6562C38.0577 38.0702 38.4991 38.2031 38.9496 37.97Z" fill="#E0AA3A"/>
<path d="M69.4147 46.1119C68.8678 46.1054 68.5658 46.457 68.5645 47.1223C68.5618 49.7057 68.5618 52.289 68.5645 54.8723C68.5658 55.5351 68.8717 55.8958 69.4108 55.8879C69.9525 55.8801 70.2259 55.5377 70.2272 54.8515C70.2298 53.5676 70.2285 52.2838 70.2285 51.0012C70.2285 49.7017 70.2311 48.401 70.2272 47.1015C70.2259 46.4478 69.9486 46.1184 69.4147 46.1119Z" fill="#E0AA3A"/>
<path d="M32.1183 54.9206C32.1209 55.556 32.4204 55.8959 32.9516 55.8881C33.4594 55.8816 33.7771 55.5365 33.7784 54.9493C33.7836 52.3178 33.7836 49.6849 33.7784 47.0521C33.7771 46.461 33.4633 46.1185 32.9555 46.1107C32.4204 46.1029 32.1196 46.4389 32.117 47.0717C32.1118 48.3881 32.1157 49.7045 32.1157 51.0196C32.117 52.3204 32.1144 53.6198 32.1183 54.9206Z" fill="#E0AA3A"/>
<path d="M50.3428 65.5651C50.3715 66.0899 50.6931 66.4128 51.1605 66.4193C51.628 66.4258 51.9796 66.1042 51.9965 65.5886C52.0199 64.8568 52.0199 64.1237 51.9965 63.3932C51.9809 62.8763 51.6384 62.5651 51.1592 62.5664C50.7113 62.5677 50.3806 62.8763 50.3467 63.3698C50.322 63.7422 50.3415 64.1172 50.3415 64.4922C50.3402 64.4922 50.3389 64.4922 50.3389 64.4922C50.3389 64.849 50.3233 65.2083 50.3428 65.5651Z" fill="#E0AA3A"/>
<path d="M51.9974 36.4077C51.9674 35.8985 51.6198 35.5743 51.1549 35.5834C50.7122 35.5926 50.3646 35.909 50.349 36.3946C50.3242 37.142 50.3229 37.8907 50.3503 38.6368C50.3685 39.142 50.7409 39.4519 51.2161 39.4337C51.6602 39.4168 51.9701 39.1017 51.9987 38.6017C52.0182 38.2618 52.0026 37.9194 52.0026 37.5782C52.0013 37.1876 52.0195 36.797 51.9974 36.4077Z" fill="#E0AA3A"/>
<path d="M63.5486 44.6808C64.0929 44.6782 64.6515 44.1808 64.641 43.7069C64.6319 43.2472 64.2504 42.8761 63.7947 42.8827C63.2426 42.8905 62.7218 43.3853 62.7387 43.884C62.7543 44.3449 63.0981 44.6834 63.5486 44.6808Z" fill="#E0AA3A"/>
<path d="M37.7023 58.2643C37.6932 58.7226 38.0643 59.1107 38.52 59.1172C39.0682 59.125 39.6034 58.6445 39.6047 58.1445C39.6047 57.6823 39.2726 57.3281 38.8247 57.3177C38.2948 57.3034 37.7114 57.7956 37.7023 58.2643Z" fill="#E0AA3A"/>
<path d="M38.5016 42.884C38.0524 42.901 37.6839 43.3046 37.706 43.7564C37.7295 44.2317 38.3128 44.7044 38.8467 44.6796C39.2933 44.6588 39.6162 44.2994 39.6058 43.8359C39.5927 43.3359 39.0433 42.8619 38.5016 42.884Z" fill="#E0AA3A"/>
<path d="M63.8298 59.1173C64.283 59.1081 64.6567 58.7136 64.6436 58.2579C64.6306 57.7865 64.0486 57.3021 63.5134 57.3165C63.0668 57.3282 62.7309 57.6876 62.7374 58.1472C62.7439 58.6472 63.2869 59.129 63.8298 59.1173Z" fill="#E0AA3A"/>
<path d="M61.0817 58.0287C61.0075 55.7045 61.0635 53.3764 61.0635 51.0496C61.0622 51.0496 61.0609 51.0496 61.0609 51.0496C61.0609 48.642 61.0648 46.2332 61.0596 43.8256C61.0557 42.1199 60.0648 41.116 58.3721 41.1134C53.5726 41.1082 48.7731 41.1069 43.9737 41.1095C42.2836 41.1108 41.2836 42.1199 41.2822 43.8217C41.2796 48.6055 41.2822 53.3881 41.2888 58.172C41.2888 58.4623 41.3018 58.7631 41.3747 59.0404C41.6833 60.2175 42.6286 60.8842 43.9737 60.8855C48.725 60.8894 53.475 60.8529 58.225 60.9102C59.9138 60.9311 61.1377 59.7787 61.0817 58.0287ZM50.1963 48.0509H51.389V49.2436H50.1963V48.0509ZM51.9125 49.8529V50.7488H51.0166V49.8529H51.9125ZM50.1364 50.8451H50.85V51.5587H50.1364V50.8451ZM49.3526 50.5665V49.5574H50.3617V50.5665H49.3526ZM42.9554 54.0144L46.4828 53.9063L46.0635 53.1863L46.6546 51.6147L46.9958 51.4506L46.708 50.8595L46.7796 50.2696L46.0023 50.4558L45.4528 50.0535L45.6612 49.1029L46.3291 49.0001L45.7497 49.9571L46.2406 50.1069L46.9919 49.7019L47.7627 49.211L48.8552 48.9858V48.4936H49.4737V49.1121H49.0479L49.0466 50.8516H49.6911V51.5209H49.4059L48.9164 52.4532L48.4125 52.7384L49.1924 53.8243L51.182 53.7631L52.0062 53.7878L51.4789 52.9376L51.7927 52.1459L52.432 52.9076L52.0362 53.0951L52.2927 53.6472L52.514 53.6641L52.5557 53.8048L53.4502 53.8308L53.3747 53.672L51.9125 51.892V51.8386V51.892H51.4216V51.4011H51.9112L51.9099 50.517H52.639V49.7813H51.9086L51.906 48.0014L53.777 47.6355L55.1651 49.2722L55.5479 49.2201L55.1208 49.8074L55.5948 50.6772L56.195 50.547L55.6989 49.8373L55.8031 49.2852L56.5166 48.9089L56.2458 49.5457L56.807 49.9298L56.863 50.6993L56.3799 51.0209L56.406 52.0222L55.695 52.8529L55.3057 52.7397L55.1599 53.517L54.7054 52.0118L54.1924 51.573L54.1625 52.0261L53.5843 52.8829L53.7067 53.2917L53.7419 53.6355L53.9502 53.8438L59.3877 54.0053L51.2028 54.3595L42.9554 54.0144Z" fill="#E0AA3A"/>
<path d="M48.5309 50.1785H47.8564V50.8529H48.5309V50.1785Z" fill="#E0AA3A"/>
<path d="M48.2552 52.1095L48.6471 51.6628L48.0898 52.0066L47.0495 52.336L46.5703 53.1602L46.9453 53.8933L48.3763 53.849L48.4714 53.6446L47.543 52.4285L48.2552 52.1095Z" fill="#E0AA3A"/>
<path d="M53.1637 48.4856H52.5635V49.0859H53.1637V48.4856Z" fill="#E0AA3A"/>
<path d="M53.3792 50.5183H52.6436V51.254H53.3792V50.5183Z" fill="#E0AA3A"/>
<path d="M49.0482 50.8528H48.5312V51.3697H49.0482V50.8528Z" fill="#E0AA3A"/>
</g>
<path d="M101 51C101 78.6142 78.6142 101 51 101C23.3858 101 1 78.6142 1 51C1 23.3858 23.3858 1 51 1C78.6142 1 101 23.3858 101 51Z" stroke="black" stroke-width="2"/>
<path d="M101 51C101 78.6142 78.6142 101 51 101C23.3858 101 1 78.6142 1 51C1 23.3858 23.3858 1 51 1C78.6142 1 101 23.3858 101 51Z" stroke="url(#paint0_linear_1384:5583)" stroke-width="2"/>
<defs>
<linearGradient id="paint0_linear_1384:5583" x1="101" y1="51" x2="1" y2="51" gradientUnits="userSpaceOnUse">
<stop stop-color="#E0AA3A" stop-opacity="0.5"/>
<stop offset="0.369792" stop-color="#DAA10E" stop-opacity="0.21875"/>
<stop offset="0.6875" stop-color="#E0AA3A" stop-opacity="0"/>
</linearGradient>
<clipPath id="clip0_1384:5583">
<rect width="44.349" height="50" fill="white" transform="translate(29 26)"/>
</clipPath>
</defs>
</svg>
