<svg width="100" height="100" viewBox="0 0 100 100" fill="none" xmlns="http://www.w3.org/2000/svg">
<g clip-path="url(#clip0)">
<path d="M50.6344 67.1043C48.7698 66.8764 46.9274 68.0821 46.3844 69.8868C45.8323 71.7202 46.654 73.6811 48.3662 74.5509C48.7503 74.7462 49.18 74.853 49.5889 75.0001C49.9795 75.0001 50.3701 75.0001 50.7607 75.0001C50.8818 74.9623 51.0016 74.9168 51.124 74.8868C52.9886 74.4155 54.2386 72.7032 54.111 70.7944C53.9821 68.8738 52.5329 67.336 50.6344 67.1043Z" fill="#DAA10E"/>
<path d="M50.1456 32.9141C52.1313 32.9219 53.8605 31.4245 54.087 29.4987C54.3318 27.4219 53.0753 25.5898 51.0766 25.1042C50.9685 25.0781 50.8657 25.0352 50.7602 25C50.3696 25 49.979 25 49.5883 25C49.4829 25.0352 49.3787 25.0768 49.2706 25.1029C47.2511 25.5898 46.0063 27.4271 46.2641 29.543C46.492 31.4128 48.212 32.9063 50.1456 32.9141Z" fill="#DAA10E"/>
<path d="M68.3742 43.4427C70.5279 43.4622 72.3299 41.6862 72.3495 39.5247C72.369 37.3177 70.6242 35.5469 68.4172 35.5325C66.2362 35.5195 64.4602 37.2604 64.4367 39.4336C64.4146 41.6237 66.1815 43.4232 68.3742 43.4427Z" fill="#DAA10E"/>
<path d="M31.9597 56.5587C29.7996 56.5456 28.0144 58.3165 28.0001 60.4871C27.9858 62.7006 29.7306 64.4636 31.9402 64.4688C34.1368 64.474 35.9115 62.7032 35.9115 60.5053C35.9115 58.3542 34.1277 56.5717 31.9597 56.5587Z" fill="#DAA10E"/>
<path d="M31.9298 43.44C34.1147 43.4465 35.9128 41.6549 35.9076 39.4739C35.9037 37.2955 34.1446 35.5364 31.9688 35.5325C29.7735 35.5273 28.0131 37.259 28.0001 39.4348C27.9871 41.6419 29.7449 43.4322 31.9298 43.44Z" fill="#DAA10E"/>
<path d="M68.4206 56.5586C66.2383 56.5482 64.4336 58.3425 64.4375 60.5196C64.4401 62.698 66.1966 64.4597 68.3698 64.4662C70.5664 64.4727 72.332 62.7422 72.3451 60.5704C72.3581 58.3607 70.6055 56.5691 68.4206 56.5586Z" fill="#DAA10E"/>
<path d="M44.7443 66.9453C42.549 65.677 40.355 64.4036 38.1505 63.1484C37.924 63.0195 37.5841 62.8685 37.3914 62.9492C37.118 63.0638 36.838 63.3515 36.7339 63.6302C36.5828 64.0299 36.8667 64.3268 37.2209 64.5312C38.9683 65.5364 40.713 66.5468 42.4591 67.5547C43.036 67.888 43.605 68.2369 44.1961 68.5442C44.7768 68.845 45.3901 68.4622 45.4084 67.6692C45.3537 67.5781 45.2534 67.3632 45.1089 67.1836C45.0229 67.0755 44.8706 67.0182 44.7443 66.9453Z" fill="#DAA10E"/>
<path d="M55.5187 33.0039C56.2349 33.4205 56.9523 33.8359 57.6711 34.25C59.2206 35.1432 60.7674 36.0403 62.3208 36.9244C62.9641 37.2916 63.6477 36.9244 63.6464 36.0325C63.5227 35.9049 63.3391 35.6093 63.0734 35.4531C60.8312 34.1354 58.5747 32.8411 56.3195 31.5442C55.7609 31.2226 55.3143 31.3085 55.0552 31.7617C54.7818 32.2408 54.9393 32.6666 55.5187 33.0039Z" fill="#DAA10E"/>
<path d="M62.2412 63.1133C59.9925 64.4193 57.7373 65.7148 55.486 67.0156C55.374 67.0807 55.2073 67.1419 55.1774 67.2396C55.0888 67.5312 54.9443 67.8763 55.0302 68.1302C55.1149 68.3815 55.4534 68.5469 55.6722 68.7422C55.9755 68.6081 56.1735 68.5377 56.3531 68.4362C57.1878 67.9635 58.0172 67.4818 58.8479 67.0026C60.2698 66.1823 61.6943 65.3659 63.111 64.5364C63.7294 64.1745 63.831 63.5573 63.3596 63.1315C62.9951 62.8008 62.6279 62.888 62.2412 63.1133Z" fill="#DAA10E"/>
<path d="M37.9496 36.97C38.3246 36.776 38.6827 36.5507 39.0499 36.3398C40.9795 35.2278 42.9066 34.1145 44.8376 33.0051C45.1644 32.8176 45.4262 32.5937 45.4105 32.2356C45.3962 31.5221 44.74 31.1419 44.1475 31.4804C41.8051 32.8189 39.4704 34.1705 37.1384 35.5286C36.6892 35.7903 36.5785 36.2512 36.8168 36.6562C37.0577 37.0702 37.4991 37.2031 37.9496 36.97Z" fill="#DAA10E"/>
<path d="M68.4147 45.1119C67.8678 45.1054 67.5658 45.457 67.5645 46.1223C67.5618 48.7057 67.5618 51.289 67.5645 53.8723C67.5658 54.5351 67.8717 54.8958 68.4108 54.8879C68.9525 54.8801 69.2259 54.5377 69.2272 53.8515C69.2298 52.5676 69.2285 51.2838 69.2285 50.0012C69.2285 48.7017 69.2311 47.401 69.2272 46.1015C69.2259 45.4478 68.9486 45.1184 68.4147 45.1119Z" fill="#DAA10E"/>
<path d="M31.1183 53.9206C31.1209 54.556 31.4204 54.8959 31.9516 54.8881C32.4594 54.8816 32.7771 54.5365 32.7784 53.9493C32.7836 51.3178 32.7836 48.6849 32.7784 46.0521C32.7771 45.461 32.4633 45.1185 31.9555 45.1107C31.4204 45.1029 31.1196 45.4389 31.117 46.0717C31.1118 47.3881 31.1157 48.7045 31.1157 50.0196C31.117 51.3204 31.1144 52.6198 31.1183 53.9206Z" fill="#DAA10E"/>
<path d="M49.3428 64.5651C49.3715 65.0899 49.6931 65.4128 50.1605 65.4193C50.628 65.4258 50.9796 65.1042 50.9965 64.5886C51.0199 63.8568 51.0199 63.1237 50.9965 62.3932C50.9809 61.8763 50.6384 61.5651 50.1592 61.5664C49.7113 61.5677 49.3806 61.8763 49.3467 62.3698C49.322 62.7422 49.3415 63.1172 49.3415 63.4922C49.3402 63.4922 49.3389 63.4922 49.3389 63.4922C49.3389 63.849 49.3233 64.2083 49.3428 64.5651Z" fill="#DAA10E"/>
<path d="M50.9974 35.4077C50.9674 34.8985 50.6198 34.5743 50.1549 34.5834C49.7122 34.5926 49.3646 34.909 49.349 35.3946C49.3242 36.142 49.3229 36.8907 49.3503 37.6368C49.3685 38.142 49.7409 38.4519 50.2161 38.4337C50.6602 38.4168 50.9701 38.1017 50.9987 37.6017C51.0182 37.2618 51.0026 36.9194 51.0026 36.5782C51.0013 36.1876 51.0195 35.797 50.9974 35.4077Z" fill="#DAA10E"/>
<path d="M62.5486 43.6808C63.0929 43.6782 63.6515 43.1808 63.641 42.7069C63.6319 42.2472 63.2504 41.8761 62.7947 41.8827C62.2426 41.8905 61.7218 42.3853 61.7387 42.884C61.7543 43.3449 62.0981 43.6834 62.5486 43.6808Z" fill="#DAA10E"/>
<path d="M36.7023 57.2643C36.6932 57.7226 37.0643 58.1107 37.52 58.1172C38.0682 58.125 38.6034 57.6445 38.6047 57.1445C38.6047 56.6823 38.2726 56.3281 37.8247 56.3177C37.2948 56.3034 36.7114 56.7956 36.7023 57.2643Z" fill="#DAA10E"/>
<path d="M37.5016 41.884C37.0524 41.901 36.6839 42.3046 36.706 42.7564C36.7295 43.2317 37.3128 43.7044 37.8467 43.6796C38.2933 43.6588 38.6162 43.2994 38.6058 42.8359C38.5927 42.3359 38.0433 41.8619 37.5016 41.884Z" fill="#DAA10E"/>
<path d="M62.8298 58.1173C63.283 58.1081 63.6567 57.7136 63.6436 57.2579C63.6306 56.7865 63.0486 56.3021 62.5134 56.3165C62.0668 56.3282 61.7309 56.6876 61.7374 57.1472C61.7439 57.6472 62.2869 58.129 62.8298 58.1173Z" fill="#DAA10E"/>
<path d="M60.0817 57.0287C60.0075 54.7045 60.0635 52.3764 60.0635 50.0496C60.0622 50.0496 60.0609 50.0496 60.0609 50.0496C60.0609 47.642 60.0648 45.2332 60.0596 42.8256C60.0557 41.1199 59.0648 40.116 57.3721 40.1134C52.5726 40.1082 47.7731 40.1069 42.9737 40.1095C41.2836 40.1108 40.2836 41.1199 40.2822 42.8217C40.2796 47.6055 40.2822 52.3881 40.2888 57.172C40.2888 57.4623 40.3018 57.7631 40.3747 58.0404C40.6833 59.2175 41.6286 59.8842 42.9737 59.8855C47.725 59.8894 52.475 59.8529 57.225 59.9102C58.9138 59.9311 60.1377 58.7787 60.0817 57.0287ZM49.1963 47.0509H50.389V48.2436H49.1963V47.0509ZM50.9125 48.8529V49.7488H50.0166V48.8529H50.9125ZM49.1364 49.8451H49.85V50.5587H49.1364V49.8451ZM48.3526 49.5665V48.5574H49.3617V49.5665H48.3526ZM41.9554 53.0144L45.4828 52.9063L45.0635 52.1863L45.6546 50.6147L45.9958 50.4506L45.708 49.8595L45.7796 49.2696L45.0023 49.4558L44.4528 49.0535L44.6612 48.1029L45.3291 48.0001L44.7497 48.9571L45.2406 49.1069L45.9919 48.7019L46.7627 48.211L47.8552 47.9858V47.4936H48.4737V48.1121H48.0479L48.0466 49.8516H48.6911V50.5209H48.4059L47.9164 51.4532L47.4125 51.7384L48.1924 52.8243L50.182 52.7631L51.0062 52.7878L50.4789 51.9376L50.7927 51.1459L51.432 51.9076L51.0362 52.0951L51.2927 52.6472L51.514 52.6641L51.5557 52.8048L52.4502 52.8308L52.3747 52.672L50.9125 50.892V50.8386V50.892H50.4216V50.4011H50.9112L50.9099 49.517H51.639V48.7813H50.9086L50.906 47.0014L52.777 46.6355L54.1651 48.2722L54.5479 48.2201L54.1208 48.8074L54.5948 49.6772L55.195 49.547L54.6989 48.8373L54.8031 48.2852L55.5166 47.9089L55.2458 48.5457L55.807 48.9298L55.863 49.6993L55.3799 50.0209L55.406 51.0222L54.695 51.8529L54.3057 51.7397L54.1599 52.517L53.7054 51.0118L53.1924 50.573L53.1625 51.0261L52.5843 51.8829L52.7067 52.2917L52.7419 52.6355L52.9502 52.8438L58.3877 53.0053L50.2028 53.3595L41.9554 53.0144Z" fill="#DAA10E"/>
<path d="M47.5309 49.1785H46.8564V49.8529H47.5309V49.1785Z" fill="#DAA10E"/>
<path d="M47.2552 51.1095L47.6471 50.6628L47.0898 51.0066L46.0495 51.336L45.5703 52.1602L45.9453 52.8933L47.3763 52.849L47.4714 52.6446L46.543 51.4285L47.2552 51.1095Z" fill="#DAA10E"/>
<path d="M52.1637 47.4856H51.5635V48.0859H52.1637V47.4856Z" fill="#DAA10E"/>
<path d="M52.3792 49.5183H51.6436V50.254H52.3792V49.5183Z" fill="#DAA10E"/>
<path d="M48.0482 49.8528H47.5312V50.3697H48.0482V49.8528Z" fill="#DAA10E"/>
</g>
<circle cx="50" cy="50" r="49.5" stroke="black"/>
<circle cx="50" cy="50" r="49.5" stroke="url(#paint0_linear)"/>
<defs>
<linearGradient id="paint0_linear" x1="100" y1="50" x2="3.48559e-07" y2="50" gradientUnits="userSpaceOnUse">
<stop stop-color="#DAA10E" stop-opacity="0.5"/>
<stop offset="0.369792" stop-color="#DAA10E" stop-opacity="0.21875"/>
<stop offset="0.6875" stop-color="#DAA10E" stop-opacity="0"/>
</linearGradient>
<clipPath id="clip0">
<rect width="44.349" height="50" fill="white" transform="translate(28 25)"/>
</clipPath>
</defs>
</svg>
