<svg width="52" height="52" viewBox="0 0 52 52" fill="none" xmlns="http://www.w3.org/2000/svg">
<path d="M0.0345392 25.4749C0.256986 23.9865 1.44433 22.85 2.95812 22.6683C4.41125 22.4953 5.87015 23.3375 6.41327 24.7163C6.55483 25.0768 6.71083 25.1951 7.09505 25.1806C7.97617 25.1489 8.85729 25.1605 9.73841 25.1749C10.0157 25.1806 10.1053 25.1057 10.1284 24.8143C10.4029 21.3415 11.6711 18.2725 13.9562 15.6274C14.1151 15.4428 14.1469 15.3419 13.9533 15.1515C11.6942 12.9103 9.44085 10.6634 7.19617 8.40774C7.01705 8.2289 6.87261 8.19429 6.62705 8.26928C5.20281 8.70772 3.74969 7.90296 3.42035 6.51267C3.07946 5.08488 3.94902 3.7292 5.40215 3.43211C6.78305 3.14943 8.11484 4.09841 8.35751 5.54062C8.42396 5.9329 8.38062 6.3223 8.23618 6.68574C8.14373 6.91649 8.19862 7.05206 8.36329 7.21647C10.6195 9.46055 12.8729 11.7075 15.1176 13.9631C15.2967 14.142 15.3978 14.1622 15.6 13.9891C18.2607 11.7017 21.3432 10.4153 24.8475 10.1643C25.0815 10.147 25.1681 10.0778 25.1652 9.83553C25.1537 8.85482 25.145 7.87412 25.1681 6.89341C25.1768 6.56747 24.9543 6.57324 24.7608 6.4896C23.5214 5.95309 22.7877 5.00989 22.6634 3.67151C22.545 2.3966 23.0419 1.34667 24.1079 0.619797C25.2259 -0.141691 26.4306 -0.205148 27.6093 0.449616C28.8255 1.12457 29.4206 2.20334 29.331 3.5994C29.2444 4.92624 28.5626 5.8954 27.3377 6.42037C26.9188 6.5992 26.8061 6.80688 26.8235 7.23378C26.861 8.07891 26.8437 8.92405 26.8292 9.76918C26.8264 10.0403 26.8957 10.147 27.1904 10.1701C30.6426 10.4182 33.6818 11.6873 36.3136 13.9228C36.5822 14.1506 36.7151 14.1333 36.9549 13.891C39.1476 11.6787 41.3518 9.47786 43.5647 7.28858C43.7901 7.06648 43.8276 6.89341 43.7323 6.59632C43.3856 5.50889 43.8507 4.3407 44.8359 3.74939C45.821 3.15809 47.0517 3.29942 47.8808 4.09553C48.7099 4.89451 48.8832 6.17519 48.2997 7.17032C47.7219 8.15391 46.5519 8.65003 45.4628 8.30101C45.0988 8.18564 44.9196 8.28082 44.6885 8.51734C42.5161 10.7009 40.3378 12.8815 38.1451 15.0448C37.8851 15.3015 37.862 15.4284 38.1076 15.7197C40.3118 18.3042 41.5714 21.2924 41.8429 24.6816C41.8718 25.0537 41.9701 25.2037 42.3803 25.1864C43.2441 25.1518 44.1079 25.1605 44.9716 25.1835C45.2894 25.1922 45.431 25.0999 45.5523 24.7884C46.0983 23.3779 47.4763 22.5385 48.9612 22.6683C50.3913 22.7923 51.5815 23.8423 51.9137 25.2701C52.3008 26.943 51.3533 28.6246 49.7152 29.1698C48.057 29.7207 46.2485 28.9362 45.6043 27.3238C45.4368 26.8998 45.223 26.8219 44.8272 26.8334C43.9807 26.8565 43.1343 26.8565 42.2878 26.8334C41.973 26.8248 41.8805 26.9344 41.8603 27.2286C41.5974 30.713 40.3003 33.7676 38.0267 36.4155C37.8649 36.603 37.8794 36.6981 38.0469 36.8626C40.3147 39.1182 42.5796 41.3767 44.8359 43.6438C45.015 43.8227 45.1594 43.8054 45.3703 43.7419C46.8263 43.3006 48.2217 44.0938 48.5828 45.5533C48.9266 46.9436 48.0079 48.3166 46.5461 48.5964C44.7579 48.9367 43.195 47.183 43.741 45.4235C43.8334 45.1264 43.7959 44.9562 43.5705 44.7341C41.3576 42.5449 39.1563 40.3383 36.9578 38.1346C36.7556 37.9327 36.6313 37.8375 36.3511 38.0769C33.7106 40.3267 30.6571 41.6045 27.1846 41.8555C26.9275 41.8728 26.8321 41.9564 26.835 42.2189C26.8466 43.1823 26.8466 44.1457 26.835 45.112C26.8321 45.3428 26.9361 45.4235 27.1326 45.5072C28.6666 46.1475 29.4408 47.3619 29.331 48.9569C29.2242 50.5261 27.927 51.7548 26.6415 51.9279C26.6184 51.9308 26.6039 51.9769 26.5837 52C26.1764 52 25.7719 52 25.3646 52C23.7497 51.6971 22.7848 50.6789 22.5248 49.0002C22.3254 47.7138 23.1517 46.1879 24.4574 45.5504C24.8908 45.337 25.0583 45.086 25.0381 44.6159C25.0063 43.9236 25.0179 43.2285 25.0352 42.5362C25.0439 42.167 24.9457 42.0084 24.5297 41.968C21.3692 41.6536 18.5178 40.5517 16.0276 38.5586C15.9611 38.5067 15.8947 38.4519 15.8283 38.4028C15.3342 38.0221 15.314 38.0192 14.8662 38.4663C12.818 40.5085 10.7755 42.5593 8.71862 44.5957C8.41818 44.8928 8.34307 45.1783 8.43551 45.5908C8.7504 46.9523 7.93284 48.2791 6.5866 48.6541C5.25481 49.0262 3.8508 48.3051 3.38857 47.0157C3.04768 46.0725 3.20657 45.2014 3.84213 44.4515C4.52969 43.6467 5.40793 43.2833 6.47394 43.5775C6.78883 43.664 7.01705 43.6006 7.24817 43.3698C9.37441 41.2353 11.5064 39.1066 13.6442 36.9866C13.9013 36.7299 13.9158 36.5539 13.676 36.2684C11.5238 33.7041 10.3306 30.7332 10.0013 27.4132C9.96664 27.0526 9.8193 26.9546 9.48997 26.9603C8.79662 26.9719 8.1004 26.9921 7.40706 26.9546C6.91305 26.9257 6.65016 27.1046 6.43349 27.5516C5.60148 29.2592 3.60813 29.9774 1.91234 29.1785C0.768324 28.6391 -0.000127785 27.7939 0.00853897 26.4354C0.0200946 26.1037 -0.0319059 25.7864 0.0345392 25.4749Z" fill="#DAA10E"/>
<path d="M40.2663 26.0534C40.0871 34.2365 33.6622 40.4207 25.5097 40.2187C17.8916 40.0313 11.4146 33.5817 11.7498 25.3899C12.0704 17.576 18.6918 11.4928 26.5323 11.7726C33.9309 12.0379 40.2547 18.0981 40.2663 26.0534Z" fill="#191919"/>
<path d="M18.5205 29.251C18.1743 29.251 17.8643 29.1701 17.5906 29.0081C17.3169 28.8405 17.0991 28.5948 16.9371 28.2708C16.7807 27.9469 16.7026 27.5476 16.7026 27.0728C16.7026 26.5981 16.7835 26.1987 16.9455 25.8748C17.1075 25.5509 17.3253 25.3079 17.599 25.1459C17.8782 24.9784 18.1882 24.8946 18.5289 24.8946C18.8473 24.8946 19.1098 24.956 19.3164 25.0789C19.5231 25.1962 19.6767 25.347 19.7772 25.5313V23.1185H20.6652V29.1505H19.9029L19.8275 28.5389H19.7772C19.6655 28.7568 19.5063 28.9299 19.2997 29.0584C19.0986 29.1868 18.8389 29.251 18.5205 29.251ZM18.7048 28.4049C19.0232 28.4049 19.2857 28.2932 19.4924 28.0698C19.7046 27.8464 19.8107 27.5141 19.8107 27.0728C19.8107 26.626 19.7046 26.2937 19.4924 26.0759C19.2857 25.8525 19.0232 25.7408 18.7048 25.7408C18.3865 25.7408 18.1212 25.8525 17.909 26.0759C17.7023 26.2993 17.599 26.6344 17.599 27.0812C17.599 27.5224 17.7023 27.8547 17.909 28.0782C18.1212 28.296 18.3865 28.4049 18.7048 28.4049ZM21.7595 29.1505V23.2861H25.5043V24.082H22.6475V25.791H25.253V26.5785H22.6475V28.3546H25.5043V29.1505H21.7595ZM28.0144 29.1505V24.082H26.4394V23.2861H30.4775V24.082H28.9024V29.1505H28.0144ZM31.5046 29.1505V23.2861H35.2663V24.1155H32.3927V25.9083H34.8055V26.6874H32.3927V29.1505H31.5046Z" fill="#DAA10E"/>
<path d="M48.6668 24.3459C49.6028 24.3516 50.3511 25.1017 50.3366 26.0163C50.3251 26.9367 49.5537 27.6868 48.6379 27.6695C47.6875 27.6522 46.9855 26.9367 46.9912 25.9875C46.997 25.0383 47.7106 24.3401 48.6668 24.3459Z" fill="white"/>
<path d="M25.9779 50.2804C25.0361 50.2718 24.3254 49.5447 24.3341 48.5984C24.3427 47.6694 25.1083 46.9135 26.0183 46.9395C26.9341 46.9655 27.6968 47.7444 27.6823 48.6446C27.6708 49.5649 26.9168 50.2891 25.9779 50.2804Z" fill="white"/>
<path d="M24.3341 3.35371C24.3427 2.41895 25.0823 1.71211 26.0299 1.72654C26.9601 1.74096 27.7083 2.5055 27.6823 3.41719C27.6563 4.32021 26.8561 5.08764 25.9634 5.07033C25.0418 5.04725 24.3254 4.29136 24.3341 3.35371Z" fill="white"/>
<path d="M3.31971 24.3458C4.25861 24.3371 5.00973 25.0555 5.02706 25.9758C5.0444 26.8846 4.2875 27.6578 3.37171 27.6723C2.44726 27.6867 1.68459 26.9481 1.67592 26.0278C1.66436 25.0872 2.37793 24.3544 3.31971 24.3458Z" fill="white"/>
<path d="M46.1109 5.07205C46.579 5.06051 46.9574 5.41537 46.969 5.8741C46.9805 6.32706 46.6078 6.71366 46.1514 6.72231C45.6892 6.73097 45.3078 6.37033 45.2934 5.91449C45.2789 5.45865 45.6429 5.08359 46.1109 5.07205Z" fill="#191919"/>
<path d="M46.9686 46.1119C46.9657 46.5707 46.593 46.9342 46.1279 46.9313C45.6599 46.9284 45.2901 46.562 45.293 46.1033C45.2959 45.6445 45.6714 45.2781 46.1337 45.2781C46.593 45.281 46.9714 45.659 46.9686 46.1119Z" fill="#191919"/>
<path d="M5.84173 6.72245C5.37084 6.71091 5.0155 6.33585 5.03283 5.86558C5.04728 5.39531 5.42284 5.05488 5.90529 5.07507C6.35885 5.09527 6.68818 5.44725 6.68529 5.90309C6.67952 6.37912 6.31551 6.73399 5.84173 6.72245Z" fill="#191919"/>
<path d="M5.88164 46.9313C5.40208 46.9399 5.03518 46.5908 5.03229 46.1177C5.02652 45.6474 5.39052 45.281 5.8643 45.281C6.31786 45.281 6.66742 45.6214 6.68476 46.0744C6.70209 46.5533 6.35542 46.9226 5.88164 46.9313Z" fill="#191919"/>
</svg>
