<svg width="100" height="100" viewBox="0 0 100 100" fill="none" xmlns="http://www.w3.org/2000/svg">
<circle cx="50" cy="50" r="49.5" stroke="black"/>
<circle cx="50" cy="50" r="49.5" stroke="url(#paint0_linear)"/>
<path d="M24.0345 49.4749C24.257 47.9865 25.4443 46.85 26.9581 46.6683C28.4112 46.4953 29.8702 47.3375 30.4133 48.7163C30.5548 49.0768 30.7108 49.1951 31.0951 49.1806C31.9762 49.1489 32.8573 49.1605 33.7384 49.1749C34.0157 49.1806 34.1053 49.1057 34.1284 48.8143C34.4029 45.3415 35.6711 42.2725 37.9562 39.6274C38.1151 39.4428 38.1469 39.3419 37.9533 39.1515C35.6942 36.9103 33.4409 34.6634 31.1962 32.4077C31.0171 32.2289 30.8726 32.1943 30.627 32.2693C29.2028 32.7077 27.7497 31.903 27.4204 30.5127C27.0795 29.0849 27.949 27.7292 29.4021 27.4321C30.7831 27.1494 32.1148 28.0984 32.3575 29.5406C32.424 29.9329 32.3806 30.3223 32.2362 30.6857C32.1437 30.9165 32.1986 31.0521 32.3633 31.2165C34.6195 33.4606 36.8729 35.7075 39.1176 37.9631C39.2967 38.142 39.3978 38.1622 39.6 37.9891C42.2607 35.7017 45.3432 34.4153 48.8475 34.1643C49.0815 34.147 49.1681 34.0778 49.1652 33.8355C49.1537 32.8548 49.145 31.8741 49.1681 30.8934C49.1768 30.5675 48.9543 30.5732 48.7608 30.4896C47.5214 29.9531 46.7877 29.0099 46.6634 27.6715C46.545 26.3966 47.0419 25.3467 48.1079 24.6198C49.2259 23.8583 50.4306 23.7949 51.6093 24.4496C52.8255 25.1246 53.4206 26.2033 53.331 27.5994C53.2444 28.9262 52.5626 29.8954 51.3377 30.4204C50.9188 30.5992 50.8061 30.8069 50.8235 31.2338C50.861 32.0789 50.8437 32.924 50.8292 33.7692C50.8264 34.0403 50.8957 34.147 51.1904 34.1701C54.6426 34.4182 57.6818 35.6873 60.3136 37.9228C60.5822 38.1506 60.7151 38.1333 60.9549 37.891C63.1476 35.6787 65.3518 33.4779 67.5647 31.2886C67.7901 31.0665 67.8276 30.8934 67.7323 30.5963C67.3856 29.5089 67.8507 28.3407 68.8359 27.7494C69.821 27.1581 71.0517 27.2994 71.8808 28.0955C72.7099 28.8945 72.8832 30.1752 72.2997 31.1703C71.7219 32.1539 70.5519 32.65 69.4628 32.301C69.0988 32.1856 68.9196 32.2808 68.6885 32.5173C66.5161 34.7009 64.3378 36.8815 62.1451 39.0448C61.8851 39.3015 61.862 39.4284 62.1076 39.7197C64.3118 42.3042 65.5714 45.2924 65.8429 48.6816C65.8718 49.0537 65.9701 49.2037 66.3803 49.1864C67.2441 49.1518 68.1079 49.1605 68.9716 49.1835C69.2894 49.1922 69.431 49.0999 69.5523 48.7884C70.0983 47.3779 71.4763 46.5385 72.9612 46.6683C74.3913 46.7923 75.5815 47.8423 75.9137 49.2701C76.3008 50.943 75.3533 52.6246 73.7152 53.1698C72.057 53.7207 70.2486 52.9362 69.6043 51.3238C69.4368 50.8998 69.223 50.8219 68.8272 50.8334C67.9807 50.8565 67.1343 50.8565 66.2878 50.8334C65.973 50.8248 65.8805 50.9344 65.8603 51.2286C65.5974 54.713 64.3003 57.7676 62.0267 60.4155C61.8649 60.603 61.8794 60.6981 62.0469 60.8626C64.3147 63.1182 66.5796 65.3767 68.8359 67.6438C69.015 67.8227 69.1594 67.8054 69.3703 67.7419C70.8263 67.3006 72.2217 68.0938 72.5828 69.5533C72.9266 70.9436 72.0079 72.3166 70.5461 72.5964C68.7579 72.9367 67.195 71.183 67.741 69.4235C67.8334 69.1264 67.7959 68.9562 67.5705 68.7341C65.3576 66.5449 63.1563 64.3383 60.9578 62.1346C60.7556 61.9327 60.6313 61.8375 60.3511 62.0769C57.7106 64.3267 54.6571 65.6045 51.1846 65.8555C50.9275 65.8728 50.8321 65.9564 50.835 66.2189C50.8466 67.1823 50.8466 68.1457 50.835 69.112C50.8321 69.3428 50.9361 69.4235 51.1326 69.5072C52.6666 70.1475 53.4408 71.3619 53.331 72.9569C53.2242 74.5261 51.927 75.7548 50.6415 75.9279C50.6184 75.9308 50.6039 75.9769 50.5837 76C50.1764 76 49.7719 76 49.3646 76C47.7497 75.6971 46.7848 74.6789 46.5248 73.0002C46.3254 71.7138 47.1517 70.1879 48.4574 69.5504C48.8908 69.337 49.0583 69.086 49.0381 68.6159C49.0063 67.9236 49.0179 67.2285 49.0352 66.5362C49.0439 66.167 48.9457 66.0084 48.5297 65.968C45.3692 65.6536 42.5178 64.5517 40.0276 62.5586C39.9611 62.5067 39.8947 62.4519 39.8283 62.4028C39.3342 62.0221 39.314 62.0192 38.8662 62.4663C36.818 64.5085 34.7755 66.5593 32.7186 68.5957C32.4182 68.8928 32.3431 69.1783 32.4355 69.5908C32.7504 70.9523 31.9328 72.2791 30.5866 72.6541C29.2548 73.0262 27.8508 72.3051 27.3886 71.0157C27.0477 70.0725 27.2066 69.2014 27.8421 68.4515C28.5297 67.6467 29.4079 67.2833 30.4739 67.5775C30.7888 67.664 31.0171 67.6006 31.2482 67.3698C33.3744 65.2353 35.5064 63.1066 37.6442 60.9866C37.9013 60.7299 37.9158 60.5539 37.676 60.2684C35.5238 57.7041 34.3306 54.7332 34.0013 51.4132C33.9666 51.0526 33.8193 50.9546 33.49 50.9603C32.7966 50.9719 32.1004 50.9921 31.4071 50.9546C30.9131 50.9257 30.6502 51.1046 30.4335 51.5516C29.6015 53.2592 27.6081 53.9774 25.9123 53.1785C24.7683 52.6391 23.9999 51.7939 24.0085 50.4354C24.0201 50.1037 23.9681 49.7864 24.0345 49.4749Z" fill="#DAA10E"/>
<path d="M64.2663 50.0534C64.0871 58.2365 57.6622 64.4207 49.5097 64.2188C41.8916 64.0313 35.4146 57.5817 35.7498 49.3899C36.0704 41.576 42.6918 35.4928 50.5323 35.7726C57.9309 36.0379 64.2547 42.0981 64.2663 50.0534Z" fill="#191919"/>
<path d="M42.5205 53.251C42.1743 53.251 41.8643 53.1701 41.5906 53.0081C41.3169 52.8405 41.0991 52.5948 40.9371 52.2708C40.7807 51.9469 40.7026 51.5476 40.7026 51.0728C40.7026 50.5981 40.7835 50.1987 40.9455 49.8748C41.1075 49.5509 41.3253 49.3079 41.599 49.1459C41.8782 48.9784 42.1882 48.8946 42.5289 48.8946C42.8473 48.8946 43.1098 48.956 43.3164 49.0789C43.5231 49.1962 43.6767 49.347 43.7772 49.5313V47.1185H44.6652V53.1505H43.9029L43.8275 52.5389H43.7772C43.6655 52.7568 43.5063 52.9299 43.2997 53.0584C43.0986 53.1868 42.8389 53.251 42.5205 53.251ZM42.7048 52.4049C43.0232 52.4049 43.2857 52.2932 43.4924 52.0698C43.7046 51.8464 43.8107 51.5141 43.8107 51.0728C43.8107 50.626 43.7046 50.2937 43.4924 50.0759C43.2857 49.8525 43.0232 49.7408 42.7048 49.7408C42.3865 49.7408 42.1212 49.8525 41.909 50.0759C41.7023 50.2993 41.599 50.6344 41.599 51.0812C41.599 51.5224 41.7023 51.8547 41.909 52.0782C42.1212 52.296 42.3865 52.4049 42.7048 52.4049ZM45.7595 53.1505V47.2861H49.5043V48.082H46.6475V49.791H49.253V50.5785H46.6475V52.3546H49.5043V53.1505H45.7595ZM52.0144 53.1505V48.082H50.4394V47.2861H54.4775V48.082H52.9024V53.1505H52.0144ZM55.5046 53.1505V47.2861H59.2663V48.1155H56.3927V49.9083H58.8055V50.6874H56.3927V53.1505H55.5046Z" fill="#DAA10E"/>
<path d="M72.6668 48.3459C73.6028 48.3516 74.3511 49.1017 74.3366 50.0163C74.3251 50.9367 73.5537 51.6868 72.6379 51.6695C71.6875 51.6522 70.9855 50.9367 70.9912 49.9875C70.997 49.0383 71.7106 48.3401 72.6668 48.3459Z" fill="white"/>
<path d="M49.9779 74.2804C49.0361 74.2718 48.3254 73.5447 48.3341 72.5984C48.3427 71.6694 49.1083 70.9135 50.0183 70.9395C50.9341 70.9655 51.6968 71.7444 51.6823 72.6446C51.6708 73.5649 50.9168 74.2891 49.9779 74.2804Z" fill="white"/>
<path d="M48.3341 27.3537C48.3427 26.419 49.0823 25.7121 50.0299 25.7265C50.9601 25.741 51.7083 26.5055 51.6823 27.4172C51.6563 28.3202 50.8561 29.0876 49.9634 29.0703C49.0418 29.0473 48.3254 28.2914 48.3341 27.3537Z" fill="white"/>
<path d="M27.3197 48.3458C28.2586 48.3371 29.0097 49.0555 29.0271 49.9758C29.0444 50.8846 28.2875 51.6578 27.3717 51.6723C26.4473 51.6867 25.6846 50.9481 25.6759 50.0278C25.6644 49.0872 26.3779 48.3544 27.3197 48.3458Z" fill="white"/>
<path d="M70.1109 29.0721C70.579 29.0605 70.9574 29.4154 70.969 29.8741C70.9805 30.3271 70.6078 30.7137 70.1514 30.7223C69.6892 30.731 69.3078 30.3703 69.2934 29.9145C69.2789 29.4587 69.6429 29.0836 70.1109 29.0721Z" fill="#191919"/>
<path d="M70.9686 70.1119C70.9657 70.5707 70.593 70.9342 70.1279 70.9313C69.6599 70.9284 69.2901 70.562 69.293 70.1033C69.2959 69.6445 69.6714 69.2781 70.1337 69.2781C70.593 69.281 70.9714 69.659 70.9686 70.1119Z" fill="#191919"/>
<path d="M29.8417 30.7224C29.3708 30.7109 29.0155 30.3358 29.0328 29.8656C29.0473 29.3953 29.4228 29.0549 29.9053 29.0751C30.3588 29.0953 30.6882 29.4472 30.6853 29.9031C30.6795 30.3791 30.3155 30.734 29.8417 30.7224Z" fill="#191919"/>
<path d="M29.8816 70.9313C29.4021 70.9399 29.0352 70.5908 29.0323 70.1177C29.0265 69.6474 29.3905 69.281 29.8643 69.281C30.3179 69.281 30.6674 69.6214 30.6848 70.0744C30.7021 70.5533 30.3554 70.9226 29.8816 70.9313Z" fill="#191919"/>
<defs>
<linearGradient id="paint0_linear" x1="100" y1="50" x2="3.48559e-07" y2="50" gradientUnits="userSpaceOnUse">
<stop stop-color="#DAA10E" stop-opacity="0.5"/>
<stop offset="0.369792" stop-color="#DAA10E" stop-opacity="0.21875"/>
<stop offset="0.6875" stop-color="#DAA10E" stop-opacity="0"/>
</linearGradient>
</defs>
</svg>
