<svg width="100" height="100" viewBox="0 0 100 100" fill="none" xmlns="http://www.w3.org/2000/svg">
<circle cx="50" cy="50" r="49.5" stroke="black"/>
<circle cx="50" cy="50" r="49.5" stroke="url(#paint0_linear_1504:3526)"/>
<path d="M25.0332 49.4951C25.2471 48.0639 26.3888 46.9712 27.8443 46.7965C29.2416 46.63 30.6444 47.4399 31.1666 48.7656C31.3027 49.1123 31.4527 49.226 31.8222 49.2122C32.6694 49.1817 33.5166 49.1927 34.3639 49.2066C34.6305 49.2122 34.7166 49.1401 34.7389 48.8599C35.0028 45.5207 36.2222 42.5697 38.4195 40.0264C38.5722 39.8489 38.6028 39.7518 38.4167 39.5688C36.2444 37.4138 34.0777 35.2532 31.9194 33.0844C31.7472 32.9124 31.6083 32.8791 31.3722 32.9512C30.0027 33.3728 28.6055 32.599 28.2888 31.2622C27.961 29.8893 28.7971 28.5858 30.1944 28.3001C31.5222 28.0283 32.8027 28.9408 33.0361 30.3275C33.1 30.7047 33.0583 31.0791 32.9194 31.4286C32.8305 31.6505 32.8833 31.7808 33.0416 31.9389C35.2111 34.0967 37.3778 36.2572 39.5361 38.4261C39.7084 38.598 39.8056 38.6175 40 38.451C42.5584 36.2517 45.5223 35.0147 48.8918 34.7734C49.1168 34.7568 49.2001 34.6902 49.1973 34.4572C49.1862 33.5143 49.1779 32.5713 49.2001 31.6283C49.2084 31.3149 48.9946 31.3204 48.8084 31.24C47.6168 30.7241 46.9112 29.8172 46.7918 28.5303C46.6779 27.3044 47.1556 26.2949 48.1807 25.596C49.2557 24.8638 50.414 24.8027 51.5474 25.4323C52.7168 26.0813 53.289 27.1186 53.2029 28.461C53.1196 29.7368 52.464 30.6687 51.2862 31.1734C50.8835 31.3454 50.7751 31.5451 50.7918 31.9556C50.8279 32.7682 50.8112 33.5808 50.7974 34.3934C50.7946 34.6542 50.8612 34.7568 51.1446 34.779C54.4641 35.0175 57.3863 36.2378 59.9169 38.3873C60.1752 38.6064 60.303 38.5897 60.5336 38.3568C62.6419 36.2295 64.7614 34.1133 66.8892 32.0083C67.1058 31.7947 67.142 31.6283 67.0503 31.3426C66.717 30.297 67.1642 29.1738 68.1114 28.6052C69.0586 28.0366 70.242 28.1725 71.0392 28.938C71.8364 29.7063 72.0031 30.9377 71.442 31.8945C70.8864 32.8403 69.7614 33.3173 68.7142 32.9817C68.3642 32.8708 68.192 32.9623 67.9697 33.1898C65.8808 35.2893 63.7864 37.386 61.678 39.4661C61.428 39.713 61.4058 39.835 61.6419 40.1151C63.7614 42.6002 64.9725 45.4735 65.2336 48.7323C65.2614 49.0901 65.3558 49.2344 65.7503 49.2177C66.5808 49.1844 67.4114 49.1927 68.242 49.2149C68.5475 49.2233 68.6836 49.1345 68.8003 48.835C69.3253 47.4787 70.6503 46.6716 72.0781 46.7965C73.4531 46.9157 74.5976 47.9253 74.917 49.2981C75.2893 50.9068 74.3781 52.5237 72.8031 53.0479C71.2087 53.5776 69.4698 52.8232 68.8503 51.2729C68.6892 50.8652 68.4836 50.7903 68.1031 50.8014C67.2892 50.8236 66.4753 50.8236 65.6614 50.8014C65.3586 50.793 65.2697 50.8984 65.2503 51.1813C64.9975 54.5317 63.7503 57.4688 61.5641 60.0149C61.4086 60.1952 61.4225 60.2867 61.5836 60.4448C63.7641 62.6136 65.9419 64.7853 68.1114 66.9652C68.2836 67.1372 68.4225 67.1205 68.6253 67.0595C70.0253 66.6352 71.367 67.3979 71.7142 68.8013C72.0448 70.1381 71.1614 71.4583 69.7559 71.7273C68.0364 72.0546 66.5336 70.3683 67.0586 68.6765C67.1475 68.3908 67.1114 68.2272 66.8947 68.0136C64.7669 65.9085 62.6502 63.7868 60.5363 61.6679C60.3419 61.4737 60.2224 61.3822 59.953 61.6124C57.4141 63.7757 54.4779 65.0044 51.139 65.2457C50.8918 65.2623 50.8001 65.3427 50.8029 65.5951C50.814 66.5215 50.814 67.4478 50.8029 68.3769C50.8001 68.5988 50.9001 68.6765 51.089 68.7569C52.564 69.3726 53.3085 70.5402 53.2029 72.074C53.1002 73.5828 51.8529 74.7643 50.6168 74.9307C50.5946 74.9334 50.5807 74.9778 50.5612 75C50.1696 75 49.7807 75 49.389 75C47.8362 74.7088 46.9084 73.7297 46.6584 72.1156C46.4668 70.8786 47.2612 69.4114 48.5168 68.7985C48.9334 68.5933 49.0946 68.352 49.0751 67.8999C49.0446 67.2342 49.0557 66.5658 49.0723 65.9002C49.0807 65.5452 48.9862 65.3927 48.5862 65.3538C45.5473 65.0515 42.8056 63.9921 40.4111 62.0756C40.3472 62.0257 40.2834 61.973 40.2195 61.9258C39.7445 61.5597 39.725 61.5569 39.2945 61.9868C37.325 63.9504 35.3611 65.9224 33.3833 67.8805C33.0944 68.1661 33.0222 68.4407 33.1111 68.8373C33.4138 70.1464 32.6277 71.4222 31.3333 71.7828C30.0527 72.1405 28.7027 71.4472 28.2582 70.2074C27.9305 69.3005 28.0832 68.4629 28.6944 67.7418C29.3555 66.968 30.1999 66.6185 31.2249 66.9014C31.5277 66.9846 31.7472 66.9236 31.9694 66.7017C34.0139 64.6494 36.0639 62.6025 38.1195 60.564C38.3667 60.3172 38.3806 60.148 38.15 59.8734C36.0805 57.4078 34.9333 54.5511 34.6166 51.3588C34.5833 51.0122 34.4416 50.9179 34.125 50.9234C33.4583 50.9345 32.7888 50.9539 32.1222 50.9179C31.6472 50.8901 31.3944 51.0621 31.186 51.492C30.386 53.1339 28.4694 53.8245 26.8388 53.0562C25.7388 52.5376 24.9999 51.7249 25.0082 50.4186C25.0193 50.0997 24.9693 49.7946 25.0332 49.4951Z" fill="#E0AA3A"/>
<path d="M63.7178 50.0513C63.5456 57.9197 57.3678 63.866 49.5288 63.6719C42.2037 63.4916 35.9759 57.2901 36.2981 49.4134C36.6064 41.9 42.9732 36.0507 50.5121 36.3198C57.6261 36.5749 63.7067 42.402 63.7178 50.0513Z" fill="#191919"/>
<path d="M42.8085 53.4337C42.4756 53.4337 42.1775 53.3558 41.9144 53.2001C41.6512 53.039 41.4418 52.8027 41.286 52.4912C41.1357 52.1797 41.0605 51.7957 41.0605 51.3393C41.0605 50.8828 41.1384 50.4988 41.2941 50.1873C41.4498 49.8758 41.6593 49.6422 41.9224 49.4865C42.1909 49.3254 42.489 49.2448 42.8166 49.2448C43.1227 49.2448 43.3751 49.3039 43.5738 49.422C43.7725 49.5348 43.9202 49.6798 44.0169 49.857V47.537H44.8708V53.337H44.1377L44.0652 52.749H44.0169C43.9095 52.9584 43.7564 53.1249 43.5577 53.2484C43.3644 53.3719 43.1147 53.4337 42.8085 53.4337ZM42.9858 52.6201C43.2919 52.6201 43.5443 52.5127 43.743 52.2979C43.9471 52.0831 44.0491 51.7635 44.0491 51.3393C44.0491 50.9096 43.9471 50.5901 43.743 50.3806C43.5443 50.1658 43.2919 50.0584 42.9858 50.0584C42.6797 50.0584 42.4246 50.1658 42.2205 50.3806C42.0218 50.5955 41.9224 50.9177 41.9224 51.3473C41.9224 51.7716 42.0218 52.0911 42.2205 52.3059C42.4246 52.5154 42.6797 52.6201 42.9858 52.6201ZM45.9229 53.337V47.6981H49.5237V48.4634H46.7768V50.1068H49.2821V50.864H46.7768V52.5718H49.5237V53.337H45.9229ZM51.9372 53.337V48.4634H50.4228V47.6981H54.3056V48.4634H52.7911V53.337H51.9372ZM55.2933 53.337V47.6981H58.9102V48.4956H56.1472V50.2195H58.4672V50.9687H56.1472V53.337H55.2933Z" fill="#E0AA3A"/>
<path d="M71.7948 48.4095C72.6948 48.415 73.4142 49.1363 73.4003 50.0157C73.3892 50.9006 72.6475 51.6219 71.767 51.6052C70.8531 51.5886 70.1781 50.9006 70.1836 49.9879C70.1892 49.0752 70.8753 48.4039 71.7948 48.4095Z" fill="white"/>
<path d="M49.9791 73.3465C49.0735 73.3382 48.3902 72.6391 48.3985 71.7292C48.4068 70.836 49.143 70.1091 50.018 70.1341C50.8985 70.1591 51.6319 70.9081 51.618 71.7736C51.6069 72.6585 50.8819 73.3548 49.9791 73.3465Z" fill="white"/>
<path d="M48.3985 28.2247C48.4068 27.3259 49.118 26.6463 50.0291 26.6601C50.9235 26.674 51.643 27.4091 51.618 28.2857C51.593 29.154 50.8235 29.892 49.9652 29.8753C49.0791 29.8531 48.3902 29.1263 48.3985 28.2247Z" fill="white"/>
<path d="M28.192 48.4094C29.0948 48.4011 29.817 49.0918 29.8337 49.9767C29.8504 50.8506 29.1226 51.5941 28.242 51.6079C27.3531 51.6218 26.6198 50.9116 26.6115 50.0267C26.6003 49.1223 27.2865 48.4177 28.192 48.4094Z" fill="white"/>
<path d="M69.3373 29.877C69.7873 29.8659 70.1512 30.2071 70.1623 30.6482C70.1734 31.0837 69.8151 31.4554 69.3762 31.4638C68.9317 31.4721 68.5651 31.1253 68.5512 30.687C68.5373 30.2487 68.8873 29.8881 69.3373 29.877Z" fill="#191919"/>
<path d="M70.1619 69.3384C70.1591 69.7795 69.8008 70.129 69.3536 70.1262C68.9036 70.1235 68.548 69.7712 68.5508 69.3301C68.5536 68.889 68.9147 68.5367 69.3591 68.5367C69.8008 68.5395 70.1647 68.9029 70.1619 69.3384Z" fill="#191919"/>
<path d="M30.6172 31.4639C30.1645 31.4528 29.8228 31.0921 29.8395 30.64C29.8533 30.1878 30.2145 29.8604 30.6783 29.8798C31.1145 29.8993 31.4311 30.2377 31.4284 30.676C31.4228 31.1337 31.0728 31.475 30.6172 31.4639Z" fill="#191919"/>
<path d="M30.6556 70.1262C30.1945 70.1345 29.8417 69.7989 29.8389 69.3439C29.8334 68.8917 30.1834 68.5394 30.6389 68.5394C31.0751 68.5394 31.4112 68.8668 31.4278 69.3023C31.4445 69.7628 31.1112 70.1179 30.6556 70.1262Z" fill="#191919"/>
<defs>
<linearGradient id="paint0_linear_1504:3526" x1="100" y1="50" x2="3.48559e-07" y2="50" gradientUnits="userSpaceOnUse">
<stop stop-color="#DAA10E" stop-opacity="0.5"/>
<stop offset="0.369792" stop-color="#DAA10E" stop-opacity="0.21875"/>
<stop offset="0.6875" stop-color="#DAA10E" stop-opacity="0"/>
</linearGradient>
</defs>
</svg>
