<svg width="310" height="252" viewBox="0 0 310 252" fill="none" xmlns="http://www.w3.org/2000/svg">
<mask id="mask0" style="mask-type:alpha" maskUnits="userSpaceOnUse" x="0" y="58" width="310" height="195">
<path d="M107.787 58.6606H0V252.176H310V137.417H107.787V58.6606Z" fill="#C4C4C4"/>
</mask>
<g mask="url(#mask0)">
<g clip-path="url(#clip0)">
<path d="M106.401 253.843V199.122C106.401 190.944 112.292 182.396 121.336 179.251L171.558 164.365C175.554 162.975 178.157 159.716 178.157 156.103V154.645H231.774V156.103C231.774 159.716 234.377 162.975 238.373 164.365L288.55 179.251C297.594 182.395 303.485 190.944 303.485 199.121V253.842L106.401 253.843Z" fill="#DAA10E"/>
<path d="M153.952 169.582H134.791V257.979H153.952V169.582Z" fill="#FFC943"/>
<path d="M275.074 169.582H255.913V257.979H275.074V169.582Z" fill="#FFC943"/>
<path d="M231.797 141.448V163.057L205.06 189.675H205.059L178.257 163.057V141.448H231.797Z" fill="#F9BD95"/>
<path d="M309.2 199.751C309.2 188.591 301.401 178.083 290.235 174.199C290.147 174.169 290.059 174.14 289.97 174.113L240.029 159.29C238.683 158.791 237.738 157.862 237.625 156.958V142.141C237.625 141.942 237.614 141.745 237.596 141.551L256.634 130.629C256.744 130.566 256.852 130.499 256.958 130.429C265.696 124.656 271.435 114.375 272.311 102.927C272.323 102.774 272.328 102.62 272.328 102.466V96.2039C281.165 93.5922 287.632 85.3994 287.632 75.7235C287.632 70.6866 285.876 66.0536 282.95 62.3984C285.657 63.2565 288.328 64.1508 290.935 65.1031C291.612 65.3507 292.311 65.4697 293.004 65.4697C294.851 65.4697 296.643 64.62 297.808 63.0886C299.41 60.9829 299.456 58.0782 297.919 55.9236L269.982 16.7466V-12.5124C269.982 -15.0161 268.437 -17.2607 266.099 -18.1538C264.814 -18.6442 234.317 -30.1643 204.8 -30.1643C175.282 -30.1643 144.784 -18.6442 143.5 -18.1538C141.163 -17.2607 139.617 -15.0161 139.617 -12.5124V16.7556L111.807 55.9363C110.276 58.0921 110.326 60.9938 111.929 63.0952C113.532 65.1979 116.317 66.012 118.799 65.1049C121.348 64.1738 123.959 63.2988 126.604 62.4576C123.705 66.1038 121.967 70.7143 121.967 75.7247C121.967 85.4006 128.435 93.594 137.271 96.2052V102.467C137.271 102.621 137.277 102.774 137.289 102.927C138.166 114.423 143.865 124.705 152.531 130.43C152.639 130.502 152.749 130.569 152.862 130.634L172.12 141.649C172.107 141.812 172.095 141.975 172.095 142.142V154.262C172.034 154.607 171.996 154.961 171.996 155.324V156.781C171.996 157.738 171.003 158.759 169.569 159.29L119.585 174.113C119.495 174.14 119.405 174.169 119.317 174.199C108.152 178.083 100.354 188.591 100.354 199.751V252.45H61.7235V193.27H73.1919C84.8407 193.27 94.3179 183.788 94.3179 172.134V89.3777C94.3179 86.0425 91.615 83.339 88.2819 83.339C84.9488 83.339 82.2459 86.0425 82.2459 89.3777V172.134C82.2459 177.129 78.1842 181.192 73.1919 181.192H66.9826V88.8179C66.9826 85.4827 64.2797 82.7792 60.9466 82.7792C57.6135 82.7792 54.9106 85.4827 54.9106 88.8179V181.192H39.6468V88.8179C39.6468 85.4827 36.9439 82.7792 33.6108 82.7792C30.2777 82.7792 27.5748 85.4827 27.5748 88.8179V181.192H21.2823C16.2899 181.192 12.2283 177.129 12.2283 172.134V89.3777C12.2283 86.0425 9.52533 83.339 6.19225 83.339C2.85917 83.339 0.15625 86.0425 0.15625 89.3777V172.134C0.15625 183.788 9.63338 193.27 21.2823 193.27H32.7507V252.45H24.2912C20.9581 252.45 18.2552 255.153 18.2552 258.488V264.527H24.2912H303.164H309.2V258.488C309.2 257.772 309.2 199.751 309.2 199.751ZM297.128 199.751V252.45H280.83V183.998L286.391 185.648C292.52 187.839 297.128 193.879 297.128 199.751ZM204.8 -18.0868C226.219 -18.0868 249.001 -11.2243 257.909 -8.23456V11.0961C248.24 9.16914 229.709 6.38105 203.389 6.38105C177.918 6.38105 160.832 9.00489 151.69 10.9391V-8.23758C160.588 -11.2286 183.334 -18.0868 204.8 -18.0868ZM149.351 23.9031C154.817 22.458 172.723 18.4586 203.389 18.4586C234.386 18.4586 254.267 22.5456 260.313 23.9864L277.604 48.2339C255.406 42.2211 230.613 39.0815 204.866 39.0815C179.096 39.0815 154.283 42.2265 132.069 48.2502L149.351 23.9031ZM149.344 102.226V91.036C149.344 87.7008 146.641 84.9972 143.308 84.9972C138.197 84.9972 134.04 80.8377 134.04 75.7247C134.04 70.6117 138.198 66.4522 143.308 66.4522C146.526 66.4522 149.179 63.9256 149.337 60.7099L149.542 56.5263C166.887 52.9936 185.575 51.1596 204.866 51.1596C224.181 51.1596 242.892 52.9978 260.255 56.539V60.4134C260.255 63.7486 262.958 66.4522 266.291 66.4522C271.402 66.4522 275.559 70.6117 275.559 75.7247C275.559 80.8377 271.401 84.9972 266.291 84.9972C262.958 84.9972 260.255 87.7008 260.255 91.036V102.225C259.616 109.823 255.966 116.535 250.452 120.253L213.743 141.312C213.633 141.375 213.525 141.441 213.419 141.512C208.022 145.077 201.578 145.077 196.181 141.512C196.073 141.44 195.964 141.372 195.851 141.308L159.034 120.252C153.593 116.579 149.986 109.868 149.344 102.226ZM189.7 151.702C194.366 154.739 199.583 156.257 204.8 156.257C210.018 156.257 215.236 154.738 219.903 151.7L225.552 148.459V154.88C225.541 155.027 225.53 155.174 225.53 155.324V156.781C225.53 156.96 225.545 157.137 225.552 157.316V161.218L204.887 181.8L184.168 161.214V148.539L189.7 151.702ZM173.16 170.822C173.249 170.796 173.339 170.767 173.427 170.736C174.207 170.465 174.951 170.144 175.661 169.783L200.639 194.599C201.816 195.769 203.354 196.353 204.893 196.353C206.433 196.353 207.973 195.767 209.151 194.594L234.023 169.823C234.708 170.167 235.423 170.475 236.172 170.736C236.26 170.767 236.349 170.795 236.437 170.822L268.758 180.415V252.45H261.7V209.964C261.7 206.629 258.997 203.925 255.664 203.925C252.331 203.925 249.628 206.629 249.628 209.964V252.45H159.9V209.964C159.9 206.629 157.197 203.925 153.864 203.925C150.531 203.925 147.828 206.629 147.828 209.964V252.45H140.77V180.428L173.16 170.822ZM112.426 199.751C112.426 193.879 117.033 187.839 123.162 185.649L128.698 184.007V252.45H112.426V199.751ZM44.8227 252.45V193.27H49.6515V252.45H44.8227Z" fill="black"/>
<path d="M229.923 82.6139C233.7 82.6139 236.774 79.5404 236.774 75.7625C236.774 71.9847 233.7 68.9111 229.923 68.9111C226.145 68.9111 223.071 71.9847 223.071 75.7625C223.071 79.5404 226.145 82.6139 229.923 82.6139Z" fill="black"/>
<path d="M180.01 68.9111C176.232 68.9111 173.158 71.9847 173.158 75.7625C173.158 79.5404 176.232 82.6139 180.01 82.6139C183.787 82.6139 186.861 79.5404 186.861 75.7625C186.861 71.9847 183.787 68.9111 180.01 68.9111Z" fill="black"/>
<path d="M153.95 197.293C157.288 197.293 159.995 194.587 159.995 191.248V191.163C159.995 187.824 157.288 185.117 153.95 185.117C150.611 185.117 147.904 187.824 147.904 191.163V191.248C147.904 194.587 150.611 197.293 153.95 197.293Z" fill="black"/>
<path d="M255.91 197.293C259.248 197.293 261.955 194.587 261.955 191.248V191.163C261.955 187.824 259.248 185.117 255.91 185.117C252.571 185.117 249.864 187.824 249.864 191.163V191.248C249.864 194.587 252.571 197.293 255.91 197.293Z" fill="black"/>
<path d="M214.922 112.455C217.466 110.292 217.775 106.477 215.612 103.934C213.551 101.508 209.986 101.115 207.453 102.958C207.252 103.051 206.465 103.362 204.967 103.362C203.532 103.362 202.78 103.078 202.575 102.987C200.072 101.135 196.528 101.481 194.44 103.862C192.237 106.372 192.486 110.191 194.995 112.394C195.813 113.111 198.948 115.453 204.967 115.453C210.933 115.452 214.096 113.158 214.922 112.455Z" fill="black"/>
</g>
</g>
<path d="M163.604 184.169L163.043 184.275L159.119 181.298C155.966 178.888 153.443 175.805 151.692 172.297C149.976 168.824 149.03 164.926 149.03 160.886C149.03 156.527 150.151 152.275 152.219 148.519L149.872 146.145C144.862 141.077 142.024 134.166 142.024 126.973C142.024 118.432 145.982 110.387 152.744 105.25L156.037 102.769L156.632 102.698C157.578 110.14 159.75 117.369 163.077 124.102L177.055 152.381L179.716 157.802C182.099 162.657 185.778 166.627 190.191 169.356C194.57 172.119 199.72 173.643 205.079 173.643C215.798 173.643 225.642 167.513 230.442 157.802L233.103 152.381L247.081 124.102C250.408 117.369 252.58 110.14 253.526 102.698L254.121 102.769L257.414 105.25C264.175 110.387 268.133 118.432 268.133 126.973C268.133 134.166 265.296 141.077 260.286 146.145L257.939 148.519C260.007 152.275 261.127 156.527 261.127 160.886C261.127 164.926 260.181 168.824 258.466 172.297C256.714 175.805 254.191 178.888 251.039 181.298L247.115 184.275L246.554 184.169C245.925 186.932 244.698 189.485 243.017 191.646C240.424 195.011 236.746 197.529 232.438 198.626C223.61 200.86 215.343 204.828 208.091 210.321L205.079 212.625L202.067 210.321C194.814 204.828 186.548 200.86 177.72 198.626C173.411 197.529 169.734 195.011 167.141 191.646C165.459 189.485 164.233 186.932 163.604 184.169Z" fill="#E6E9ED"/>
<path d="M289.151 60.2437L290.061 60.6693C288.906 63.0779 287.329 65.2755 285.473 67.1546C281.025 71.6552 274.928 74.4186 268.133 74.4186H251.283C250.477 71.7954 249.568 69.2085 248.445 66.6926C248.025 65.7011 247.57 64.7079 247.081 63.7164L245.714 60.9531L247.115 60.2437H289.151Z" fill="#B27946"/>
<path d="M292.655 49.6123C292.655 53.6163 291.745 57.3383 290.061 60.6692L289.152 60.2435H247.115L249.288 58.046C252.37 54.9279 254.121 50.6748 254.121 46.2451L261.127 46.2105L289.152 46.0686C291.077 46.0686 292.655 47.664 292.655 49.6123Z" fill="#B27946"/>
<path d="M164.443 60.9531L163.076 63.7164C162.587 64.7079 162.132 65.7011 161.711 66.6926C160.589 69.2085 159.679 71.7954 158.874 74.4186H142.024C135.228 74.4186 129.132 71.6552 124.683 67.1546C122.827 65.2755 121.25 63.0779 120.096 60.6693L121.006 60.2437H163.042L164.443 60.9531Z" fill="#B27946"/>
<path d="M163.042 60.2436H121.006L120.096 60.6692C118.413 57.3383 117.503 53.6164 117.503 49.6123C117.503 47.664 119.08 46.0686 121.006 46.0686L149.03 46.2105L156.036 46.2451C156.036 50.6748 157.788 54.9279 160.87 58.046L163.042 60.2436Z" fill="#B27946"/>
<path d="M278.642 23.9204C278.642 27.4988 277.732 30.9369 276.014 33.9495C274.333 36.962 271.916 39.5488 268.868 41.3553L261.127 46.0688V46.2106L254.121 46.2453C254.121 39.6907 250.303 33.7003 244.347 31.0425L238.602 28.4556L246.028 28.3501C251.002 28.3501 255.521 25.5158 257.728 21.0498C258.64 19.1724 259.095 17.1513 259.095 15.132C259.095 12.5452 258.359 9.99292 256.922 7.79712L254.121 3.54395H258.499C269.64 3.54395 278.642 12.6507 278.642 23.9204Z" fill="#E6E9ED"/>
<path d="M218.566 102.769L222.594 85.0499H230.967C238.883 85.0499 246.239 81.0459 250.618 74.4187H251.284C253.141 80.6912 254.121 87.282 254.121 93.9092C254.121 96.8508 253.947 99.7924 253.526 102.698C252.58 110.14 250.408 117.369 247.081 124.102L233.103 152.381V138.206C233.103 134.307 229.951 131.118 226.097 131.118H212.085L215.307 116.944L218.566 102.769Z" fill="#CF9E76"/>
<path d="M245.714 60.9532L247.08 63.7166C247.569 64.708 248.024 65.7013 248.445 66.6927L247.114 67.3312L222.593 74.4187L212.154 21.5811C221.297 22.3614 230.23 24.6645 238.601 28.4557L244.347 31.0426C250.303 33.7004 254.12 39.6908 254.12 46.2453C254.12 50.675 252.369 54.9282 249.287 58.0462L247.114 60.2438L245.714 60.9532Z" fill="#CF9E76"/>
<path d="M251.283 74.4186H250.618C246.239 81.0458 238.882 85.0498 230.966 85.0498H222.594V74.4186L247.115 67.3311L248.446 66.6926C249.568 69.2085 250.478 71.7954 251.283 74.4186Z" fill="#656D78"/>
<path d="M233.103 152.381L230.442 157.802C225.642 167.513 215.798 173.644 205.079 173.644C199.72 173.644 194.57 172.119 190.191 169.356C185.778 166.627 182.099 162.658 179.716 157.802L177.055 152.381V138.206C177.055 134.308 180.207 131.119 184.061 131.119H226.097C229.951 131.119 233.103 134.308 233.103 138.206V152.381Z" fill="#838F9B"/>
<path d="M221.788 88.5939L218.566 102.769H191.592L187.563 85.0502V74.419L198.002 21.5813C200.349 21.3685 202.696 21.2629 205.079 21.2629C207.461 21.2629 209.808 21.3685 212.155 21.5813L222.594 74.419V85.0502L221.788 88.5939Z" fill="#F0B90B"/>
<path d="M218.566 102.768L215.307 116.943H194.85L191.592 102.768H218.566Z" fill="#F0B90B"/>
<path d="M215.307 116.944L212.084 131.119H198.072L194.85 116.944H215.307Z" fill="#F0B90B"/>
<path d="M194.85 116.944L198.072 131.118H184.06C180.207 131.118 177.054 134.307 177.054 138.206V152.381L163.076 124.102C159.75 117.369 157.577 110.14 156.631 102.698C156.211 99.7924 156.036 96.8508 156.036 93.9092C156.036 87.282 157.016 80.6912 158.874 74.4187H159.539C163.918 81.0459 171.275 85.0499 179.191 85.0499H187.563L191.592 102.769L194.85 116.944Z" fill="#CF9E76"/>
<path d="M164.443 60.9532L163.042 60.2438L160.87 58.0462C157.788 54.9282 156.036 50.675 156.036 46.2453C156.036 39.6908 159.854 33.7004 165.81 31.0426L171.555 28.4557C179.926 24.6645 188.86 22.3614 198.002 21.5811L187.563 74.4187L163.042 67.3312L161.711 66.6927C162.132 65.7013 162.587 64.708 163.076 63.7166L164.443 60.9532Z" fill="#CF9E76"/>
<path d="M187.564 74.4186V85.0498H179.191C171.275 85.0498 163.918 81.0458 159.539 74.4186H158.874C159.68 71.7954 160.59 69.2085 161.712 66.6926L163.042 67.3311L187.564 74.4186Z" fill="#656D78"/>
<path d="M171.555 28.4556L165.809 31.0425C159.854 33.7003 156.036 39.6907 156.036 46.2453L149.03 46.2106V46.0688L141.288 41.3553C138.24 39.5488 135.823 36.962 134.142 33.9495C132.425 30.9369 131.515 27.4988 131.515 23.9204C131.515 12.6507 140.517 3.54395 151.657 3.54395H156.036L153.234 7.79712C151.797 9.99292 151.062 12.5452 151.062 15.132C151.062 17.1513 151.517 19.1724 152.428 21.0498C154.635 25.5158 159.154 28.3501 164.128 28.3501L171.555 28.4556Z" fill="#E6E9ED"/>
<path d="M296.157 49.6296C296.157 47.7314 295.425 45.9474 294.094 44.6082C292.771 43.2758 291.019 42.5421 289.148 42.5421C289.137 42.5421 289.127 42.5421 289.117 42.5421L273.213 42.62C278.786 38.1228 282.145 31.2067 282.145 23.9098C282.145 10.7229 271.545 0 258.51 0H247.573L254.001 9.75566C255.9 12.6367 256.129 16.3552 254.598 19.4559C252.968 22.754 249.689 24.8062 245.991 24.8062L239.264 24.9048C228.413 20.1463 216.918 17.7187 205.079 17.7187C193.235 17.7187 181.741 20.1463 170.89 24.9048L164.118 24.8062C160.468 24.8062 157.189 22.754 155.559 19.4559C154.025 16.3552 154.254 12.6401 156.156 9.75566L162.584 0H151.647C138.612 0 128.012 10.7229 128.012 23.9098C128.012 31.2067 131.371 38.1263 136.944 42.62L121.037 42.5421C121.027 42.5421 121.016 42.5421 121.006 42.5421C119.138 42.5421 117.387 43.2758 116.063 44.6082C114.732 45.9474 114 47.7314 114 49.6296C114 65.2546 126.562 77.9622 142.007 77.9622H154.345C153.152 83.1895 152.533 88.5501 152.533 93.909C152.533 96.1844 152.67 98.4598 152.887 100.727L150.648 102.424C143.054 108.186 138.521 117.362 138.521 126.969C138.521 135.162 141.674 142.866 147.405 148.66L148.024 149.287C146.449 152.941 145.527 156.885 145.527 160.885C145.527 169.982 149.822 178.675 157.016 184.136L160.749 186.963C163.179 194.296 169.138 200.1 176.887 202.06C185.28 204.184 193.039 207.918 199.957 213.166L205.079 217.054L210.2 213.166C217.119 207.918 224.881 204.18 233.27 202.06C241.019 200.096 246.978 194.296 249.409 186.963L253.141 184.132C260.335 178.675 264.63 169.982 264.63 160.885C264.63 156.885 263.708 152.941 262.136 149.287L262.755 148.66C268.484 142.866 271.636 135.162 271.636 126.969C271.636 117.365 267.103 108.189 259.509 102.427L257.27 100.73C257.487 98.4598 257.624 96.1844 257.624 93.909C257.624 88.5501 257.005 83.1895 255.813 77.9622H268.15C283.596 77.9622 296.157 65.2546 296.157 49.6296ZM289.151 49.6296C289.151 52.1109 288.706 54.4849 287.928 56.6998H254.682C255.96 54.5732 256.856 52.2493 257.284 49.7853L289.151 49.6296ZM250.618 93.909C250.618 103.796 248.305 113.694 243.937 122.536L236.536 137.508C236.175 131.976 231.656 127.574 226.097 127.574H216.487L225.378 88.5934H230.98C237.885 88.5934 244.4 85.946 249.347 81.3225C250.17 85.4684 250.618 89.6852 250.618 93.909ZM246.473 71.2C246.716 71.8489 246.947 72.5047 247.171 73.1605C243.391 78.3879 237.418 81.5059 230.984 81.5059H226.044L226.08 77.097L246.473 71.2ZM200.861 127.574L199.243 120.487H210.915L209.297 127.574H200.861ZM212.529 113.4H197.624L196.006 106.312H214.144L212.529 113.4ZM184.081 81.5059H179.174C172.736 81.5059 166.763 78.3879 162.982 73.1605C163.203 72.5047 163.434 71.8489 163.68 71.2L184.107 77.1039L184.081 81.5059ZM160.81 81.3225C165.757 85.946 172.272 88.5934 179.174 88.5934H184.859L193.673 127.574H184.06C178.501 127.574 173.982 131.976 173.622 137.508L166.22 122.536C161.852 113.694 159.539 103.796 159.539 93.909C159.539 89.6852 159.987 85.4684 160.81 81.3225ZM180.557 138.206C180.557 136.254 182.131 134.662 184.06 134.662H226.097C228.026 134.662 229.6 136.254 229.6 138.206V151.541L227.291 156.208C223.059 164.777 214.548 170.099 205.079 170.099C195.61 170.099 187.098 164.777 182.867 156.212L180.557 151.541V138.206ZM260.867 22.6225C263.277 17.7464 263.173 11.9843 260.665 7.2259C268.819 8.29871 275.139 15.3689 275.139 23.9098C275.139 29.7809 272.047 35.3093 267.064 38.3322L259.89 42.6875L257.277 42.7013C256.478 38.2163 254.222 34.1552 250.885 31.16C255.164 29.8449 258.79 26.8255 260.867 22.6225ZM242.923 34.278C247.596 36.3839 250.618 41.0817 250.618 46.2572C250.618 49.7144 249.294 52.964 246.901 55.428L243.244 48.0239L236.977 51.1956L243.626 64.6524L225.224 69.9715L216.52 25.6609C223.617 26.7061 230.532 28.7115 237.177 31.6981L242.923 34.278ZM209.233 24.9152L219.091 74.7697V84.6465L219 85.0497H208.582V92.1371H217.382L215.762 99.2246H194.392L192.772 92.1371H201.576V85.0497H191.157L191.067 84.6465V74.7697L200.924 24.9152C202.304 24.8408 203.688 24.8062 205.079 24.8062C206.469 24.8062 207.853 24.8408 209.233 24.9152ZM193.631 25.6609L184.873 69.9576L166.532 64.6559L173.18 51.2008L166.913 48.029L163.256 55.4314C160.863 52.964 159.539 49.7144 159.539 46.2606C159.539 41.0869 162.558 36.3839 167.235 34.2815L172.984 31.6981C179.622 28.7115 186.537 26.7061 193.631 25.6609ZM143.093 38.3288C138.111 35.3059 135.018 29.7809 135.018 23.9098C135.018 15.3723 141.338 8.29871 149.492 7.22936C146.985 11.9878 146.875 17.7464 149.29 22.6259C151.37 26.8324 155.003 29.8553 159.269 31.1634C155.935 34.1586 153.679 38.2197 152.88 42.7013L150.267 42.6875L143.093 38.3288ZM152.874 49.7853C153.301 52.2493 154.198 54.5732 155.475 56.6998H122.229C121.451 54.4849 121.006 52.1109 121.006 49.6296L152.874 49.7853ZM142.007 70.8747C135.807 70.8747 130.241 68.1252 126.394 63.7872H159.185C158.118 66.0973 157.172 68.4609 156.354 70.8747H142.007ZM264.63 126.969C264.63 132.93 262.437 138.534 258.476 142.898L253.42 136.079L247.816 140.332L253.279 147.704C256.083 151.481 257.624 156.161 257.624 160.885C257.624 167.097 254.957 173.037 250.443 177.173C250.057 173.451 248.842 169.876 246.771 166.736L243.023 161.048L237.194 164.979L240.942 170.667C242.687 173.318 243.612 176.399 243.612 179.585C243.612 186.975 238.658 193.393 231.572 195.186C222.272 197.539 213.665 201.681 205.997 207.501L205.079 208.194L204.16 207.501C196.492 201.681 187.885 197.539 178.585 195.186C171.499 193.388 166.545 186.975 166.545 179.585C166.545 176.399 167.471 173.318 169.215 170.667L172.963 164.979L167.134 161.048L163.386 166.736C161.315 169.88 160.097 173.451 159.714 177.176C155.2 173.034 152.533 167.094 152.533 160.885C152.533 156.161 154.074 151.481 156.878 147.704L162.341 140.332L156.738 136.079L151.681 142.898C147.72 138.534 145.527 132.925 145.527 126.969C145.527 119.909 148.736 113.183 154.114 108.729C155.354 114.607 157.297 120.335 159.953 125.704L176.596 159.38C182.025 170.366 192.941 177.187 205.079 177.187C217.216 177.187 228.132 170.366 233.558 159.38L250.201 125.704C252.857 120.335 254.8 114.604 256.04 108.729C261.421 113.18 264.63 119.909 264.63 126.969ZM250.972 63.7872H283.763C279.916 68.1252 274.351 70.8747 268.15 70.8747H253.803C252.985 68.4609 252.036 66.0973 250.972 63.7872Z" fill="black"/>
<path d="M215.588 145.293H222.594V152.381H215.588V145.293Z" fill="black"/>
<path d="M187.563 145.293H194.57V152.381H187.563V145.293Z" fill="black"/>
<defs>
<clipPath id="clip0">
<rect width="309.53" height="309.53" fill="white" transform="translate(0 -45.0029)"/>
</clipPath>
</defs>
</svg>
