<svg width="52" height="48" viewBox="0 0 52 48" fill="none" xmlns="http://www.w3.org/2000/svg">
<path d="M11.8954 5.02406C11.8056 4.47691 11.4698 4.26268 10.9343 4.27136C10.141 4.28294 9.3449 4.27136 8.55167 4.27426C7.73238 4.27715 7.50368 4.50875 7.50368 5.33093C7.50368 10.4522 7.50078 15.5763 7.51236 20.6976C7.51236 21.0218 7.41393 21.2042 7.1447 21.3895C3.02511 24.2179 0.642529 28.1001 0.0953712 33.0853C0.086689 33.1548 0.0808945 33.2185 0.00273132 33.2416C0.00273132 33.783 0.00273132 34.3244 0.00273132 34.8657C0.231434 35.2826 0.587521 35.436 1.05362 35.4013C1.40681 35.3752 1.76868 35.4389 2.11898 35.3868C2.66034 35.3058 2.77903 35.5605 2.83404 36.0382C3.53173 42.1611 8.05373 46.7989 14.1622 47.6761C19.7322 48.4751 25.3571 45.4527 27.7513 40.3431C27.9482 39.9204 28.174 39.7959 28.6227 39.8046C30.4321 39.8306 32.2444 39.8249 34.0537 39.8075C34.3953 39.8046 34.5025 39.903 34.543 40.2504C35.0583 44.6103 39.1518 47.9772 43.532 47.8035C48.0858 47.6211 52.0288 43.846 51.9998 38.8666C51.9709 34.1449 51.9998 29.426 51.9912 24.7043C51.9883 22.5533 50.7897 20.9552 48.7545 20.4081C47.831 20.1591 46.8699 20.2489 45.9261 20.2691C45.5324 20.2778 45.4629 20.1562 45.4629 19.7915C45.4803 17.2033 45.4716 14.6152 45.4716 12.0242C45.4716 10.4117 44.9129 9.70528 43.3438 9.39262C43.0253 9.32893 43.1353 9.13207 43.1353 8.98153C43.1267 7.52534 43.1325 6.07205 43.1296 4.61587C43.1267 3.4984 42.7879 2.52568 41.905 1.78745C41.0075 1.03765 39.9566 0.916057 38.8507 1.04054C38.4281 1.08686 38.2283 1.39373 38.2254 1.77877C38.2225 2.14354 38.4252 2.40988 38.8102 2.50831C39.1287 2.58937 39.45 2.54305 39.7685 2.55463C40.802 2.60095 41.5315 3.27259 41.5547 4.31189C41.5894 5.90125 41.5663 7.4935 41.5749 9.08285C41.5749 9.2855 41.5344 9.36367 41.3028 9.38683C39.7714 9.54316 39.0592 10.3451 39.0563 11.891C39.0505 14.5139 39.0476 17.1367 39.065 19.7596C39.0679 20.1446 38.9897 20.2778 38.5728 20.2691C37.1195 20.2402 35.6634 20.2489 34.2072 20.2662C33.8887 20.2691 33.7816 20.1649 33.7005 19.8667C32.751 16.3146 31.7869 12.7653 30.8113 9.21892C30.71 8.85125 30.7679 8.76151 31.1529 8.77019C32.2183 8.79335 33.2837 8.78177 34.3519 8.77598C35.0641 8.77309 35.3304 8.50385 35.3362 7.79168C35.342 6.94634 35.342 6.101 35.3362 5.25277C35.3304 4.5406 35.0699 4.27715 34.3519 4.27426C27.87 4.27136 21.391 4.27426 14.9091 4.27136C14.4112 4.27136 14.0493 4.42769 13.9711 4.97774C13.8872 5.47858 14.1014 5.79992 14.6109 5.93309C14.8917 6.00547 15.1812 5.9852 15.4707 5.9852C21.171 5.9852 26.8712 5.9852 32.5715 5.9852C32.7394 5.9852 32.9102 5.98231 33.0781 5.9881C33.5732 6.00547 33.6513 6.08363 33.6484 6.54394C33.6455 6.99556 33.5674 7.07951 33.0607 7.07951C30.2352 7.0853 27.4126 7.08241 24.5871 7.08241C19.8161 7.08241 15.048 7.08241 10.2771 7.08241C10.1237 7.08241 9.97311 7.0853 9.81968 7.08241C9.287 7.06793 9.22041 6.98687 9.19725 6.51499C9.17699 6.06337 9.42017 5.97941 9.79652 5.98231C10.251 5.9881 10.7113 6.02573 11.163 5.94178C11.7391 5.84045 11.9794 5.52779 11.8954 5.02406Z" fill="black"/>
<path d="M11.8952 5.0241C11.7447 5.63205 11.5363 5.80575 10.9109 5.81733C10.4043 5.82602 9.8948 5.82891 9.38817 5.81444C9.13052 5.80575 9.04078 5.88392 9.03209 6.15605C8.98866 7.24167 8.97998 7.24167 10.0627 7.24167C17.7808 7.24167 25.496 7.23588 33.2111 7.25325C33.712 7.25325 33.8422 7.12008 33.8162 6.63372C33.7757 5.81733 33.8046 5.81733 32.9651 5.81733C26.9927 5.81733 21.0174 5.81733 15.045 5.81733C14.2923 5.81733 14.0636 5.63495 13.971 4.97778C13.2819 5.09069 12.5872 5.00384 11.8952 5.0241Z" fill="#A46B04"/>
<path d="M15.8874 46.2459C22.2998 46.2865 27.5455 41.006 27.5224 34.6196C27.4992 28.3085 22.4793 23.0136 15.9076 23.0107C9.3852 23.0078 4.26973 28.2304 4.27263 34.6515C4.27842 41.0842 9.52127 46.272 15.8874 46.2459Z" fill="#4D4D4D"/>
<path d="M12.0022 19.2154C13.7624 18.813 15.5139 18.6364 17.303 18.8043C19.3469 18.9982 21.2807 19.5367 23.1017 20.4776C23.4433 20.6542 23.7791 20.7324 24.1612 20.7295C25.8519 20.715 27.5397 20.7237 29.3057 20.7237C28.9612 19.4412 28.6456 18.2745 28.33 17.1049C27.8813 15.4432 27.4268 13.7844 26.9897 12.1197C26.9086 11.8158 26.7899 11.7 26.4483 11.7C21.7613 11.7144 17.0772 11.7115 12.3902 11.7086C12.1412 11.7086 11.953 11.6826 11.9559 12.0589C11.9762 14.3605 11.9646 16.6591 11.9675 18.9606C11.9704 19.0359 11.9907 19.1169 12.0022 19.2154Z" fill="#9FD8F1"/>
<path d="M43.2016 31.8144C39.3629 31.7941 35.9902 34.8686 35.9815 39.0316C35.9757 43.1396 39.3194 46.2807 43.2509 46.2489C47.2199 46.2199 50.4999 42.9659 50.4536 39.0056C50.4073 34.941 47.1215 31.7825 43.2016 31.8144Z" fill="#4D4D4D"/>
<path d="M30.2582 35.9803C30.3276 33.6412 30.0931 31.3512 29.1609 29.1771C27.5484 25.4165 24.8503 22.7675 21.0434 21.2477C19.4048 20.5934 17.691 20.2749 15.9453 20.2836C12.4799 20.3039 9.37651 21.3982 6.70442 23.6389C4.42027 25.5525 2.88302 27.9496 2.07532 30.8156C1.82635 31.6957 1.67002 32.5903 1.60343 33.5051C1.58027 33.8235 1.68739 33.8901 1.95662 33.8554C1.98847 33.8496 2.02321 33.8554 2.05795 33.8554C2.76723 33.8583 2.76722 33.8583 2.83091 33.1606C3.31727 27.8888 7.40791 23.1381 12.6015 21.8903C17.3783 20.7439 21.5963 21.8903 25.1369 25.2717C27.2792 27.3185 28.5298 29.8805 28.9351 32.8305C29.1638 34.5068 29.1001 36.1714 28.6717 37.8099C28.579 38.166 28.6833 38.2442 29.0249 38.25C30.2524 38.2674 30.2524 38.276 30.2524 37.0486C30.2581 36.6925 30.2582 36.3364 30.2582 35.9803Z" fill="#A46B04"/>
<path d="M41.0222 10.9993C40.7095 11.1209 40.6111 11.3641 40.6111 11.6797C40.614 14.4096 40.614 17.1396 40.6082 19.8696C40.6082 20.1475 40.6864 20.2662 40.9788 20.2546C41.5346 20.2344 42.0904 20.2402 42.6463 20.2373C42.8258 20.0462 42.8113 19.803 42.8113 19.5656C42.8142 17.0151 42.8142 14.4646 42.8113 11.9141C42.8113 11.7607 42.8026 11.6102 42.7795 11.4596C42.7245 11.1151 42.5739 10.9038 42.1744 10.9472C41.7952 10.9935 41.4043 10.9038 41.0222 10.9993Z" fill="#4D4D4D"/>
<path d="M41.0226 10.9993C41.3931 10.9993 41.7666 11.0283 42.1371 10.9936C42.4845 10.9617 42.5801 11.1615 42.6351 11.4249C42.6582 11.5378 42.6524 11.6594 42.6524 11.7781C42.6524 14.5978 42.6524 17.4176 42.6495 20.2373C43.9639 20.2778 43.9639 20.2778 43.9639 18.9838C43.9639 16.7054 43.9639 14.427 43.9639 12.1487C43.9639 11.1122 43.7612 10.8951 42.719 10.9096C42.1516 10.9212 41.5784 10.7851 41.0226 10.9993Z" fill="#2E2E2E"/>
<path fill-rule="evenodd" clip-rule="evenodd" d="M32.4557 28.0567C32.4528 28.6096 32.6496 28.9686 33.2084 29.0873C33.2084 29.0874 33.2084 29.0874 33.2084 29.0875V29.0873C33.2258 29.0873 33.2424 29.0866 33.2591 29.0859C33.2747 29.0852 33.2903 29.0845 33.3065 29.0844L33.3068 29.0815C33.8453 28.9165 34.0161 28.5315 34.0103 27.9988C34.0024 27.2922 34.0095 26.5856 34.0165 25.879C34.0198 25.5579 34.023 25.2368 34.0248 24.9156C34.2206 24.7421 34.4545 24.7447 34.6831 24.7473C34.7215 24.7477 34.7598 24.7481 34.7978 24.7477C38.1154 24.7448 41.4302 24.7448 44.7479 24.7477L44.8174 24.7474H44.8174C45.0141 24.7464 45.2102 24.7453 45.3993 24.823C45.6147 25.0093 45.5222 25.1886 45.4347 25.3583C45.4093 25.4074 45.3843 25.4558 45.3674 25.5033C44.6379 27.5385 45.7698 29.5881 47.8629 29.9934C48.7053 30.1556 49.0035 29.9211 49.0064 29.0815C49.0077 28.4363 49.0073 27.7916 49.007 27.1472V27.1471C49.0065 26.2881 49.006 25.4296 49.0093 24.5711C49.0098 24.5297 49.009 24.4881 49.0082 24.4464C49.0042 24.252 49.0003 24.0572 49.1338 23.8879C49.4381 23.9337 49.4093 24.1748 49.3874 24.3573L49.3828 24.3974C49.322 24.9475 49.5073 25.3499 49.9936 25.6133C50.0359 25.6358 50.0674 25.6746 50.0971 25.7112C50.1324 25.7547 50.1651 25.7952 50.2107 25.8015C50.2533 25.5919 50.2395 25.3784 50.2257 25.1654C50.2039 24.8282 50.1822 24.4921 50.3844 24.1745C50.3963 24.208 50.392 24.2474 50.3881 24.2837C50.3862 24.3008 50.3844 24.3172 50.3844 24.332C50.3873 27.5368 50.4395 33.9306 50.4395 33.9306C50.4197 33.9282 50.4047 33.9278 50.3933 33.9275H50.3933C50.378 33.9272 50.3692 33.9269 50.3642 33.922L50.3588 33.9161L50.3588 33.9161C50.2939 33.8455 50.2264 33.7722 50.1644 33.6961C48.4332 31.5191 46.1867 30.3698 43.3959 30.2685C39.0563 30.1121 35.0728 33.4848 34.5343 37.7955C34.5299 37.8305 34.5279 37.8674 34.5259 37.9046C34.5161 38.0857 34.5061 38.2706 34.213 38.2442C33.9439 38.2193 33.9733 38.0461 33.9991 37.8942L33.9991 37.8942C34.0063 37.8516 34.0132 37.8107 34.0132 37.7752C34.0016 35.9137 33.9958 34.0551 34.0103 32.1936C34.0132 31.659 33.843 31.2773 33.3098 31.1089V31.1109C33.2927 31.1095 33.2757 31.1088 33.2591 31.1081L33.259 31.1081C33.2416 31.1073 33.2247 31.1066 33.2084 31.1051V31.1C32.6259 31.228 32.4528 31.6184 32.4586 32.1821C32.4692 33.3303 32.4679 34.4774 32.4666 35.6247C32.4658 36.3548 32.465 37.0851 32.4672 37.8157C32.4672 38.0821 32.4557 38.2645 32.0996 38.2587C31.7808 38.2561 31.787 38.0834 31.7937 37.8988C31.7946 37.8722 31.7956 37.8453 31.7956 37.8186C31.7946 37.4356 31.7959 37.0522 31.7972 36.6687C31.7998 35.9016 31.8024 35.134 31.7869 34.3678C31.7059 30.4248 30.322 26.9913 27.7165 24.0355C27.4597 23.743 27.1814 23.4727 26.9005 23.1997C26.5892 22.8973 26.2746 22.5917 25.9824 22.2493C27.0338 22.202 28.0771 22.1962 29.1184 22.1905C29.4793 22.1885 29.8399 22.1865 30.2005 22.1827C30.8779 22.174 31.1732 21.7659 31.014 21.1087L31.0139 21.1085C30.9908 21.0102 30.9676 20.9118 30.9416 20.8134C30.0702 17.5884 29.1959 14.3604 28.3216 11.1354C28.0871 10.2669 27.9597 10.1656 27.0565 10.1656H11.6261C10.6013 10.1656 10.4276 10.3393 10.4276 11.3786C10.4276 12.0344 10.4278 12.69 10.428 13.3456C10.4285 15.3118 10.429 17.2772 10.4247 19.2443C10.4247 19.2815 10.4281 19.3205 10.4315 19.3598C10.4455 19.5194 10.46 19.6858 10.251 19.7741C10.0745 19.8484 9.89866 19.9233 9.72006 19.9994C9.50898 20.0893 9.29408 20.1808 9.06984 20.2749C9.06431 20.2263 9.05878 20.1869 9.05406 20.1533C9.04642 20.0989 9.04089 20.0595 9.04089 20.0202C9.04089 19.2962 9.04112 18.5721 9.04136 17.848C9.04228 14.9524 9.04321 12.0558 9.02931 9.16102C9.02669 8.76496 9.21417 8.76813 9.45613 8.77223C9.48123 8.77265 9.50692 8.77309 9.53304 8.77309C15.8934 8.77598 22.2566 8.77888 28.6169 8.7644C29.0251 8.7644 29.1525 8.90626 29.2509 9.27103C30.2699 13.0895 31.3035 16.8994 32.3399 20.7121C32.4238 21.0247 32.4643 21.3374 32.4643 21.6616C32.462 22.5139 32.4625 23.3667 32.463 24.2196C32.4637 25.4988 32.4643 26.7783 32.4557 28.0567Z" fill="#DAA10E"/>
<path d="M49.1737 23.9023C49.1997 23.9805 49.2663 24.0644 49.2489 24.131C49.0173 25.0864 49.5819 25.6046 50.3838 26.0851C50.3838 25.4309 50.3838 24.8056 50.3838 24.1802C50.2738 22.7646 49.0984 21.8034 47.4396 21.8005C43.7542 21.7948 40.0718 21.7976 36.3865 21.7976C35.7119 21.7976 35.0345 21.8063 34.36 21.7948C34.111 21.789 33.9923 21.8469 33.9981 22.1277C34.0183 23.057 34.0155 23.9863 34.0241 24.9127C37.8455 24.9127 41.6669 24.9127 45.4854 24.9127C45.7547 24.93 45.8444 24.6898 45.9834 24.5421C46.435 24.0586 46.9735 23.7431 47.6046 23.5491C48.2125 23.3667 48.7336 23.416 49.1737 23.9023Z" fill="#F0B90B"/>
<path d="M15.9247 43.1078C20.5306 43.2034 24.4244 39.243 24.4013 34.5936C24.3781 29.9819 20.5278 26.0939 15.8465 26.1286C11.1624 26.1634 7.40471 29.9819 7.40181 34.6978C7.40181 39.3443 11.3303 43.2207 15.9247 43.1078Z" fill="black"/>
<path d="M47.8398 38.9998C47.8253 36.4898 45.8683 34.3967 43.2223 34.3938C40.6168 34.388 38.5555 36.4464 38.5903 39.0924C38.625 41.7037 40.6747 43.6868 43.2368 43.6694C45.8886 43.652 47.8485 41.5676 47.8398 38.9998Z" fill="black"/>
<path d="M49.1743 23.9024C48.9949 23.4045 48.6301 23.2742 48.1321 23.3263C46.9973 23.4421 46.152 24.0211 45.489 24.9156C44.8608 26.1171 44.7624 27.3243 45.4832 28.5228C46.0912 29.5303 47.0002 30.0803 48.1669 30.1846C48.8704 30.2453 49.183 29.9703 49.1859 29.2697C49.1917 27.4777 49.1801 25.6915 49.1743 23.9024Z" fill="black"/>
<path d="M38.8333 25.2428C38.3093 25.2428 37.7882 25.2312 37.2642 25.2457C36.6649 25.2631 36.3436 25.5526 36.3464 26.0302C36.3493 26.5108 36.6649 26.7916 37.2757 26.8003C38.3208 26.8148 39.3659 26.8148 40.4139 26.8003C41.0508 26.7916 41.3722 26.4963 41.3548 25.9926C41.3374 25.5207 41.0103 25.2544 40.4023 25.2428C39.8783 25.2341 39.3544 25.2428 38.8333 25.2428Z" fill="#010100"/>
<path d="M38.8184 27.6803C38.2944 27.6803 37.7733 27.6659 37.2493 27.6832C36.653 27.7035 36.3345 27.9988 36.3432 28.4794C36.3548 28.9397 36.6587 29.2234 37.2377 29.2321C38.3176 29.2494 39.3974 29.2494 40.4744 29.2321C41.0505 29.2205 41.3486 28.9339 41.3515 28.4649C41.3544 27.9843 41.0331 27.6977 40.4338 27.6803C39.8983 27.6688 39.3569 27.6803 38.8184 27.6803Z" fill="#010100"/>
<path d="M38.8098 22.811C38.2858 22.811 37.7647 22.7965 37.2407 22.8138C36.6674 22.8341 36.3548 23.1091 36.3432 23.5665C36.3287 24.0471 36.6501 24.3569 37.2436 24.3685C38.3234 24.3858 39.4032 24.3887 40.4802 24.3685C41.0476 24.3569 41.3516 24.0587 41.3516 23.5926C41.3516 23.1265 41.0476 22.8399 40.4773 22.8196C39.9243 22.7965 39.3685 22.811 38.8098 22.811Z" fill="#010100"/>
<path d="M15.9334 41.585C19.7895 41.559 22.8785 38.4324 22.8553 34.5849C22.8293 30.7519 19.6593 27.6224 15.8379 27.6659C12.002 27.7093 8.89564 30.8764 8.93617 34.7065C8.9767 38.525 12.1149 41.6111 15.9334 41.585Z" fill="#2E2E2E"/>
<path d="M43.1039 35.9456C41.3437 36.044 40.0149 37.4915 40.122 39.1966C40.2292 40.8671 41.668 42.2074 43.2776 42.1351C45.0783 42.054 46.4071 40.5949 46.3029 38.8203C46.2044 37.173 44.7367 35.8558 43.1039 35.9456Z" fill="#2E2E2E"/>
<path d="M47.6172 28.4591C47.6172 27.2924 47.6172 26.2039 47.6172 25.0633C46.879 25.4194 46.546 26.0071 46.5345 26.7366C46.5229 27.4893 46.8761 28.0799 47.6172 28.4591Z" fill="#F0B90B"/>
<path d="M15.89 38.3165C17.8933 38.3223 19.5782 36.649 19.5869 34.6399C19.5956 32.6481 17.9136 30.9603 15.9044 30.9517C13.9098 30.9401 12.2133 32.625 12.2046 34.6254C12.1988 36.6172 13.8895 38.3108 15.89 38.3165Z" fill="black"/>
<path d="M13.7736 34.6833C13.8228 35.879 14.836 36.8633 15.9882 36.7764C17.1549 36.6896 18.0524 35.8413 18.0379 34.5617C18.0234 33.3314 17.0073 32.4745 15.7393 32.5208C14.6247 32.5642 13.7273 33.5514 13.7736 34.6833Z" fill="#DAA10E"/>
</svg>
