<svg width="100" height="100" viewBox="0 0 100 100" fill="none" xmlns="http://www.w3.org/2000/svg">
<circle cx="50" cy="50" r="49.5" stroke="black"/>
<circle cx="50" cy="50" r="49.5" stroke="url(#paint0_linear)"/>
<path d="M35.8954 31.0241C35.8056 30.4769 35.4698 30.2627 34.9343 30.2714C34.141 30.2829 33.3449 30.2714 32.5517 30.2743C31.7324 30.2772 31.5037 30.5088 31.5037 31.3309C31.5037 36.4522 31.5008 41.5763 31.5124 46.6976C31.5124 47.0218 31.4139 47.2042 31.1447 47.3895C27.0251 50.2179 24.6425 54.1001 24.0954 59.0853C24.0867 59.1548 24.0809 59.2185 24.0027 59.2416C24.0027 59.783 24.0027 60.3244 24.0027 60.8657C24.2314 61.2826 24.5875 61.436 25.0536 61.4013C25.4068 61.3752 25.7687 61.4389 26.119 61.3868C26.6603 61.3058 26.779 61.5605 26.834 62.0382C27.5317 68.1611 32.0537 72.7989 38.1622 73.6761C43.7322 74.4751 49.3571 71.4527 51.7513 66.3431C51.9482 65.9204 52.174 65.7959 52.6227 65.8046C54.4321 65.8306 56.2444 65.8249 58.0537 65.8075C58.3953 65.8046 58.5025 65.903 58.543 66.2504C59.0583 70.6103 63.1518 73.9772 67.532 73.8035C72.0858 73.6211 76.0288 69.846 75.9998 64.8666C75.9709 60.1449 75.9998 55.426 75.9912 50.7043C75.9883 48.5533 74.7897 46.9552 72.7545 46.4081C71.831 46.1591 70.8699 46.2489 69.9261 46.2691C69.5324 46.2778 69.4629 46.1562 69.4629 45.7915C69.4803 43.2033 69.4716 40.6152 69.4716 38.0242C69.4716 36.4117 68.9129 35.7053 67.3438 35.3926C67.0253 35.3289 67.1353 35.1321 67.1353 34.9815C67.1267 33.5253 67.1325 32.0721 67.1296 30.6159C67.1267 29.4984 66.7879 28.5257 65.905 27.7875C65.0075 27.0376 63.9566 26.9161 62.8507 27.0405C62.4281 27.0869 62.2283 27.3937 62.2254 27.7788C62.2225 28.1435 62.4252 28.4099 62.8102 28.5083C63.1287 28.5894 63.45 28.543 63.7685 28.5546C64.802 28.6009 65.5315 29.2726 65.5547 30.3119C65.5894 31.9012 65.5663 33.4935 65.5749 35.0829C65.5749 35.2855 65.5344 35.3637 65.3028 35.3868C63.7714 35.5432 63.0592 36.3451 63.0563 37.891C63.0505 40.5139 63.0476 43.1367 63.065 45.7596C63.0679 46.1446 62.9897 46.2778 62.5728 46.2691C61.1195 46.2402 59.6634 46.2489 58.2072 46.2662C57.8887 46.2691 57.7816 46.1649 57.7005 45.8667C56.751 42.3146 55.7869 38.7653 54.8113 35.2189C54.71 34.8513 54.7679 34.7615 55.1529 34.7702C56.2183 34.7934 57.2837 34.7818 58.3519 34.776C59.0641 34.7731 59.3304 34.5039 59.3362 33.7917C59.342 32.9463 59.342 32.101 59.3362 31.2528C59.3304 30.5406 59.0699 30.2772 58.3519 30.2743C51.87 30.2714 45.391 30.2743 38.9091 30.2714C38.4112 30.2714 38.0493 30.4277 37.9711 30.9777C37.8872 31.4786 38.1014 31.7999 38.6109 31.9331C38.8917 32.0055 39.1812 31.9852 39.4707 31.9852C45.171 31.9852 50.8712 31.9852 56.5715 31.9852C56.7394 31.9852 56.9102 31.9823 57.0781 31.9881C57.5732 32.0055 57.6513 32.0836 57.6484 32.5439C57.6455 32.9956 57.5674 33.0795 57.0607 33.0795C54.2352 33.0853 51.4126 33.0824 48.5871 33.0824C43.8161 33.0824 39.048 33.0824 34.2771 33.0824C34.1237 33.0824 33.9731 33.0853 33.8197 33.0824C33.287 33.0679 33.2204 32.9869 33.1973 32.515C33.177 32.0634 33.4202 31.9794 33.7965 31.9823C34.251 31.9881 34.7113 32.0257 35.163 31.9418C35.7391 31.8405 35.9794 31.5278 35.8954 31.0241Z" fill="black"/>
<path d="M35.8952 31.0241C35.7447 31.6321 35.5363 31.8058 34.9109 31.8173C34.4043 31.826 33.8948 31.8289 33.3882 31.8144C33.1305 31.8058 33.0408 31.8839 33.0321 32.156C32.9887 33.2417 32.98 33.2417 34.0627 33.2417C41.7808 33.2417 49.496 33.2359 57.2111 33.2533C57.712 33.2533 57.8422 33.1201 57.8162 32.6337C57.7757 31.8173 57.8046 31.8173 56.9651 31.8173C50.9927 31.8173 45.0174 31.8173 39.045 31.8173C38.2923 31.8173 38.0636 31.6349 37.971 30.9778C37.2819 31.0907 36.5872 31.0038 35.8952 31.0241Z" fill="#A46B04"/>
<path d="M39.8874 72.2459C46.2998 72.2865 51.5455 67.006 51.5224 60.6196C51.4992 54.3085 46.4793 49.0136 39.9076 49.0107C33.3852 49.0078 28.2697 54.2304 28.2726 60.6515C28.2784 67.0842 33.5213 72.272 39.8874 72.2459Z" fill="#4D4D4D"/>
<path d="M36.0022 45.2154C37.7624 44.813 39.5139 44.6364 41.303 44.8043C43.3469 44.9982 45.2807 45.5367 47.1017 46.4776C47.4433 46.6542 47.7791 46.7324 48.1612 46.7295C49.8519 46.715 51.5397 46.7237 53.3057 46.7237C52.9612 45.4412 52.6456 44.2745 52.33 43.1049C51.8813 41.4432 51.4268 39.7844 50.9897 38.1197C50.9086 37.8158 50.7899 37.7 50.4483 37.7C45.7613 37.7144 41.0772 37.7115 36.3902 37.7086C36.1412 37.7086 35.953 37.6826 35.9559 38.0589C35.9762 40.3605 35.9646 42.6591 35.9675 44.9606C35.9704 45.0359 35.9907 45.1169 36.0022 45.2154Z" fill="#9FD8F1"/>
<path d="M67.2016 57.8144C63.3629 57.7941 59.9902 60.8686 59.9815 65.0316C59.9757 69.1396 63.3194 72.2807 67.2509 72.2489C71.2199 72.2199 74.4999 68.9659 74.4536 65.0056C74.4073 60.941 71.1215 57.7825 67.2016 57.8144Z" fill="#4D4D4D"/>
<path d="M54.2582 61.9803C54.3276 59.6412 54.0931 57.3512 53.1609 55.1771C51.5484 51.4165 48.8503 48.7675 45.0434 47.2477C43.4048 46.5934 41.691 46.2749 39.9453 46.2836C36.4799 46.3039 33.3765 47.3982 30.7044 49.6389C28.4203 51.5525 26.883 53.9496 26.0753 56.8156C25.8263 57.6957 25.67 58.5903 25.6034 59.5051C25.5803 59.8235 25.6874 59.8901 25.9566 59.8554C25.9885 59.8496 26.0232 59.8554 26.0579 59.8554C26.7672 59.8583 26.7672 59.8583 26.8309 59.1606C27.3173 53.8888 31.4079 49.1381 36.6015 47.8903C41.3783 46.7439 45.5963 47.8903 49.1369 51.2717C51.2792 53.3185 52.5298 55.8805 52.9351 58.8305C53.1638 60.5068 53.1001 62.1714 52.6717 63.8099C52.579 64.166 52.6833 64.2442 53.0249 64.25C54.2524 64.2674 54.2524 64.276 54.2524 63.0486C54.2581 62.6925 54.2582 62.3364 54.2582 61.9803Z" fill="#A46B04"/>
<path d="M65.0222 36.9993C64.7095 37.1209 64.6111 37.3641 64.6111 37.6797C64.614 40.4096 64.614 43.1396 64.6082 45.8696C64.6082 46.1475 64.6864 46.2662 64.9788 46.2546C65.5346 46.2344 66.0904 46.2402 66.6463 46.2373C66.8258 46.0462 66.8113 45.803 66.8113 45.5656C66.8142 43.0151 66.8142 40.4646 66.8113 37.9141C66.8113 37.7607 66.8026 37.6102 66.7795 37.4596C66.7245 37.1151 66.5739 36.9038 66.1744 36.9472C65.7952 36.9935 65.4043 36.9038 65.0222 36.9993Z" fill="#4D4D4D"/>
<path d="M65.0226 36.9993C65.3931 36.9993 65.7666 37.0283 66.1371 36.9936C66.4845 36.9617 66.5801 37.1615 66.6351 37.4249C66.6582 37.5378 66.6524 37.6594 66.6524 37.7781C66.6524 40.5978 66.6524 43.4176 66.6495 46.2373C67.9639 46.2778 67.9639 46.2778 67.9639 44.9838C67.9639 42.7054 67.9639 40.427 67.9639 38.1487C67.9639 37.1122 67.7612 36.8951 66.719 36.9096C66.1516 36.9212 65.5784 36.7851 65.0226 36.9993Z" fill="#2E2E2E"/>
<path fill-rule="evenodd" clip-rule="evenodd" d="M56.4557 54.0567C56.4528 54.6096 56.6496 54.9686 57.2084 55.0873C57.2084 55.0874 57.2084 55.0874 57.2084 55.0875V55.0873C57.2258 55.0873 57.2424 55.0866 57.2591 55.0859C57.2747 55.0852 57.2903 55.0845 57.3065 55.0844L57.3068 55.0815C57.8453 54.9165 58.0161 54.5315 58.0103 53.9988C58.0024 53.2922 58.0095 52.5856 58.0165 51.879C58.0198 51.5579 58.023 51.2368 58.0248 50.9156C58.2206 50.7421 58.4545 50.7447 58.6831 50.7473C58.7215 50.7477 58.7598 50.7481 58.7978 50.7477C62.1154 50.7448 65.4302 50.7448 68.7479 50.7477L68.8174 50.7474H68.8174C69.0141 50.7464 69.2102 50.7453 69.3993 50.823C69.6147 51.0093 69.5222 51.1886 69.4347 51.3583C69.4093 51.4074 69.3843 51.4558 69.3674 51.5033C68.6379 53.5385 69.7698 55.5881 71.8629 55.9934C72.7053 56.1556 73.0035 55.9211 73.0064 55.0815C73.0077 54.4363 73.0073 53.7916 73.007 53.1472V53.1471C73.0065 52.2881 73.006 51.4296 73.0093 50.5711C73.0098 50.5297 73.009 50.4881 73.0082 50.4464C73.0042 50.252 73.0003 50.0572 73.1338 49.8879C73.4381 49.9337 73.4093 50.1748 73.3874 50.3573L73.3828 50.3974C73.322 50.9475 73.5073 51.3499 73.9936 51.6133C74.0359 51.6358 74.0674 51.6746 74.0971 51.7112C74.1324 51.7547 74.1651 51.7952 74.2107 51.8015C74.2533 51.5919 74.2395 51.3784 74.2257 51.1654C74.2039 50.8282 74.1822 50.4921 74.3844 50.1745C74.3963 50.208 74.392 50.2474 74.3881 50.2837C74.3862 50.3008 74.3844 50.3172 74.3844 50.332C74.3873 53.5368 74.4395 59.9306 74.4395 59.9306C74.4197 59.9282 74.4047 59.9278 74.3933 59.9275H74.3933C74.378 59.9272 74.3692 59.9269 74.3642 59.922L74.3588 59.9161L74.3588 59.9161C74.2939 59.8455 74.2264 59.7722 74.1644 59.6961C72.4332 57.5191 70.1867 56.3698 67.3959 56.2685C63.0563 56.1121 59.0728 59.4848 58.5343 63.7955C58.5299 63.8305 58.5279 63.8674 58.5259 63.9046C58.5161 64.0857 58.5061 64.2706 58.213 64.2442C57.9439 64.2193 57.9733 64.0461 57.9991 63.8942L57.9991 63.8942C58.0063 63.8516 58.0132 63.8107 58.0132 63.7752C58.0016 61.9137 57.9958 60.0551 58.0103 58.1936C58.0132 57.659 57.843 57.2773 57.3098 57.1089V57.1109C57.2927 57.1095 57.2757 57.1088 57.2591 57.1081L57.259 57.1081C57.2416 57.1073 57.2247 57.1066 57.2084 57.1051V57.1C56.6259 57.228 56.4528 57.6184 56.4586 58.1821C56.4692 59.3303 56.4679 60.4774 56.4666 61.6247C56.4658 62.3548 56.465 63.0851 56.4672 63.8157C56.4672 64.0821 56.4557 64.2645 56.0996 64.2587C55.7808 64.2561 55.787 64.0834 55.7937 63.8988C55.7946 63.8722 55.7956 63.8453 55.7956 63.8186C55.7946 63.4356 55.7959 63.0522 55.7972 62.6687C55.7998 61.9016 55.8024 61.134 55.7869 60.3678C55.7059 56.4248 54.322 52.9913 51.7165 50.0355C51.4597 49.743 51.1814 49.4727 50.9005 49.1997C50.5892 48.8973 50.2746 48.5917 49.9824 48.2493C51.0338 48.202 52.0771 48.1962 53.1184 48.1905C53.4793 48.1885 53.8399 48.1865 54.2005 48.1827C54.8779 48.174 55.1732 47.7659 55.014 47.1087L55.0139 47.1085C54.9908 47.0102 54.9676 46.9118 54.9416 46.8134C54.0702 43.5884 53.1959 40.3604 52.3216 37.1354C52.0871 36.2669 51.9597 36.1656 51.0565 36.1656H35.6261C34.6013 36.1656 34.4276 36.3393 34.4276 37.3786C34.4276 38.0346 34.4278 38.6905 34.428 39.3462C34.4285 41.3122 34.429 43.2775 34.4247 45.2443C34.4247 45.2815 34.4281 45.3205 34.4315 45.3598C34.4455 45.5194 34.46 45.6858 34.251 45.7741C34.0745 45.8484 33.8987 45.9233 33.7201 45.9994C33.509 46.0893 33.2941 46.1808 33.0698 46.2749C33.0643 46.2263 33.0588 46.1869 33.0541 46.1533C33.0464 46.0989 33.0409 46.0595 33.0409 46.0202C33.0409 45.2964 33.0411 44.5725 33.0414 43.8485C33.0423 40.9528 33.0432 38.056 33.0293 35.161C33.0267 34.765 33.2142 34.7681 33.4561 34.7722C33.4812 34.7727 33.5069 34.7731 33.533 34.7731C39.8934 34.776 46.2566 34.7789 52.6169 34.7644C53.0251 34.7644 53.1525 34.9063 53.2509 35.271C54.2699 39.0895 55.3035 42.8994 56.3399 46.7121C56.4238 47.0247 56.4643 47.3374 56.4643 47.6616C56.462 48.5139 56.4625 49.3667 56.463 50.2196C56.4637 51.4988 56.4643 52.7783 56.4557 54.0567Z" fill="#DAA10E"/>
<path d="M73.1737 49.9023C73.1997 49.9805 73.2663 50.0644 73.2489 50.131C73.0173 51.0864 73.5819 51.6046 74.3838 52.0851C74.3838 51.4309 74.3838 50.8056 74.3838 50.1802C74.2738 48.7646 73.0984 47.8034 71.4396 47.8005C67.7542 47.7948 64.0718 47.7976 60.3865 47.7976C59.7119 47.7976 59.0345 47.8063 58.36 47.7948C58.111 47.789 57.9923 47.8469 57.9981 48.1277C58.0183 49.057 58.0155 49.9863 58.0241 50.9127C61.8455 50.9127 65.6669 50.9127 69.4854 50.9127C69.7547 50.93 69.8444 50.6898 69.9834 50.5421C70.435 50.0586 70.9735 49.7431 71.6046 49.5491C72.2125 49.3667 72.7336 49.416 73.1737 49.9023Z" fill="#F0B90B"/>
<path d="M39.9247 69.1078C44.5306 69.2034 48.4244 65.243 48.4013 60.5936C48.3781 55.9819 44.5278 52.0939 39.8465 52.1286C35.1624 52.1634 31.4047 55.9819 31.4018 60.6978C31.4018 65.3443 35.3303 69.2207 39.9247 69.1078Z" fill="black"/>
<path d="M71.8398 64.9998C71.8253 62.4898 69.8683 60.3967 67.2223 60.3938C64.6168 60.388 62.5555 62.4464 62.5903 65.0924C62.625 67.7037 64.6747 69.6868 67.2368 69.6694C69.8886 69.652 71.8485 67.5676 71.8398 64.9998Z" fill="black"/>
<path d="M73.1743 49.9024C72.9949 49.4045 72.6301 49.2742 72.1321 49.3263C70.9973 49.4421 70.152 50.0211 69.489 50.9156C68.8608 52.1171 68.7624 53.3243 69.4832 54.5228C70.0912 55.5303 71.0002 56.0803 72.1669 56.1846C72.8704 56.2453 73.183 55.9703 73.1859 55.2697C73.1917 53.4777 73.1801 51.6915 73.1743 49.9024Z" fill="black"/>
<path d="M62.8333 51.2428C62.3093 51.2428 61.7882 51.2312 61.2642 51.2457C60.6649 51.2631 60.3436 51.5526 60.3464 52.0302C60.3493 52.5108 60.6649 52.7916 61.2757 52.8003C62.3208 52.8148 63.3659 52.8148 64.4139 52.8003C65.0508 52.7916 65.3722 52.4963 65.3548 51.9926C65.3374 51.5207 65.0103 51.2544 64.4023 51.2428C63.8783 51.2341 63.3544 51.2428 62.8333 51.2428Z" fill="#010100"/>
<path d="M62.8184 53.6803C62.2944 53.6803 61.7733 53.6659 61.2493 53.6832C60.653 53.7035 60.3345 53.9988 60.3432 54.4794C60.3548 54.9397 60.6587 55.2234 61.2377 55.2321C62.3176 55.2494 63.3974 55.2494 64.4744 55.2321C65.0505 55.2205 65.3486 54.9339 65.3515 54.4649C65.3544 53.9843 65.0331 53.6977 64.4338 53.6803C63.8983 53.6688 63.3569 53.6803 62.8184 53.6803Z" fill="#010100"/>
<path d="M62.8098 48.811C62.2858 48.811 61.7647 48.7965 61.2407 48.8138C60.6674 48.8341 60.3548 49.1091 60.3432 49.5665C60.3287 50.0471 60.6501 50.3569 61.2436 50.3685C62.3234 50.3858 63.4032 50.3887 64.4802 50.3685C65.0476 50.3569 65.3516 50.0587 65.3516 49.5926C65.3516 49.1265 65.0476 48.8399 64.4773 48.8196C63.9243 48.7965 63.3685 48.811 62.8098 48.811Z" fill="#010100"/>
<path d="M39.9334 67.585C43.7895 67.559 46.8785 64.4324 46.8553 60.5849C46.8293 56.7519 43.6593 53.6224 39.8379 53.6659C36.002 53.7093 32.8956 56.8764 32.9362 60.7065C32.9767 64.525 36.1149 67.6111 39.9334 67.585Z" fill="#2E2E2E"/>
<path d="M67.1039 61.9456C65.3437 62.044 64.0149 63.4915 64.122 65.1966C64.2292 66.8671 65.668 68.2074 67.2776 68.1351C69.0783 68.054 70.4071 66.5949 70.3029 64.8203C70.2044 63.173 68.7367 61.8558 67.1039 61.9456Z" fill="#2E2E2E"/>
<path d="M71.6172 54.4591C71.6172 53.2924 71.6172 52.2039 71.6172 51.0633C70.879 51.4194 70.546 52.0071 70.5345 52.7366C70.5229 53.4893 70.8761 54.0799 71.6172 54.4591Z" fill="#F0B90B"/>
<path d="M39.89 64.3165C41.8933 64.3223 43.5782 62.649 43.5869 60.6399C43.5956 58.6481 41.9136 56.9603 39.9044 56.9517C37.9098 56.9401 36.2133 58.625 36.2046 60.6254C36.1988 62.6172 37.8895 64.3108 39.89 64.3165Z" fill="black"/>
<path d="M37.7736 60.6833C37.8228 61.879 38.836 62.8633 39.9883 62.7764C41.1549 62.6896 42.0524 61.8413 42.0379 60.5617C42.0234 59.3314 41.0073 58.4745 39.7393 58.5208C38.6247 58.5642 37.7273 59.5514 37.7736 60.6833Z" fill="#DAA10E"/>
<defs>
<linearGradient id="paint0_linear" x1="100" y1="50" x2="3.48559e-07" y2="50" gradientUnits="userSpaceOnUse">
<stop stop-color="#DAA10E" stop-opacity="0.5"/>
<stop offset="0.369792" stop-color="#DAA10E" stop-opacity="0.21875"/>
<stop offset="0.6875" stop-color="#DAA10E" stop-opacity="0"/>
</linearGradient>
</defs>
</svg>
