<svg width="80" height="78" viewBox="0 0 80 78" fill="none" xmlns="http://www.w3.org/2000/svg">
<path d="M26.7581 62.8055C26.7581 63.1281 26.3871 63.3861 25.9194 63.3861C25.3871 63.4345 25.0161 63.1764 25.0161 62.8055C25.0161 62.4829 25.3871 62.2248 25.8548 62.2248C26.3387 62.1765 26.7581 62.4345 26.7581 62.8055ZM21.7419 62.0797C21.629 62.4023 21.9516 62.7732 22.4355 62.87C22.8548 63.0313 23.3387 62.87 23.4355 62.5474C23.5323 62.2248 23.2258 61.8539 22.7419 61.7087C22.3226 61.5958 21.8548 61.7571 21.7419 62.0797ZM28.871 61.8055C28.4032 61.9184 28.0806 62.2248 28.129 62.5958C28.1774 62.9184 28.5968 63.1281 29.0806 63.0152C29.5484 62.9023 29.871 62.5958 29.8226 62.2732C29.7742 61.9668 29.3387 61.7571 28.871 61.8055ZM39.4839 0C17.1129 0 0 16.9836 0 39.3542C0 57.2411 11.2581 72.5473 27.3387 77.9343C29.4032 78.3053 30.129 77.0311 30.129 75.9827C30.129 74.9827 30.0806 69.4667 30.0806 66.0796C30.0806 66.0796 18.7903 68.4989 16.4194 61.2733C16.4194 61.2733 14.5806 56.5798 11.9355 55.3701C11.9355 55.3701 8.24193 52.8379 12.1935 52.8863C12.1935 52.8863 16.2097 53.2089 18.4194 57.0475C21.9516 63.2732 27.871 61.4829 30.1774 60.4184C30.5484 57.8378 31.5968 56.0475 32.7581 54.983C23.7419 53.983 14.6452 52.6766 14.6452 37.1607C14.6452 32.7253 15.871 30.4995 18.4516 27.6609C18.0323 26.6125 16.6613 22.29 18.871 16.7094C22.2419 15.661 30 21.0642 30 21.0642C33.2258 20.161 36.6935 19.6932 40.129 19.6932C43.5645 19.6932 47.0323 20.161 50.2581 21.0642C50.2581 21.0642 58.0161 15.6449 61.3871 16.7094C63.5968 22.3061 62.2258 26.6125 61.8064 27.6609C64.3871 30.5157 65.9677 32.7414 65.9677 37.1607C65.9677 52.725 56.4677 53.9669 47.4516 54.983C48.9355 56.2572 50.1936 58.6765 50.1936 62.4668C50.1936 67.9022 50.1452 74.6279 50.1452 75.9504C50.1452 76.9988 50.8871 78.273 52.9355 77.902C69.0645 72.5473 80 57.2411 80 39.3542C80 16.9836 61.8548 0 39.4839 0ZM15.6774 55.6282C15.4677 55.7895 15.5161 56.1604 15.7903 56.4669C16.0484 56.7249 16.4194 56.8378 16.629 56.6282C16.8387 56.4669 16.7903 56.0959 16.5161 55.7895C16.2581 55.5314 15.8871 55.4185 15.6774 55.6282ZM13.9355 54.3217C13.8226 54.5314 13.9839 54.7895 14.3065 54.9508C14.5645 55.1121 14.8871 55.0637 15 54.8379C15.1129 54.6282 14.9516 54.3701 14.629 54.2088C14.3065 54.1121 14.0484 54.1605 13.9355 54.3217ZM19.1613 60.0636C18.9032 60.2733 19 60.7571 19.371 61.0636C19.7419 61.4345 20.2097 61.4829 20.4194 61.2249C20.629 61.0152 20.5323 60.5313 20.2097 60.2249C19.8548 59.8539 19.371 59.8055 19.1613 60.0636ZM17.3226 57.6927C17.0645 57.854 17.0645 58.2733 17.3226 58.6443C17.5806 59.0152 18.0161 59.1765 18.2258 59.0152C18.4839 58.8055 18.4839 58.3862 18.2258 58.0152C18 57.6443 17.5806 57.483 17.3226 57.6927Z" fill="#DAA10E"/>
</svg>
