<svg width="200" height="100" viewBox="0 0 200 100" fill="none" xmlns="http://www.w3.org/2000/svg">
<path d="M29.1663 91.6666H16.6663C14.4562 91.6666 12.3366 90.7887 10.7738 89.2259C9.21098 87.6631 8.33301 85.5434 8.33301 83.3333V54.1666C8.33301 51.9565 9.21098 49.8369 10.7738 48.2741C12.3366 46.7113 14.4562 45.8333 16.6663 45.8333H29.1663M58.333 37.5V20.8333C58.333 17.5181 57.016 14.3387 54.6718 11.9945C52.3276 9.65027 49.1482 8.33331 45.833 8.33331L29.1663 45.8333V91.6666H76.1663C78.176 91.6894 80.1262 90.985 81.6576 89.6833C83.189 88.3817 84.1983 86.5704 84.4997 84.5833L90.2497 47.0833C90.431 45.889 90.3504 44.6695 90.0136 43.5094C89.6768 42.3492 89.0918 41.2762 88.2991 40.3646C87.5064 39.453 86.525 38.7247 85.4229 38.2301C84.3208 37.7354 83.1243 37.4863 81.9163 37.5H58.333Z" stroke="#DAA10E" stroke-width="5" stroke-linecap="round" stroke-linejoin="round"/>
<path d="M170.833 8.33335H181.958C184.316 8.29165 186.608 9.11725 188.397 10.6534C190.187 12.1896 191.35 14.3294 191.666 16.6667V45.8334C191.35 48.1706 190.187 50.3104 188.397 51.8466C186.608 53.3828 184.316 54.2084 181.958 54.1667H170.833M141.666 62.5V79.1667C141.666 82.4819 142.983 85.6613 145.327 88.0055C147.672 90.3497 150.851 91.6667 154.166 91.6667L170.833 54.1667V8.33335H123.833C121.823 8.31063 119.873 9.015 118.342 10.3167C116.81 11.6183 115.801 13.4296 115.5 15.4167L109.75 52.9167C109.568 54.111 109.649 55.3305 109.986 56.4906C110.323 57.6508 110.908 58.7238 111.7 59.6354C112.493 60.547 113.474 61.2753 114.576 61.77C115.679 62.2646 116.875 62.5137 118.083 62.5H141.666Z" stroke="#4D4D4D" stroke-width="5" stroke-linecap="round" stroke-linejoin="round"/>
</svg>
