<svg width="200" height="100" viewBox="0 0 200 100" fill="none" xmlns="http://www.w3.org/2000/svg">
<path d="M29.1673 91.6666H16.6673C14.4572 91.6666 12.3376 90.7887 10.7748 89.2259C9.21196 87.6631 8.33398 85.5434 8.33398 83.3333V54.1666C8.33398 51.9565 9.21196 49.8369 10.7748 48.2741C12.3376 46.7113 14.4572 45.8333 16.6673 45.8333H29.1673M58.334 37.5V20.8333C58.334 17.5181 57.017 14.3387 54.6728 11.9945C52.3286 9.65027 49.1492 8.33331 45.834 8.33331L29.1673 45.8333V91.6666H76.1673C78.177 91.6894 80.1272 90.985 81.6586 89.6833C83.19 88.3817 84.1993 86.5704 84.5007 84.5833L90.2506 47.0833C90.4319 45.889 90.3514 44.6695 90.0146 43.5094C89.6778 42.3492 89.0927 41.2762 88.3001 40.3646C87.5074 39.453 86.526 38.7247 85.4239 38.2301C84.3217 37.7354 83.1253 37.4863 81.9173 37.5H58.334Z" stroke="#E0AA3A" stroke-width="5" stroke-linecap="round" stroke-linejoin="round"/>
<path d="M170.834 8.33335H181.959C184.317 8.29165 186.609 9.11725 188.398 10.6534C190.188 12.1896 191.351 14.3294 191.667 16.6667V45.8334C191.351 48.1706 190.188 50.3104 188.398 51.8466C186.609 53.3828 184.317 54.2084 181.959 54.1667H170.834M141.667 62.5V79.1667C141.667 82.4819 142.984 85.6613 145.328 88.0055C147.673 90.3497 150.852 91.6667 154.167 91.6667L170.834 54.1667V8.33335H123.834C121.824 8.31063 119.874 9.015 118.343 10.3167C116.811 11.6183 115.802 13.4296 115.501 15.4167L109.751 52.9167C109.569 54.111 109.65 55.3305 109.987 56.4906C110.324 57.6508 110.909 58.7238 111.701 59.6354C112.494 60.547 113.475 61.2753 114.577 61.77C115.68 62.2646 116.876 62.5137 118.084 62.5H141.667Z" stroke="#4D4D4D" stroke-width="5" stroke-linecap="round" stroke-linejoin="round"/>
</svg>
