<svg width="20" height="18" viewBox="0 0 20 18" fill="none" xmlns="http://www.w3.org/2000/svg">
<path d="M4.47679 18H0.330357V5.98232H4.47679V18ZM2.40134 4.343C1.07545 4.343 0 3.35458 0 2.16125C9.49017e-09 1.58805 0.252998 1.03833 0.703336 0.633017C1.15367 0.227703 1.76446 0 2.40134 0C3.03821 0 3.649 0.227703 4.09934 0.633017C4.54968 1.03833 4.80268 1.58805 4.80268 2.16125C4.80268 3.35458 3.72679 4.343 2.40134 4.343ZM19.9955 18H15.858V12.1499C15.858 10.7556 15.8268 8.96766 13.7022 8.96766C11.5464 8.96766 11.2161 10.4824 11.2161 12.0494V18H7.07411V5.98232H11.0509V7.62164H11.1089C11.6625 6.67743 13.0147 5.68097 15.0321 5.68097C19.2286 5.68097 20 8.16808 20 11.3985V18H19.9955Z" fill="#9F9F9F"/>
</svg>
