<svg width="100" height="100" viewBox="0 0 100 100" fill="none" xmlns="http://www.w3.org/2000/svg">
<circle cx="50" cy="50" r="49.5" stroke="black"/>
<circle cx="50" cy="50" r="49.5" stroke="url(#paint0_linear)"/>
<path d="M49.6013 25C49.8625 25 50.1236 25 50.382 25C50.5793 25.1056 50.7876 25.1972 50.9738 25.3195C53.1658 26.7751 55.3578 28.2363 57.5443 29.7003C58.0166 30.0169 58.3083 30.4586 58.3083 31.042C58.3111 33.7088 58.3139 36.3756 58.2917 39.0397C58.2889 39.323 58.3583 39.4786 58.5862 39.6286C59.289 40.0953 59.9781 40.5842 60.6754 41.0648C61.3116 41.5065 61.9506 41.9454 62.5813 42.3815C63.5842 41.712 64.5427 41.0703 65.504 40.4342C66.3819 39.8508 66.9542 39.8536 67.8377 40.4425C69.813 41.7593 71.78 43.0816 73.7637 44.3844C74.2888 44.7289 74.7555 45.1039 75 45.7011C75 48.5652 75 51.4292 75 54.2961C74.7583 54.8933 74.2888 55.2683 73.7637 55.6128C71.7689 56.924 69.7825 58.2518 67.8016 59.5853C67.0376 60.0992 66.3152 60.1158 65.5456 59.588C64.0704 58.5796 62.5757 57.599 61.081 56.6212C60.9477 56.5351 60.6865 56.4656 60.5837 56.5351C59.3168 57.3796 58.0694 58.2546 56.7664 59.1547C57.0387 59.3436 57.2582 59.5047 57.486 59.6519C58.0527 60.0158 58.3278 60.5242 58.3278 61.202C58.3222 63.7383 58.3222 66.2745 58.3278 68.8108C58.3278 69.4691 58.05 69.9664 57.511 70.3275C56.9442 70.7081 56.3775 71.0887 55.8079 71.4609C54.0048 72.6415 52.1962 73.8194 50.3903 75C50.1292 75 49.868 75 49.6097 75C49.4152 74.8917 49.2096 74.7972 49.0234 74.6722C46.8314 73.2166 44.6394 71.7582 42.4529 70.297C41.9445 69.9581 41.675 69.483 41.675 68.8608C41.675 66.2912 41.6778 63.7244 41.675 61.1548C41.675 60.5159 41.9473 60.0325 42.4751 59.6825C42.7141 59.5241 42.953 59.363 43.2336 59.1741C43.053 59.0408 42.928 58.9408 42.8002 58.8519C41.7333 58.1102 40.6554 57.3824 39.6024 56.6212C39.3218 56.4184 39.1412 56.449 38.8773 56.6295C37.4243 57.6157 35.9629 58.5852 34.5016 59.5575C33.6153 60.1464 33.0569 60.1408 32.1679 59.5491C30.1925 58.2352 28.2255 56.9073 26.2419 55.6073C25.7168 55.2628 25.2473 54.8933 25 54.2961C25 51.432 25 48.568 25 45.7011C25.3056 45.3372 25.5501 44.8844 25.9279 44.6233C27.9894 43.2038 30.0814 41.8287 32.1651 40.4425C33.0708 39.8397 33.6264 39.848 34.5405 40.4564C35.499 41.0953 36.4575 41.7343 37.4271 42.3787C38.8079 41.4231 40.1748 40.4842 41.5278 39.5314C41.6305 39.4591 41.6972 39.2675 41.6972 39.1341C41.7 36.4673 41.6917 33.8005 41.6833 31.1365C41.6806 30.4753 41.9917 30.0031 42.5363 29.6447C44.0948 28.6169 45.6451 27.5696 47.2037 26.5418C47.9844 26.0167 48.7984 25.5139 49.6013 25ZM59.2529 55.3989C58.4417 54.9044 58.3028 54.1905 58.3111 53.3821C58.3306 51.0403 58.325 48.6958 58.3139 46.354C58.3111 45.59 58.5889 45.0094 59.2502 44.6011C59.853 44.2288 60.4337 43.8177 61.0366 43.4149C60.9782 43.3455 60.9532 43.301 60.9171 43.2732C59.7141 42.4371 58.5167 41.5954 57.2998 40.7814C57.1831 40.7036 56.9025 40.7425 56.7664 40.8314C54.8911 42.0648 53.0297 43.3149 51.1599 44.5594C50.2709 45.1511 49.7263 45.1483 48.829 44.5511C47.1509 43.4344 45.4729 42.3149 43.7948 41.1981C42.9085 40.6092 42.9085 40.6092 42.0362 41.212C41.011 41.9232 39.9831 42.6343 38.9079 43.3788C39.5385 43.7983 40.1025 44.2038 40.6915 44.565C41.3861 44.99 41.675 45.5928 41.6694 46.3984C41.6528 48.5791 41.6556 50.7598 41.6667 52.9404C41.6722 53.8738 41.75 54.8211 40.7221 55.3906C42.0334 56.299 43.2586 57.1601 44.5005 57.9907C44.6227 58.0713 44.9033 58.0352 45.0422 57.9463C46.2841 57.1435 47.5149 56.3184 48.7428 55.4961C49.718 54.8433 50.232 54.8294 51.196 55.4711C52.4435 56.299 53.6826 57.1351 54.9383 57.9491C55.0772 58.0379 55.3578 58.0741 55.4801 57.9935C56.7275 57.1601 57.9499 56.3017 59.2529 55.3989ZM44.0059 30.6586C44.0865 30.7337 44.1171 30.7725 44.156 30.7975C46.0146 32.0782 47.876 33.356 49.7291 34.6478C49.9736 34.82 50.1264 34.7367 50.3292 34.5978C52.1184 33.3588 53.9132 32.1254 55.7051 30.8892C55.7912 30.8309 55.8718 30.7587 55.9941 30.6614C54.0326 29.353 52.1184 28.0752 50.1959 26.8084C50.1042 26.7473 49.9041 26.7418 49.8152 26.8001C47.8871 28.0668 45.9702 29.3475 44.0059 30.6586ZM33.3264 49.8236C35.3295 48.443 37.3076 47.0818 39.269 45.7317C39.2552 45.6706 39.2579 45.6484 39.2496 45.6428C37.3354 44.3566 35.4212 43.0677 33.4959 41.7954C33.4097 41.737 33.2097 41.7565 33.1152 41.8204C31.1927 43.0899 29.2757 44.3705 27.3059 45.6817C29.3285 47.0707 31.3066 48.4319 33.3264 49.8236ZM66.6653 49.8236C68.6795 48.4346 70.6576 47.0734 72.6496 45.7011C72.5802 45.6345 72.5524 45.5984 72.5135 45.5734C70.6493 44.3261 68.7795 43.0871 66.9209 41.8315C66.6653 41.6593 66.5153 41.7676 66.3208 41.8954C64.8344 42.8899 63.3453 43.8788 61.8561 44.8705C61.47 45.1289 61.0838 45.39 60.6476 45.6845C62.6813 47.079 64.6594 48.4402 66.6653 49.8236ZM43.9782 60.6825C45.7229 61.8826 47.3926 63.0327 49.0651 64.1827C49.9931 64.8217 49.9958 64.8217 50.9432 64.1716C52.6157 63.0243 54.2854 61.8715 56.0191 60.677C55.9246 60.6186 55.869 60.5881 55.8162 60.552C53.9659 59.3186 52.1129 58.0879 50.2681 56.8407C50.0264 56.6768 49.868 56.7462 49.6624 56.8851C48.6539 57.5685 47.6371 58.238 46.623 58.913C45.759 59.488 44.8978 60.0658 43.9782 60.6825ZM32.4735 57.724C32.4846 57.6101 32.4957 57.5518 32.4957 57.4907C32.4957 55.5239 32.504 53.5544 32.4818 51.5876C32.479 51.4098 32.3207 51.1737 32.1651 51.0626C30.4481 49.8597 28.7201 48.6735 26.992 47.4874C26.9031 47.4262 26.8059 47.3818 26.6753 47.3096C26.6642 47.4401 26.6558 47.5151 26.6558 47.5929C26.6558 49.5764 26.6447 51.5598 26.6697 53.5433C26.6725 53.7349 26.8392 53.9877 27.0059 54.1016C28.6839 55.2433 30.3787 56.3629 32.0706 57.4879C32.1845 57.5657 32.3096 57.6296 32.4735 57.724ZM73.3331 47.3123C73.208 47.3679 73.1608 47.3818 73.1219 47.4068C71.3272 48.6402 69.5296 49.868 67.746 51.1181C67.6071 51.2153 67.5015 51.457 67.4987 51.632C67.4821 53.5516 67.4876 55.4684 67.4904 57.3879C67.4904 57.4907 67.5182 57.5907 67.5404 57.7435C69.2101 56.6323 70.8076 55.5128 72.4662 54.4905C73.1441 54.0711 73.3831 53.6155 73.3525 52.8238C73.2886 51.007 73.3331 49.1875 73.3331 47.3123ZM49.0957 72.7304C49.129 72.6054 49.1512 72.5582 49.1512 72.511C49.154 70.5247 49.1624 68.5385 49.1401 66.5551C49.1374 66.3773 48.9623 66.1495 48.8012 66.0384C47.1231 64.8633 45.4312 63.7049 43.742 62.5437C43.6281 62.466 43.5059 62.4049 43.3336 62.3048C43.3336 64.4716 43.3281 66.569 43.3447 68.6663C43.3447 68.8024 43.4892 68.9802 43.617 69.0691C44.4866 69.6691 45.3728 70.2497 46.2508 70.8359C47.1815 71.4554 48.115 72.0748 49.0957 72.7304ZM56.6525 62.2687C54.7188 63.5994 52.8824 64.8522 51.0655 66.1301C50.9238 66.2301 50.8404 66.5079 50.8404 66.7051C50.8237 68.558 50.8293 70.4109 50.8321 72.261C50.8321 72.3971 50.8543 72.5332 50.8654 72.6915C50.9571 72.661 51.0043 72.6526 51.0432 72.6276C52.8407 71.4331 54.6411 70.2386 56.4275 69.0274C56.5525 68.9413 56.6386 68.7108 56.6414 68.5469C56.6608 67.3774 56.6525 66.2078 56.6525 65.0383C56.6525 64.1522 56.6525 63.2632 56.6525 62.2687ZM39.9719 47.3235C39.858 47.379 39.7858 47.4068 39.7247 47.4485C37.9577 48.6624 36.1852 49.8708 34.4293 51.1042C34.2821 51.207 34.1765 51.4737 34.1738 51.6626C34.1543 53.4016 34.1626 55.1406 34.1626 56.8795C34.1626 57.1462 34.1626 57.4129 34.1626 57.7713C35.4017 56.9462 36.5519 56.1795 37.7605 55.3739C37.4743 55.1739 37.2465 55.0267 37.0326 54.86C36.6603 54.5655 36.5769 54.0988 36.8131 53.7322C37.0631 53.3432 37.5382 53.2377 37.966 53.4932C38.2578 53.6683 38.5189 53.8988 38.8162 54.0627C39.0051 54.1655 39.2718 54.2905 39.4385 54.2266C39.7552 54.1044 40.0247 53.9183 40.0136 53.446C39.9775 51.5598 39.9997 49.6736 39.9969 47.7902C39.9969 47.6513 39.9831 47.5124 39.9719 47.3235ZM65.7929 57.7463C65.8096 57.6018 65.8207 57.5407 65.8207 57.4796C65.8207 55.5128 65.829 53.546 65.8068 51.5793C65.804 51.3987 65.6484 51.1626 65.4929 51.0514C63.8037 49.868 62.1006 48.7041 60.4003 47.5346C60.2892 47.4596 60.167 47.3985 59.9864 47.2957C59.9864 49.4708 59.9781 51.5654 59.9919 53.6571C59.9947 54.0961 60.6671 54.4072 61.031 54.1627C61.3533 53.9461 61.6672 53.7099 61.9951 53.5044C62.4201 53.2377 62.898 53.3294 63.1564 53.7044C63.412 54.0738 63.3258 54.56 62.9341 54.8711C62.723 55.0378 62.4979 55.185 62.234 55.3767C63.4397 56.1767 64.5816 56.9407 65.7929 57.7463ZM49.1068 42.7288C49.1318 42.576 49.154 42.501 49.154 42.426C49.1568 40.4759 49.1651 38.523 49.1429 36.5729C49.1401 36.3923 48.979 36.1562 48.8206 36.0451C47.2509 34.945 45.6673 33.8644 44.0865 32.7782C43.8643 32.6254 43.6392 32.4754 43.3808 32.3004C43.3808 34.3061 43.3808 36.2478 43.3808 38.248C43.692 38.0341 43.9393 37.8535 44.1976 37.6896C44.6588 37.3924 45.1284 37.4618 45.4034 37.8563C45.6757 38.2452 45.5784 38.7258 45.1506 39.0508C44.9144 39.2313 44.6699 39.398 44.3949 39.5953C45.9896 40.6536 47.5232 41.6759 49.1068 42.7288ZM50.871 42.7454C52.4768 41.6759 54.0187 40.6481 55.6079 39.5869C55.3134 39.3814 55.0689 39.2258 54.8355 39.0508C54.4077 38.7285 54.3104 38.248 54.5855 37.8563C54.8605 37.4618 55.3245 37.3951 55.7912 37.6896C56.058 37.859 56.3191 38.0424 56.6219 38.248C56.6219 36.2367 56.6219 34.3005 56.6219 32.3393C56.5414 32.3699 56.4941 32.381 56.458 32.406C54.6633 33.6366 52.8658 34.8644 51.0849 36.1145C50.9404 36.2173 50.8432 36.4895 50.8432 36.6812C50.8265 38.5341 50.8321 40.387 50.8349 42.2398C50.8321 42.3787 50.8515 42.5176 50.871 42.7454Z" fill="#DAA10E"/>
<defs>
<linearGradient id="paint0_linear" x1="100" y1="50" x2="3.48559e-07" y2="50" gradientUnits="userSpaceOnUse">
<stop stop-color="#DAA10E" stop-opacity="0.5"/>
<stop offset="0.369792" stop-color="#DAA10E" stop-opacity="0.21875"/>
<stop offset="0.6875" stop-color="#DAA10E" stop-opacity="0"/>
</linearGradient>
</defs>
</svg>
