<svg width="202" height="130" viewBox="0 0 202 130" fill="none" xmlns="http://www.w3.org/2000/svg">
<circle cx="25.2104" cy="104.789" r="23.2104" fill="#1E1F20" stroke="#DAA10E" stroke-width="3"/>
<circle cx="63.1049" cy="104.789" r="23.2104" fill="#1E1F20" stroke="#DAA10E" stroke-width="3"/>
<circle cx="101" cy="104.789" r="23.2104" fill="#1E1F20" stroke="#DAA10E" stroke-width="3"/>
<circle cx="138.896" cy="104.789" r="23.2104" fill="#1E1F20" stroke="#DAA10E" stroke-width="3"/>
<circle cx="176.79" cy="104.789" r="23.2104" fill="#DAA10E" stroke="#DAA10E" stroke-width="3"/>
<circle cx="25.2104" cy="93.4205" r="23.2104" fill="#1E1F20" stroke="#DAA10E" stroke-width="3"/>
<circle cx="63.1049" cy="93.4205" r="23.2104" fill="#DAA10E" stroke="#DAA10E" stroke-width="3"/>
<circle cx="101" cy="93.4205" r="23.2104" fill="#1E1F20" stroke="#DAA10E" stroke-width="3"/>
<circle cx="138.896" cy="93.4205" r="23.2104" fill="#1E1F20" stroke="#DAA10E" stroke-width="3"/>
<circle cx="176.79" cy="93.4205" r="23.2104" fill="#1E1F20" stroke="#DAA10E" stroke-width="3"/>
<circle cx="25.2104" cy="82.0521" r="23.2104" fill="#1E1F20" stroke="#DAA10E" stroke-width="3"/>
<circle cx="63.1049" cy="82.0521" r="23.2104" fill="#1E1F20" stroke="#DAA10E" stroke-width="3"/>
<circle cx="101" cy="82.0521" r="23.2104" fill="#1E1F20" stroke="#DAA10E" stroke-width="3"/>
<circle cx="138.896" cy="82.0521" r="23.2104" fill="#1E1F20" stroke="#DAA10E" stroke-width="3"/>
<circle cx="176.79" cy="82.0521" r="23.2104" fill="#1E1F20" stroke="#DAA10E" stroke-width="3"/>
<circle cx="25.2104" cy="70.6838" r="23.2104" fill="#DAA10E" stroke="#DAA10E" stroke-width="3"/>
<circle cx="63.1049" cy="70.6838" r="23.2104" fill="#1E1F20" stroke="#DAA10E" stroke-width="3"/>
<circle cx="63.1049" cy="59.3154" r="23.2104" fill="#1E1F20" stroke="#DAA10E" stroke-width="3"/>
<circle cx="63.1049" cy="47.947" r="23.2104" fill="#1E1F20" stroke="#DAA10E" stroke-width="3"/>
<circle cx="101" cy="70.6838" r="23.2104" fill="#1E1F20" stroke="#DAA10E" stroke-width="3"/>
<circle cx="101" cy="59.3154" r="23.2104" fill="#1E1F20" stroke="#DAA10E" stroke-width="3"/>
<circle cx="101" cy="47.947" r="23.2104" fill="#1E1F20" stroke="#DAA10E" stroke-width="3"/>
<circle cx="101" cy="36.5789" r="23.2104" fill="#1E1F20" stroke="#DAA10E" stroke-width="3"/>
<circle cx="101" cy="25.2104" r="23.2104" fill="#DAA10E" stroke="#DAA10E" stroke-width="3"/>
<circle cx="138.896" cy="70.6838" r="23.2104" fill="#1E1F20" stroke="#DAA10E" stroke-width="3"/>
<circle cx="138.896" cy="59.3154" r="23.2104" fill="#DAA10E" stroke="#DAA10E" stroke-width="3"/>
<circle cx="138.896" cy="47.947" r="23.2104" fill="#1E1F20" stroke="#DAA10E" stroke-width="3"/>
<circle cx="176.79" cy="70.6838" r="23.2104" fill="#1E1F20" stroke="#DAA10E" stroke-width="3"/>
</svg>
