<svg width="50" height="50" viewBox="0 0 50 50" fill="none" xmlns="http://www.w3.org/2000/svg">
<circle cx="25" cy="25" r="24.5" stroke="black"/>
<circle cx="25" cy="25" r="24.5" stroke="url(#paint0_linear)"/>
<path d="M24.4455 35.336C23.1949 35.336 22.0655 35.112 21.0575 34.664C20.0495 34.1973 19.2375 33.5067 18.6215 32.592C18.0242 31.6773 17.7069 30.5387 17.6695 29.176H20.0495C20.0682 30.296 20.4602 31.2667 21.2255 32.088C21.9909 32.8907 23.0642 33.292 24.4455 33.292C25.8269 33.292 26.8629 32.9093 27.5535 32.144C28.2629 31.3787 28.6175 30.4547 28.6175 29.372C28.6175 28.4573 28.3935 27.7107 27.9455 27.132C27.5162 26.5533 26.9282 26.124 26.1815 25.844C25.4535 25.564 24.6509 25.424 23.7735 25.424H22.3175V23.436H23.7735C25.0429 23.436 26.0322 23.1467 26.7415 22.568C27.4695 21.9893 27.8335 21.1773 27.8335 20.132C27.8335 19.2547 27.5442 18.536 26.9655 17.976C26.4055 17.3973 25.5655 17.108 24.4455 17.108C23.3629 17.108 22.4949 17.4347 21.8415 18.088C21.1882 18.7227 20.8242 19.5253 20.7495 20.496H18.3695C18.4255 19.432 18.7055 18.4893 19.2095 17.668C19.7322 16.8467 20.4415 16.212 21.3375 15.764C22.2335 15.2973 23.2695 15.064 24.4455 15.064C25.7149 15.064 26.7695 15.288 27.6095 15.736C28.4682 16.184 29.1122 16.7813 29.5415 17.528C29.9895 18.2747 30.2135 19.096 30.2135 19.992C30.2135 20.9813 29.9429 21.8867 29.4015 22.708C28.8602 23.5107 28.0482 24.052 26.9655 24.332C28.1229 24.5747 29.0842 25.1253 29.8495 25.984C30.6149 26.8427 30.9975 27.972 30.9975 29.372C30.9975 30.4547 30.7455 31.4533 30.2415 32.368C29.7562 33.264 29.0282 33.9827 28.0575 34.524C27.0869 35.0653 25.8829 35.336 24.4455 35.336Z" fill="white"/>
<defs>
<linearGradient id="paint0_linear" x1="50" y1="25" x2="1.7428e-07" y2="25" gradientUnits="userSpaceOnUse">
<stop stop-color="#DAA10E" stop-opacity="0.5"/>
<stop offset="0.369792" stop-color="#DAA10E" stop-opacity="0.21875"/>
<stop offset="0.6875" stop-color="#DAA10E" stop-opacity="0"/>
</linearGradient>
</defs>
</svg>
