<svg width="50" height="50" viewBox="0 0 50 50" fill="none" xmlns="http://www.w3.org/2000/svg">
<circle cx="25" cy="25" r="24.5" stroke="black"/>
<circle cx="25" cy="25" r="24.5" stroke="url(#paint0_linear)"/>
<path d="M18.2523 35V33.348C19.5776 32.3027 20.8283 31.248 22.0043 30.184C23.1989 29.1013 24.2536 28.0373 25.1683 26.992C26.1016 25.9467 26.8296 24.92 27.3523 23.912C27.8936 22.904 28.1643 21.9333 28.1643 21C28.1643 20.3093 28.0429 19.6653 27.8003 19.068C27.5763 18.4707 27.2029 17.9947 26.6803 17.64C26.1576 17.2667 25.4483 17.08 24.5523 17.08C23.6936 17.08 22.9749 17.276 22.3963 17.668C21.8176 18.0413 21.3789 18.5453 21.0803 19.18C20.8003 19.8147 20.6603 20.496 20.6603 21.224H18.3923C18.3923 19.936 18.6629 18.8347 19.2043 17.92C19.7456 16.9867 20.4829 16.2773 21.4163 15.792C22.3496 15.3067 23.4043 15.064 24.5803 15.064C26.3163 15.064 27.7349 15.5587 28.8363 16.548C29.9563 17.5187 30.5163 18.9747 30.5163 20.916C30.5163 22.0733 30.2269 23.2213 29.6483 24.36C29.0696 25.48 28.3323 26.572 27.4363 27.636C26.5403 28.6813 25.5789 29.6613 24.5523 30.576C23.5443 31.4907 22.6016 32.312 21.7243 33.04H31.1883V35H18.2523Z" fill="white"/>
<defs>
<linearGradient id="paint0_linear" x1="50" y1="25" x2="1.7428e-07" y2="25" gradientUnits="userSpaceOnUse">
<stop stop-color="#DAA10E" stop-opacity="0.5"/>
<stop offset="0.369792" stop-color="#DAA10E" stop-opacity="0.21875"/>
<stop offset="0.6875" stop-color="#DAA10E" stop-opacity="0"/>
</linearGradient>
</defs>
</svg>
