<svg width="19" height="22" viewBox="0 0 19 22" fill="none" xmlns="http://www.w3.org/2000/svg">
<path d="M8.53725 22C6.55156 22 4.76408 21.2834 3.22732 19.8733C2.37804 19.0911 1.81188 18.074 1.44386 16.6676C1.21735 15.8007 1.12432 14.9454 1.05966 14.2211C0.978773 13.2809 0.889766 12.3678 0.812971 11.5972L0.804854 11.4971C0.736105 10.8151 0.663332 10.1062 0.578419 9.4165C0.493434 8.74607 0.39638 8.06026 0.299326 7.40142L0.194226 6.6578C0.173968 6.5191 0.149687 6.37654 0.1295 6.23784C0.0769144 5.91034 0.024329 5.58669 0.00414244 5.25535C-0.056561 4.2613 0.554138 3.4021 1.55707 3.06305C1.9251 2.93976 2.31332 2.91279 2.68134 2.97444C2.72983 2.26936 3.12214 1.62592 3.76517 1.24063C4.56588 0.759017 5.55675 0.801402 6.34934 1.34851C6.8387 1.68756 7.13396 2.16918 7.2512 2.82032C7.43726 3.83363 7.62325 4.84309 7.80931 5.8564L7.86592 6.15307L8.48064 3.24028C8.57769 2.78179 8.67474 2.31174 8.76778 1.84553C8.98207 0.759017 9.92035 0 11.0446 0C12.2052 0.00385289 13.1799 0.828374 13.3174 1.91489C13.3215 1.938 13.3215 1.96113 13.3255 1.98039C13.6935 1.92645 14.0696 1.95342 14.4215 2.07671C15.5498 2.46586 16.1604 3.56393 15.9097 4.75062L15.6832 5.81402C15.4001 7.12787 15.1171 8.45707 14.8582 9.77481C15.2465 9.30086 15.7803 8.99265 16.3667 8.90789C16.9652 8.82314 17.5719 8.97728 18.0814 9.33943C18.8215 9.86726 19.1611 10.7996 18.9266 11.6627C18.6961 12.5065 18.2957 13.2655 17.9075 14.0015C17.8064 14.1902 17.7094 14.379 17.6122 14.5716C16.7589 16.2515 15.8895 17.8736 14.6156 19.2683C13.4104 20.5899 12.1244 21.3989 10.6846 21.7419C9.94866 21.9114 9.22876 22 8.53725 22ZM2.28501 4.24204C2.19198 4.24204 2.09895 4.25745 2.01001 4.28827C1.57726 4.43469 1.33868 4.75832 1.36699 5.17443C1.38315 5.448 1.43171 5.73696 1.47618 6.01437C1.50449 6.18004 1.52877 6.33031 1.54895 6.48057L1.65413 7.22416C1.75118 7.89075 1.84824 8.5804 1.93724 9.25852C2.02618 9.96361 2.09895 10.6802 2.1677 11.3699L2.17582 11.4701C2.25269 12.2445 2.34564 13.1653 2.42653 14.1093C2.48314 14.7835 2.57215 15.5734 2.77437 16.3478C3.07768 17.5076 3.5225 18.3244 4.17767 18.9293C5.90452 20.5167 7.97511 21.0291 10.349 20.4666C11.5056 20.1892 12.5611 19.5149 13.5802 18.4014C14.7449 17.1261 15.5659 15.5888 16.3747 13.9937C16.4759 13.7972 16.577 13.6007 16.6821 13.4081C17.0542 12.703 17.402 12.0365 17.6002 11.3275C17.6972 10.9808 17.5556 10.5916 17.2604 10.3797C17.042 10.2256 16.8035 10.1601 16.5688 10.1948C16.3343 10.2294 16.1119 10.3604 15.938 10.5723L14.1828 13.7201C14.0291 13.9975 13.6935 14.1286 13.3781 14.04C13.0626 13.9475 12.8604 13.6585 12.8927 13.3503C12.9979 12.3601 13.1637 11.3044 13.4307 9.92888C13.7097 8.47251 14.0251 7.0007 14.3324 5.57899L14.567 4.48862C14.6843 3.93765 14.4457 3.47146 13.9564 3.30193C13.6491 3.19405 13.2649 3.28652 13.01 3.5254C12.7998 3.72189 12.4843 3.76813 12.2214 3.64099C11.9586 3.51384 11.8089 3.24414 11.8535 2.96673C11.8615 2.92434 11.8655 2.87811 11.8696 2.83573C11.8818 2.73941 11.8979 2.63538 11.9141 2.53906C11.9464 2.36182 11.9747 2.19615 11.9586 2.07286C11.9019 1.63748 11.5137 1.30613 11.0486 1.30228C10.5795 1.30228 10.2075 1.61822 10.1145 2.08442C10.0214 2.55447 9.92035 3.02837 9.8233 3.49072L8.49278 9.80178C8.42805 10.1062 8.14494 10.3258 7.82145 10.3258C7.81735 10.3258 7.81736 10.3258 7.81333 10.3258C7.48575 10.3219 7.2027 10.0946 7.14602 9.78634C7.00048 9.00034 6.85487 8.21049 6.70932 7.42455L6.45853 6.07602C6.27254 5.06271 6.08246 4.04939 5.90049 3.03608C5.82765 2.64308 5.67801 2.49282 5.54051 2.3965C5.20891 2.16532 4.81667 2.14221 4.49311 2.33871C4.1615 2.53906 3.9916 2.90894 4.06445 3.28652C4.11294 3.5331 4.15748 3.78354 4.19792 4.03398C4.25044 4.32295 4.09275 4.61577 3.80964 4.73906C3.5266 4.86235 3.19901 4.79685 2.99679 4.57338C2.8067 4.35762 2.54787 4.24204 2.28501 4.24204Z" fill="#9F9F9F"/>
</svg>
